<?xml version="1.0" standalone="no"?>
<!DOCTYPE svg PUBLIC "-//W3C//DTD SVG 1.0//EN" "http://www.w3.org/TR/2001/REC-SVG-20010904/DTD/svg10.dtd">
<svg xmlns="http://www.w3.org/2000/svg" xmlns:xlink="http://www.w3.org/1999/xlink" id="body_1" width="1024" height="768">

<g transform="matrix(1.0205467 0 0 1.0205467 -0 103.82479)">
    <path transform="matrix(1 0 0 1 67.048004 -90.95501)"  d="M658.57 129.76L534.35 129.76C 532.6931 129.76 531.35 131.10313 531.35 132.76L531.35 132.76L531.35 164.12999C 531.35 165.78685 532.6931 167.12999 534.35 167.12999L534.35 167.12999L545.52997 167.12999L545.52997 177.46999L558.52997 167.12999L658.52997 167.12999C 660.1868 167.12999 661.52997 165.78685 661.52997 164.12999L661.52997 164.12999L661.52997 132.77C 661.5356 131.12477 660.2151 129.78195 658.57 129.76z" stroke="none" fill="#008FC3" fill-rule="nonzero" />
    <path transform="matrix(1 0 0 1 67.048004 -90.95501)"  d="M251.91 434.93C 251.91 434.93 251.75 447.50998 255.58 450.62C 258.78482 447.80927 261.2678 444.27005 262.82 440.3C 259.0619 438.7681 255.41618 436.97363 251.91 434.93z" stroke="none" fill="#0071F2" fill-rule="nonzero" />
    <path transform="matrix(1 0 0 1 67.048004 -90.95501)"  d="M518.4 584.93L531.74 449.7C 531.74 449.7 591.55 460.36002 616.92 449.7L616.92 449.7L611.76996 584.93L578 584.93L574.33 494.18L557 584.93L518.4 584.93z" stroke="none" fill="#3F3D56" fill-rule="nonzero" />
    <path transform="matrix(1 0 0 1 67.048004 -90.95501)"  d="M518.4 584.93L531.74 449.7C 531.74 449.7 591.55 460.36002 616.92 449.7L616.92 449.7L611.76996 584.93L578 584.93L574.33 494.18L557 584.93L518.4 584.93z" stroke="none" fill="#2F2E41" fill-rule="nonzero" />
    <path transform="matrix(1 0 0 1 67.048004 -90.95501)"  d="M271 495.56C 271 495.56 267.69 456.41 290 427.19C 290 427.19 297.72 441.25 331.08002 437.94C 331.08002 437.94 347.54 435.02 355.16 430.69C 355.16 430.69 368.30002 459.45 367.47 490.32C 367.47 490.32 362.47 578.08 360.85 584.93L360.85 584.93L329.46 584.93C 329.46 584.93 318.71 507.69 317.88 498C 317.88 498 317.88 562.61 320.64 584.89L320.64 584.89L287.56 584.89C 287.56 584.89 269.25 522.68 271 495.56z" stroke="none" fill="#2F2E41" fill-rule="nonzero" />
    <path transform="matrix(1 0 0 1 67.048004 -90.95501)"  d="M268 418.64L269.38 371.78003C 270.76 344.21002 310.11002 339.68002 310.11002 339.68002C 310.11002 339.68002 348.51 335.38004 360.11002 342.28003L360.11002 342.28003L406.7 378.50003L403.39 436.29004L385.19 453.66003C 385.19 453.66003 369.75 426.66003 370.58002 421.40002L370.58002 421.40002L389.88 405.40002C 389.88 405.40002 364.24 388.31003 361.76 383.62003C 361.76 383.62003 344.76 416.43002 361.21002 444.82004C 361.21002 444.82004 345.77002 457.51004 327.02002 459.44003C 327.02002 459.44003 321.6 379.76004 333.55002 344.75003C 333.55002 344.75003 319.92 353.75003 308.37003 344.75003C 308.37003 344.75003 297.80002 365.98004 299.73 399.33002C 299.73 399.33002 304.42 446.75 299.73 457.78003C 299.73 457.78003 281.38 453.85004 278.07 449.17004C 278.07 449.17004 280.64 444.24005 283.74002 432.42004C 283.74002 432.42004 278.74002 450.61005 255.62003 450.61005C 255.58 450.62 267.35 440.15 268 418.64z" stroke="none" fill="#008FC3" fill-rule="nonzero" />
    <path transform="matrix(1 0 0 1 67.048004 -90.95501)"  d="M404.75 445.72L383.5 584.93L417.69 584.93L438.74 493.75C 439.10965 492.073 440.59277 490.87653 442.31 490.87C 444.0299 490.869 445.51715 492.0688 445.88 493.75L445.88 493.75L466.94 584.93L502.6 584.93L482.31 445.72L404.75 445.72z" stroke="none" fill="#2F2E41" fill-rule="nonzero" />
    <path transform="matrix(1 0 0 1 67.048004 -90.95501)"  d="M396.83 435.84L396.83 442.59C 396.82758 445.69666 399.14597 448.3156 402.22998 448.69C 416.71997 450.44 457.75998 455.69 482.22998 449.04C 485.36542 448.17102 487.437 445.19177 487.15997 441.95L487.15997 441.95L486.70996 436.75L438 424.6L396.83 435.84z" stroke="none" fill="#3F3D56" fill-rule="nonzero" />
    <path transform="matrix(1 0 0 1 67.048004 -90.95501)"  d="M396.83 435.84L396.83 442.59C 396.82758 445.69666 399.14597 448.3156 402.22998 448.69C 416.71997 450.44 457.75998 455.69 482.22998 449.04C 485.36542 448.17102 487.437 445.19177 487.15997 441.95L487.15997 441.95L486.70996 436.75L438 424.6L396.83 435.84z" stroke="none" fill="#0071F2" fill-rule="nonzero" />
    <path transform="matrix(1 0 0 1 67.048004 -90.95501)"  d="M396.83 435.84L396.83 442.59C 396.82758 445.69666 399.14597 448.3156 402.22998 448.69C 416.71997 450.44 457.75998 455.69 482.22998 449.04C 485.36542 448.17102 487.437 445.19177 487.15997 441.95L487.15997 441.95L486.70996 436.75L438 424.6L396.83 435.84z" stroke="none" fill="#49C5DB" fill-rule="nonzero" fill-opacity="0.2" />
    <path transform="matrix(1 0 0 1 67.048004 -90.95501)"  d="M489 408.4L426.51 397.4L419.65002 411.86L417 418.31L438.81 427.19C 438.81 427.19 500.31 451.03 508.89 430.45C 508.89 430.45 514.08 421.72 509.18002 402.65002C 509.00122 401.95776 508.8577 401.25687 508.75003 400.55002C 507.75003 394.27002 501.69003 359.76 481.44003 351.30002C 481.44003 351.30002 466.99002 345.42 462.82004 344.69003L462.82004 344.69003L421.13 344.69003C 421.13 344.69003 390.51 349.01004 382.91 372.13004C 382.91 372.13004 371.91 399.05005 372.13 418.31003C 372.13 418.31003 370.41 437.56003 387.81 438.31003C 387.81 438.31003 423.09 438.16003 438.81 427.21002L438.81 427.21002L417 418.31L419.69 411.83C 414.73615 411.26343 409.73383 411.26343 404.78 411.83C 404.78 411.83 408.18 402.97998 408.42 394.4" stroke="none" fill="#0071F2" fill-rule="nonzero" />
    <path transform="matrix(1 0 0 1 67.048004 -90.95501)"  d="M489 408.4L426.51 397.4L419.65002 411.86L417 418.31L438.81 427.19C 438.81 427.19 500.31 451.03 508.89 430.45C 508.89 430.45 514.08 421.72 509.18002 402.65002C 509.00122 401.95776 508.8577 401.25687 508.75003 400.55002C 507.75003 394.27002 501.69003 359.76 481.44003 351.30002C 481.44003 351.30002 466.99002 345.42 462.82004 344.69003L462.82004 344.69003L421.13 344.69003C 421.13 344.69003 390.51 349.01004 382.91 372.13004C 382.91 372.13004 371.91 399.05005 372.13 418.31003C 372.13 418.31003 370.41 437.56003 387.81 438.31003C 387.81 438.31003 423.09 438.16003 438.81 427.21002L438.81 427.21002L417 418.31L419.69 411.83C 414.73615 411.26343 409.73383 411.26343 404.78 411.83C 404.78 411.83 408.18 402.97998 408.42 394.4" stroke="none" fill="#49C5DB" fill-rule="nonzero" fill-opacity="0.2" />
    <path transform="matrix(1 0 0 1 67.048004 -90.95501)"  d="M426.52 397.37C 424.69 400.29 423.62 403.69998 421.8 407.32C 420.00452 410.90253 418.39255 414.57373 416.97 418.32C 422.31 420.64 427.97 422.87 433.77 425.15C 443.03998 428.75 454.06998 432.75 461.06 434.3C 461.06 434.3 486.7 441.49 498.99 437.86C 498.99 437.86 511.5 438.08 511.25 417.40997L511.25 417.40997L510.6 409.69998L489 408.4L426.52 397.37z" stroke="none" fill="#000000" fill-rule="nonzero" fill-opacity="0.2" />
    <path transform="matrix(1 0 0 1 67.048004 -90.95501)"  d="M425.3 338.36C 425.3 338.36 441.58 332.78998 457.06 338.08C 455.38998 340.87997 453.58 343.75 451.59 346.68C 448.28 351.58 444.93 356.02 441.66998 360.00998L441.66998 360.00998L425.3 338.36z" stroke="none" fill="#0071F2" fill-rule="nonzero" />
    <path transform="matrix(1 0 0 1 67.048004 -90.95501)"  d="M425.3 338.36C 425.3 338.36 441.58 332.78998 457.06 338.08C 455.38998 340.87997 453.58 343.75 451.59 346.68C 448.28 351.58 444.93 356.02 441.66998 360.00998L441.66998 360.00998L425.3 338.36z" stroke="none" fill="#FFFFFF" fill-rule="nonzero" fill-opacity="0.2" />
    <path transform="matrix(1 0 0 1 67.048004 -90.95501)"  d="M301.76 435.41C 301.76 435.41 308.49002 438.82 326.04 438.32L326.04 438.32L326.14 401.24C 326.14 401.24 326.68002 363.47 333.51 344.75998C 333.51 344.75998 319.94 353.46997 308.33002 344.75998C 308.33002 344.75998 299.00003 362.89996 299.48 388.34998C 299.34 391.46997 299.25 394.65997 299.23 397.90997C 299.13586 410.45563 299.98154 422.9907 301.76 435.41z" stroke="none" fill="#CCCCCC" fill-rule="nonzero" />
    <path transform="matrix(1 0 0 1 67.048004 -90.95501)"  d="M298.67 306.32C 298.67 306.32 293.78 284.4 303.85 279.48C 303.85 279.48 314.85 271.75 325.64 278.31C 325.64 278.31 345.08002 275.03 347.19 297.31C 347.19 297.31 346.02 328.47 352.57 339.71L352.57 339.71L334.77002 339.71L294.95 343.71C 294.95 343.71 301.21 320.75 298.67 306.32z" stroke="none" fill="#2F2E41" fill-rule="nonzero" />
    <path transform="matrix(1 0 0 1 67.048004 -90.95501)"  d="M251.91 434.93C 251.91 434.93 251.75 447.50998 255.58 450.62C 255.58 450.62 260.58002 445.69998 262.82 440.3C 262.82 440.3 255.42 438 251.91 434.93z" stroke="none" fill="#231F20" fill-rule="nonzero" fill-opacity="0.2" />
    <path transform="matrix(1 0 0 1 67.048004 -90.95501)"  d="M348.14 436C 348.14 436 339.98 439.57 334.54 440.48C 332.34433 440.83395 330.14603 439.86215 328.93002 438L328.93002 438L326.73 434.69C 326.2008 433.889 325.9191 432.94998 325.92 431.99L325.92 431.99L325.92 430.09998C 325.91745 428.2571 326.94907 426.56866 328.59003 425.72998C 333.78003 423.06998 345.30002 417.9 351.93002 420.63998C 352.60715 420.9263 353.21185 421.36017 353.7 421.90997C 355.45 423.80997 360.06 428.86 360.79 430.27997C 360.79 430.27997 367.85 429.27997 371.45 425.93997C 371.45 425.93997 376.17 436.78998 377.2 438.80997C 377.2 438.80997 363.86002 449.90997 355.55002 443.94998C 355.55 444 350.31 440.16 348.14 436z" stroke="none" fill="#F9B499" fill-rule="nonzero" />
    <path transform="matrix(1 0 0 1 67.048004 -90.95501)"  d="M284 418.31C 284 418.31 286.16 400.96 284.9 390.49C 284.9 390.49 288.33 407.65 286.53 418.31L286.53 418.31L284 418.31z" stroke="none" fill="#231F20" fill-rule="nonzero" fill-opacity="0.2" />
    <path transform="matrix(1 0 0 1 67.048004 -90.95501)"  d="M278.92 458.74C 277.6237 458.73956 276.33405 458.55438 275.09003 458.19L275.09003 458.19L275.29004 457.58002C 275.61005 457.69 283.15002 460.15002 286.14005 453.89L286.14005 453.89L286.76004 454.12003C 285.32983 457.11145 282.22986 458.9382 278.92 458.74z" stroke="none" fill="#3F3D56" fill-rule="nonzero" />
	<g transform="matrix(1 0 0 1 67.048004 -90.95501)">
        <path d="M365.45 465.09C 348.45 463.29 347.56 453.36 347.55002 453.26L347.55002 453.26L348.28003 452.90002C 348.28003 453.00003 348.89 462.7 365.33002 464.44003L365.33002 464.44003L365.45 465.09z" stroke="none" fill="#231F20" fill-rule="nonzero" fill-opacity="0.2" />
	</g>
    <path transform="matrix(1 0 0 1 67.048004 -90.95501)"  d="M429.46 363.8L421.13 344.69L425.3 338.36L438.49 355.81L429.46 363.8L429.46 363.8" stroke="none" fill="#0071F2" fill-rule="nonzero" />
    <path transform="matrix(1 0 0 1 67.048004 -90.95501)"  d="M444.9 356.45L453.72 363.8L462.79 344.69L457.06 338.08L444.9 356.45L444.9 356.45" stroke="none" fill="#0071F2" fill-rule="nonzero" />
    <path transform="matrix(1 0 0 1 67.048004 -90.95501)"  d="M431.65 326.97L429.54 343.97L441.67 360.01L444.9 356.2L453.43 343.49L450.77 326.97L431.65 326.97L431.65 326.97" stroke="none" fill="#F9B499" fill-rule="nonzero" />
    <path transform="matrix(1 0 0 1 67.048004 -90.95501)"  d="M408 399.34C 408 399.34 421.78 399.07 424.83 401.05L424.83 401.05L419.71 411.83C 419.71 411.83 407.46 410.9 404.8 411.83C 404.75 411.86 407.54 403.47 408 399.34z" stroke="none" fill="#F9B499" fill-rule="nonzero" />
    <path transform="matrix(1 0 0 1 67.048004 -90.95501)"  d="M469.23 404.91C 469.23 404.91 475.77002 393.83002 486.85 392.91C 489.91437 392.6833 492.93924 393.71204 495.23 395.76C 496.12793 396.5615 496.65363 397.6992 496.68204 398.90247C 496.71045 400.10574 496.23907 401.267 495.38 402.11002L495.38 402.11002L489 408.4L469.23 404.91z" stroke="none" fill="#F9B499" fill-rule="nonzero" />
    <path transform="matrix(1 0 0 1 67.048004 -90.95501)"  d="M567.94 318.29C 567.94 318.29 567.94 318.55002 567.88 319C 567.55 322.7 565.88 339.76 562.15 341.73L562.15 341.73L563.53 351.08002C 563.53 351.08002 580.89 355.75003 588.06006 351.08002L588.06006 351.08002L588.06006 339.08002C 588.06006 339.08002 586.2701 339.21002 586.2701 337.84003L586.2701 337.84003L586.5501 332.32004L567.94 318.29z" stroke="none" fill="#F9B499" fill-rule="nonzero" />
    <path transform="matrix(1 0 0 1 67.048004 -90.95501)"  d="M529.89 402.1L533.75 465.51C 533.75 465.51 564.63 477.37 569.87 475.71002C 569.87 475.71002 571.52 390.80002 568.35 369.29004L568.35 369.29004L555.52997 344.69003C 550.43 343.89005 530.45996 354.09003 524.95996 356.97003C 524.0153 357.46738 523.21594 358.2013 522.63995 359.10004C 512.4898 375.37515 505.05914 393.19522 500.63995 411.86005C 500.63995 411.86005 505.63995 449.25006 517.17993 465.51004C 517.17993 465.51004 533.99994 460.82004 536.74994 455.31003C 536.74994 455.31003 526.82996 422.50003 524.06995 417.54004C 524.1 417.54 524.93 416.71 529.89 402.1z" stroke="none" fill="#0071F2" fill-rule="nonzero" />
    <path transform="matrix(1 0 0 1 67.048004 -90.95501)"  d="M590 475.87L588.07 371.22L592.3 339.89C 592.3 339.89 625.83997 353.89 628.87 374.26L628.87 374.26L632.73 391.76L635.49 389.14L629.43 438.82C 629.43 438.82 621.71 440.42 620.05 431.33002L620.05 431.33002L621.16 470.75C 621.16 470.75 610.12 476 590 475.87z" stroke="none" fill="#0071F2" fill-rule="nonzero" />
    <path transform="matrix(1 0 0 1 67.048004 -90.95501)"  d="M618.94 399.34L620.04 431.34C 620.04 431.34 621.32996 440.27 629.42 438.83L629.42 438.83L629.91 434.83C 629.91 434.83 620.23 435 618.94 399.34z" stroke="none" fill="#000000" fill-rule="nonzero" fill-opacity="0.2" />
    <path transform="matrix(1 0 0 1 67.048004 -90.95501)"  d="M520.68 464.43C 520.68 464.43 522.45 475.43 529.25 478.74C 529.25 478.74 539.83 473.41998 544.37 469.37C 544.37 469.37 548.37 473.6 550.02 473.6C 551.13586 473.60794 552.1639 472.99594 552.6888 472.01123C 553.2136 471.02655 553.1486 469.8319 552.52 468.91C 550.61993 466.27927 548.27057 464.0044 545.58 462.19C 542.7926 460.42322 539.5498 459.50912 536.25 459.56C 535.2045 459.65286 534.1615 459.3574 533.32 458.73C 533.32 458.73 524.84 464.36 520.68 464.43z" stroke="none" fill="#F9B499" fill-rule="nonzero" />
    <path transform="matrix(1 0 0 1 67.048004 -90.95501)"  d="M666.54 400.66L634.47 397.45L611.77 584.93L645.22 584.93L666.54 400.66L666.54 400.66" stroke="none" fill="#2F2E41" fill-rule="nonzero" />
    <path transform="matrix(1 0 0 1 67.048004 -90.95501)"  d="M624.42 580.2L644.87 398.49L655.51 399.35L635.48 584.93L623.78 584.93L624.42 580.2L624.42 580.2" stroke="none" fill="#FFFFFF" fill-rule="nonzero" fill-opacity="0.2" />
    <path transform="matrix(1 0 0 1 67.048004 -90.95501)"  d="M635.48 386.17L634.47 397.45L666.54 400.66L667.68 390.15L635.48 386.17L635.48 386.17" stroke="none" fill="#2F2E41" fill-rule="nonzero" />
    <path transform="matrix(1 0 0 1 67.048004 -90.95501)"  d="M635.48 386.17L634.47 397.45L666.54 400.66L667.68 390.15L635.48 386.17L635.48 386.17" stroke="none" fill="#000000" fill-rule="nonzero" fill-opacity="0.2" />
    <path transform="matrix(1 0 0 1 67.048004 -90.95501)"  d="M636.52 375L635.52 386.21L667.72003 390.21L668.87 378C 669.1846 374.79318 668.2081 371.59323 666.1568 369.10837C 664.10547 366.6235 661.1484 365.0586 657.94 364.76L657.94 364.76L649.71 363.99002C 646.4992 363.69302 643.3024 364.6877 640.827 366.75403C 638.3516 368.8203 636.80164 371.78784 636.52 375z" stroke="none" fill="#2F2E41" fill-rule="nonzero" />
    <path transform="matrix(1 0 0 1 67.048004 -90.95501)"  d="M653.89 365.69C 653.89 365.69 646.77 377.33002 664.23004 381.43C 664.23004 381.43 672.64 384.22998 672.86005 373.56C 672.86005 373.56 673.72003 361.16998 658.2001 359.44C 658.2001 359.44 644.3901 357.7 643.5301 364.74C 643.4012 365.76572 643.7182 366.7975 644.4009 367.57382C 645.08356 368.35016 646.0663 368.7966 647.1001 368.8C 648.71 368.78 650.94 368.07 653.89 365.69z" stroke="none" fill="#F9B499" fill-rule="nonzero" />
    <path transform="matrix(1 0 0 1 67.048004 -90.95501)"  d="M570.3 454.05C 570.3 454.05 570.69 385.28 568.35 369.28998C 568.35 369.28998 564.63995 358.61996 563.52997 351.08C 563.52997 351.08 581.57996 355.61 588.06 351.08L588.06 351.08L588.06 371.21997L589.6 454.34998L570.3 454.05z" stroke="none" fill="#CCCCCC" fill-rule="nonzero" />
    <path transform="matrix(1 0 0 1 67.048004 -90.95501)"  d="M199.43 364.65L252.31 370.72C 254.28703 370.9602 255.933 372.35083 256.5 374.26L256.5 374.26L273.63 432.79L259 431.15L210.63 422.86L196.1 368.52C 195.83054 367.53265 196.06912 366.47595 196.73666 365.70013C 197.4042 364.92435 198.4135 364.53082 199.43 364.65z" stroke="none" fill="#2F2E41" fill-rule="nonzero" />
    <path transform="matrix(1 0 0 1 67.048004 -90.95501)"  d="M249.79 370.43L256.69998 370.43C 258.30612 370.4257 259.72302 371.48022 260.18 373.02L260.18 373.02L277 428.73L316.64 422.94C 317.2916 422.84424 317.95267 423.03622 318.45166 423.4661C 318.95062 423.896 319.23828 424.5214 319.24002 425.18C 319.23807 426.32776 318.37964 427.2935 317.24002 427.43L317.24002 427.43L273.67 432.78998L256.5 374.26C 256.5 374.26 255.58 369.85 249.79 370.43z" stroke="none" fill="#2F2E41" fill-rule="nonzero" />
    <path transform="matrix(1 0 0 1 67.048004 -90.95501)"  d="M249.79 370.43L256.69998 370.43C 258.30612 370.4257 259.72302 371.48022 260.18 373.02L260.18 373.02L277 428.73L316.64 422.94C 317.2916 422.84424 317.95267 423.03622 318.45166 423.4661C 318.95062 423.896 319.23828 424.5214 319.24002 425.18C 319.23807 426.32776 318.37964 427.2935 317.24002 427.43L317.24002 427.43L273.67 432.78998L256.5 374.26C 256.5 374.26 255.58 369.85 249.79 370.43z" stroke="none" fill="#231F20" fill-rule="nonzero" fill-opacity="0.2" />
    <path transform="matrix(1 0 0 1 67.048004 -90.95501)"  d="M273.48 417.16L314.42 423.26L276.96 428.73L273.48 417.16L273.48 417.16" stroke="none" fill="#2F2E41" fill-rule="nonzero" />
    <path transform="matrix(1 0 0 1 67.048004 -90.95501)"  d="M308.33 344.76C 308.33 344.76 311.08 339.68002 311.03998 331.18002L311.03998 331.18002L326.88998 322.34003L331.49 315.39L334.77 339.68002L333.50998 344.76C 333.50998 344.76 318.27 354.92 308.33 344.76z" stroke="none" fill="#F9B499" fill-rule="nonzero" />
    <path transform="matrix(1 0 0 1 67.048004 -90.95501)"  d="M234.57 417.4C 232.041 416.75424 229.3616 417.5482 227.59267 419.4675C 225.82373 421.3868 225.25053 424.12195 226.1 426.59C 227.39 430.59 231.1 434.93 241.1 434.93C 241.1 434.93 248.27 434.77 251.94 434.93C 251.94 434.93 258.6 439.44998 262.85 440.3C 264.16858 437.51285 265.2588 434.62344 266.11002 431.65997C 266.11002 431.65997 250.50002 431.89996 245.80002 425.19998C 245.77 425.2 240.44 418.94 234.57 417.4z" stroke="none" fill="#F9B499" fill-rule="nonzero" />
    <path transform="matrix(1 0 0 1 67.048004 -90.95501)"  d="M407.35 390.93L407.95 399.34C 407.95 399.34 421.53 399.18 424.78 401.05L424.78 401.05L427.33 395.99L407.35 390.93z" stroke="none" fill="#0071F2" fill-rule="nonzero" />
    <path transform="matrix(1 0 0 1 67.048004 -90.95501)"  d="M407.35 390.93L407.95 399.34C 407.95 399.34 421.53 399.18 424.78 401.05L424.78 401.05L427.33 395.99L407.35 390.93z" stroke="none" fill="#FFFFFF" fill-rule="nonzero" fill-opacity="0.2" />
    <path transform="matrix(1 0 0 1 67.048004 -90.95501)"  d="M530.15 408.45L537.89 392.26L530.79 418.93L530.15 408.45L530.15 408.45" stroke="none" fill="#000000" fill-rule="nonzero" fill-opacity="0.2" />
    <path transform="matrix(1 0 0 1 67.048004 -90.95501)"  d="M544.73 461.67C 544.73 461.67 550.38995 465.04 552.54 468.91C 552.54 468.91 553.62 471.16 552.68 472.15L552.68 472.15L557 473.46L557 472.46C 555.40625 463.72134 548.7525 456.77643 540.09 454.81L540.09 454.81L531.74005 432.43L532.1401 438.94L536.7801 455.27C 535.989 456.7192 534.7939 457.90738 533.3401 458.69C 534.22534 459.2227 535.2369 459.50922 536.2701 459.52C 539.2097 459.60162 542.09644 460.32156 544.7301 461.62997" stroke="none" fill="#000000" fill-rule="nonzero" fill-opacity="0.2" />
    <path transform="matrix(1 0 0 1 67.048004 -90.95501)"  d="M550.84 355.79L559.67004 357.72L558.32007 363.8L568.32007 369.28998C 565.33746 359.77063 563.7674 349.8651 563.6601 339.88998C 563.6601 339.88998 552 340.9 550.84 355.79z" stroke="none" fill="#0071F2" fill-rule="nonzero" />
    <path transform="matrix(1 0 0 1 67.048004 -90.95501)"  d="M550.84 355.79L559.67004 357.72L558.32007 363.8L568.32007 369.28998C 565.33746 359.77063 563.7674 349.8651 563.6601 339.88998C 563.6601 339.88998 552 340.9 550.84 355.79z" stroke="none" fill="#FFFFFF" fill-rule="nonzero" fill-opacity="0.2" />
    <path transform="matrix(1 0 0 1 67.048004 -90.95501)"  d="M588.06 371.22L588.06 339.11C 588.06 339.11 595.06 336.34998 603.68 355.16998L603.68 355.16998L596.02 357.37C 595.6363 357.4783 595.3182 357.74725 595.1475 358.10764C 594.9769 358.46802 594.9705 358.88455 595.13 359.25L595.13 359.25L597.25 364.06L588.06 371.22z" stroke="none" fill="#0071F2" fill-rule="nonzero" />
    <path transform="matrix(1 0 0 1 67.048004 -90.95501)"  d="M588.06 371.22L588.06 339.11C 588.06 339.11 595.06 336.34998 603.68 355.16998L603.68 355.16998L596.02 357.37C 595.6363 357.4783 595.3182 357.74725 595.1475 358.10764C 594.9769 358.46802 594.9705 358.88455 595.13 359.25L595.13 359.25L597.25 364.06L588.06 371.22z" stroke="none" fill="#FFFFFF" fill-rule="nonzero" fill-opacity="0.2" />
    <path transform="matrix(1 0 0 1 67.048004 -90.95501)"  d="M137.27 247.14L750.24 247.14" stroke="#CCCCCC" stroke-width="1.97" fill="none" />
    <path transform="matrix(1 0 0 1 67.048004 -90.95501)"  d="M137.27 213.48001C 137.27 209.8791 140.1891 206.96 143.79001 206.96L143.79001 206.96L743.72 206.96C 747.32086 206.96 750.24 209.8791 750.24 213.48001L750.24 213.48001L750.24 579.69C 750.24 583.2909 747.32086 586.21 743.72 586.21L743.72 586.21L143.79001 586.21C 140.1891 586.21 137.27 583.2909 137.27 579.69L137.27 579.69L137.27 213.48001z" stroke="#CCCCCC" stroke-width="1.97" fill="none" />
    <path transform="matrix(1 0 0 1 67.048004 -90.95501)"  d="M177.67 227.46C 177.67 230.5583 175.15831 233.06999 172.06 233.06999C 168.96169 233.06999 166.45 230.5583 166.45 227.45999C 166.45 224.36168 168.96169 221.84999 172.06 221.85C 173.54787 221.84999 174.9748 222.44104 176.02687 223.49312C 177.07895 224.5452 177.67 225.97212 177.67 227.46z" stroke="none" fill="#2F2E41" fill-rule="nonzero" />
    <path transform="matrix(1 0 0 1 67.048004 -90.95501)"  d="M177.67 227.46C 177.67 230.5583 175.15831 233.06999 172.06 233.06999C 168.96169 233.06999 166.45 230.5583 166.45 227.45999C 166.45 224.36168 168.96169 221.84999 172.06 221.85C 173.54787 221.84999 174.9748 222.44104 176.02687 223.49312C 177.07895 224.5452 177.67 225.97212 177.67 227.46z" stroke="none" fill="#FA1111" fill-rule="nonzero" fill-opacity="0.101960786" />
    <path transform="matrix(1 0 0 1 67.048004 -90.95501)"  d="M199.46 227.46C 199.46 230.5583 196.94832 233.06999 193.85 233.06999C 190.7517 233.06999 188.24 230.5583 188.24 227.45999C 188.24 224.36168 190.7517 221.84999 193.85 221.85C 195.33788 221.84999 196.7648 222.44104 197.81688 223.49312C 198.86896 224.5452 199.46 225.97212 199.46 227.46z" stroke="none" fill="#F1DD08" fill-rule="nonzero" />
    <path transform="matrix(1 0 0 1 67.048004 -90.95501)"  d="M221.25 227.46C 221.25002 230.5583 218.73833 233.06999 215.64001 233.06999C 212.5417 233.06999 210.03001 230.5583 210.03001 227.45999C 210.03001 224.36168 212.5417 221.84999 215.64 221.85C 217.12788 221.84999 218.55481 222.44104 219.60689 223.49312C 220.65897 224.5452 221.25002 225.97212 221.25 227.46z" stroke="none" fill="#2F2E41" fill-rule="nonzero" />
    <path transform="matrix(1 0 0 1 67.048004 -90.95501)"  d="M678.46 240.53C 678.46 237.2218 681.14185 234.54 684.45 234.54L684.45 234.54L831.24005 234.54C 834.5482 234.54 837.23004 237.2218 837.23004 240.53L837.23004 240.53L837.23004 376.49C 837.23004 379.7982 834.5482 382.47998 831.24005 382.47998L831.24005 382.47998L684.45 382.47998C 681.14185 382.47998 678.46 379.7982 678.46 376.49L678.46 376.49L678.46 240.53z" stroke="none" fill="#008FC3" fill-rule="nonzero" />
    <path transform="matrix(1 0 0 1 67.048004 -90.95501)"  d="M678.46 240.53C 678.46 237.2218 681.14185 234.54 684.45 234.54L684.45 234.54L831.24005 234.54C 834.5482 234.54 837.23004 237.2218 837.23004 240.53L837.23004 240.53L837.23004 376.49C 837.23004 379.7982 834.5482 382.47998 831.24005 382.47998L831.24005 382.47998L684.45 382.47998C 681.14185 382.47998 678.46 379.7982 678.46 376.49L678.46 376.49L678.46 240.53z" stroke="#CCCCCC" stroke-width="1.97" fill="none" />
    <path transform="matrix(-1 -0 -0 -1 1583.198 520.89496)"  d="M713.25 273.87C 713.25 270.54526 715.94525 267.85 719.27 267.85L719.27 267.85L796.89 267.85C 800.2148 267.85 802.91003 270.54526 802.91003 273.87L802.91003 273.87L802.91003 337.98C 802.91003 341.30475 800.2148 344 796.89 344L796.89 344L719.27 344C 715.94525 344 713.25 341.30475 713.25 337.98L713.25 337.98L713.25 273.87z" stroke="none" fill="#008FC3" fill-rule="nonzero" />
    <path transform="matrix(1 0 0 1 67.048004 -90.95501)"  d="M778.53 318.58L743.48 318.58L737.15 318.58L737.15 290.84L778.53 290.84L778.53 297.77L778.53 318.58L778.53 318.58" stroke="#FFFFFF" stroke-width="1.65" stroke-linecap="square" fill="none" />
    <path transform="matrix(1 0 0 1 67.048004 -90.95501)"  d="M737.15 290.84L757.84 307.14L778.53 290.84" stroke="#FFFFFF" stroke-width="1.65" stroke-linecap="square" fill="none" />
    <path transform="matrix(1 0 0 1 67.048004 -90.95501)"  d="M27.15 363.86C 27.15 360.70645 29.706453 358.15 32.86 358.15L32.86 358.15L172.85 358.15C 176.00356 358.15 178.56 360.70645 178.56 363.86L178.56 363.86L178.56 486.25C 178.56 489.40353 176.00356 491.96 172.85 491.96L172.85 491.96L32.86 491.96C 29.706453 491.96 27.15 489.40353 27.15 486.25L27.15 486.25L27.15 363.86z" stroke="none" fill="#008FC3" fill-rule="nonzero" />
    <path transform="matrix(1 0 0 1 67.048004 -90.95501)"  d="M27.15 363.86C 27.15 360.70645 29.706453 358.15 32.86 358.15L32.86 358.15L172.85 358.15C 176.00356 358.15 178.56 360.70645 178.56 363.86L178.56 363.86L178.56 486.25C 178.56 489.40353 176.00356 491.96 172.85 491.96L172.85 491.96L32.86 491.96C 29.706453 491.96 27.15 489.40353 27.15 486.25L27.15 486.25L27.15 363.86z" stroke="#CCCCCC" stroke-width="1.97" fill="none" />
    <path transform="matrix(1 0 0 1 67.048004 -90.95501)"  d="M58.55 387.71002C 58.55 384.04285 61.522827 381.07 65.19 381.07L65.19 381.07L139.46 381.07C 143.12717 381.07 146.1 384.04285 146.1 387.71002L146.1 387.71002L146.1 459.54C 146.1 463.20718 143.12717 466.18 139.46 466.18L139.46 466.18L65.19 466.18C 61.522827 466.18 58.55 463.20718 58.55 459.54L58.55 459.54L58.55 387.71002z" stroke="none" fill="#008FC3" fill-rule="nonzero" />
    <path transform="matrix(1 0 0 1 67.048004 -90.95501)"  d="M85.35 406.92C 78.264015 413.99957 76.141525 424.65103 79.97259 433.90598C 83.80365 443.16092 92.833466 449.19595 102.85 449.19595C 112.86654 449.19595 121.896355 443.16092 125.72741 433.90598C 129.55847 424.65103 127.43598 413.99957 120.35 406.92C 110.659836 397.31604 95.04016 397.31604 85.35 406.92zM120.35 410.48L112.47 410.48C 111.64046 407.9276 110.61406 405.44354 109.4 403.05002C 113.700035 404.36966 117.49997 406.95987 120.3 410.48zM93.77 423C 93.76933 419.7677 94.16222 416.54736 94.939995 413.41L94.939995 413.41L110.77 413.41C 111.5679 416.54486 111.98094 419.7653 112 423zM111.85 425.9C 111.61453 429.1499 111.04485 432.36688 110.15 435.5L110.15 435.5L95.57 435.5C 94.66713 432.36835 94.09401 429.15082 93.86 425.9zM102.85 402.12C 104.01862 402.11847 105.18552 402.20874 106.34 402.38998C 107.80139 404.97168 109.00391 407.6916 109.92999 410.50998L109.92999 410.50998L95.77 410.50998C 96.69609 407.6916 97.898605 404.97168 99.35999 402.38998C 100.51703 402.19867 101.687294 402.0984 102.86 402.09zM96.36 403.12C 95.13756 405.5096 94.11084 407.99445 93.29 410.55L93.29 410.55L85.41 410.55C 88.217285 406.9954 92.04002 404.37946 96.37 403.05zM83.44 413.38L92.44 413.38C 91.67055 416.53043 91.25795 419.75735 91.21 423L91.21 423L80.57 423C 80.77852 419.61606 81.76036 416.32504 83.44 413.38zM83.44 435.47C 81.766205 432.52966 80.784676 429.24652 80.57 425.87L80.57 425.87L91.26 425.87C 91.42183 429.11374 91.92461 432.33148 92.76 435.47zM85.44 438.36002L93.65 438.36002C 94.48004 440.9312 95.482285 443.4435 96.65 445.88C 92.21581 444.596 88.28885 441.96872 85.41 438.36zM102.89 446.75003C 101.91017 446.75244 100.931305 446.68896 99.96 446.56003C 98.62541 443.90677 97.46951 441.16733 96.5 438.36002L96.5 438.36002L109.270004 438.36002C 108.304825 441.16898 107.1488 443.9087 105.810005 446.56003C 104.83217 446.6907 103.84652 446.75418 102.86 446.75zM109.07 445.88004C 110.26218 443.4469 111.28459 440.9343 112.13 438.36005L112.13 438.36005L120.329994 438.36005C 117.42926 441.98615 113.46803 444.6153 109 445.88zM122.3 435.47003L113 435.47003C 113.8337 432.3308 114.339745 429.11362 114.51 425.87003L114.51 425.87003L125.19 425.87003C 124.959984 429.25055 123.96127 432.53397 122.27 435.47zM125.170006 422.97003L114.5 422.97003C 114.44015 419.73633 114.0175 416.51953 113.24 413.38004L113.24 413.38004L122.24 413.38004C 123.93014 416.32248 124.92229 419.61368 125.14 423z" stroke="none" fill="#FFFFFF" fill-rule="nonzero" />
    <path transform="matrix(1 0 0 1 67.048004 -90.95501)"  d="M187.72 172L63.26 172C 62.025013 172.00266 60.8397 171.51392 59.96549 170.64159C 59.09128 169.76926 58.6 168.58499 58.6 167.35C 58.597336 166.11328 59.087444 164.92645 59.96194 164.05196C 60.836437 163.17746 62.023277 162.68735 63.26 162.69L63.26 162.69L187.72 162.69C 188.9559 162.69 190.1412 163.18097 191.01512 164.05489C 191.88904 164.9288 192.38 166.1141 192.38 167.35C 192.37448 169.91974 190.28975 172 187.72 172z" stroke="none" fill="#008FC3" fill-rule="nonzero" />
    <path transform="matrix(1 0 0 1 67.048004 -90.95501)"  d="M834.94 476L790.576 476L774.53 476C 771.962 476 769.88 473.918 769.88 471.35C 769.874 468.778 771.958 466.69 774.53 466.69L774.53 466.69L834.94 466.69C 837.514 466.69 839.6 468.776 839.6 471.35C 839.594 473.92 837.51 476 834.94 476z" stroke="none" fill="#008FC3" fill-rule="nonzero" />
    <path transform="matrix(1 0 0 1 67.048004 -90.95501)"  d="M781.74 518.76C 781.74 517.1805 783.02045 515.9 784.6 515.9L784.6 515.9L793.29 515.9C 794.8695 515.9 796.14996 517.1805 796.14996 518.76L796.14996 518.76L796.14996 526.99005C 796.14996 528.5696 794.8695 529.85004 793.29 529.85004L793.29 529.85004L784.6 529.85004C 783.02045 529.85004 781.74 528.5696 781.74 526.99005L781.74 526.99005L781.74 518.76z" stroke="none" fill="#2F2E41" fill-rule="nonzero" />
    <path transform="matrix(1 0 0 1 67.048004 -90.95501)"  d="M82.01 551.01C 82.01 549.4305 83.29047 548.15 84.87 548.15L84.87 548.15L93.560005 548.15C 95.139534 548.15 96.42 549.4305 96.42 551.01L96.42 551.01L96.42 559.24005C 96.42 560.8196 95.139534 562.10004 93.560005 562.10004L93.560005 562.10004L84.87 562.10004C 83.29047 562.10004 82.01 560.8196 82.01 559.24005L82.01 559.24005L82.01 551.01z" stroke="none" fill="#2F2E41" fill-rule="nonzero" />
    <path transform="matrix(1 0 0 1 67.048004 -90.95501)"  d="M549.08 143.09L636.45 143.09" stroke="#FFFFFF" stroke-width="1.18" fill="none" />
    <path transform="matrix(1 0 0 1 67.048004 -90.95501)"  d="M549.08 152.05L584.67 152.05" stroke="#FFFFFF" stroke-width="1.18" fill="none" />
    <path transform="matrix(1 0 0 1 67.048004 -90.95501)"  d="M292.59 95.7L357.53 95.7C 361.09778 95.7 363.99 98.59224 363.99 102.159996L363.99 102.159996L363.99 162.92C 363.99 166.48775 361.09778 169.37999 357.53 169.38L357.53 169.38L294.65 169.38C 289.94455 169.37999 286.13004 165.56546 286.13 160.86L286.13 160.86L286.13 102.16C 286.13 98.59225 289.02222 95.7 292.59 95.7z" stroke="none" fill="#008FC3" fill-rule="nonzero" />
    <path transform="matrix(1 0 0 1 67.048004 -90.95501)"  d="M343.22 138L338.79 133.56C 338.07214 132.73053 337.0367 132.2437 335.94 132.22C 334.8612 132.24855 333.83716 132.7013 333.09 133.48L333.09 133.48L330.56 136L330.08 135.76C 329.8097 135.6409 329.546 135.50737 329.28998 135.36C 326.7878 133.73117 324.5686 131.70447 322.71997 129.36C 321.89304 128.37222 321.20035 127.27942 320.65997 126.11C 321.3 125.56 321.84998 124.92 322.39996 124.37L322.39996 124.37L323.11996 123.66C 323.97195 122.92486 324.46173 121.85529 324.46173 120.73C 324.46173 119.60471 323.97195 118.53515 323.11996 117.8L323.11996 117.8L320.89996 115.58C 320.64365 115.33503 320.40628 115.07094 320.18997 114.79L320.18997 114.79L318.67996 113.29C 317.9364 112.50487 316.91095 112.04792 315.82996 112.020004C 314.74542 112.03191 313.71402 112.49152 312.97995 113.29L312.97995 113.29L310.20996 116.06C 309.1727 117.10383 308.52948 118.47506 308.38995 119.939995C 308.29315 121.988335 308.63406 124.03377 309.38995 125.939995C 310.783 129.7529 312.87927 133.27045 315.56995 136.31C 319.04507 140.46538 323.3594 143.83914 328.22995 146.20999C 330.46124 147.33966 332.87537 148.06424 335.35995 148.34999L335.35995 148.34999L335.90994 148.34999C 337.7153 148.37572 339.44495 147.6256 340.65994 146.29L340.65994 146.29L340.73993 146.20999C 341.1755 145.69394 341.65387 145.21558 342.16992 144.78L342.16992 144.78L343.16992 143.78C 343.96503 143.03229 344.42007 141.99213 344.42953 140.9007C 344.439 139.80928 344.00204 138.76138 343.22 138zM341.4 142.11L340.44998 143.11C 339.9 143.59 339.44998 144.11 338.87 144.7C 338.1325 145.48283 337.09506 145.91237 336.02 145.87999L336.02 145.87999L335.62997 145.87999C 333.46603 145.65453 331.36685 145.00914 329.44998 143.98C 324.91013 141.75609 320.88953 138.60095 317.65 134.72C 315.21375 131.8651 313.26434 128.62846 311.88 125.14C 311.13962 123.61451 310.81207 121.92157 310.93 120.229996C 310.97525 119.35017 311.37152 118.52525 312.03 117.939995L312.03 117.939995L314.73 115.24999C 315.00912 114.92634 315.40414 114.725235 315.83002 114.689995C 316.26392 114.70601 316.66928 114.91051 316.94 115.24999L316.94 115.24999L318.37 116.66999C 318.6077 116.957756 318.87225 117.22228 319.16 117.45999L319.16 117.45999L321.38 119.67999C 321.6822 119.978165 321.87582 120.36894 321.93 120.78999C 321.8918 121.21573 321.69562 121.61173 321.38 121.899994L321.38 121.899994L320.66 122.60999L318.66 124.60999L318.58002 124.689995C 318.00162 125.18139 317.81104 125.9924 318.11002 126.689995L318.11002 126.689995L318.11002 126.759995C 318.7748 128.3021 319.65344 129.74289 320.72 131.04C 322.73895 133.61786 325.17612 135.83868 327.93 137.61C 328.24304 137.82803 328.57825 138.01239 328.93 138.16C 329.20032 138.2791 329.46402 138.41263 329.72 138.56L329.72 138.56L329.8 138.64C 330.53967 139.03894 331.457 138.87291 332.00998 138.24L332.00998 138.24L334.77997 135.47C 335.06824 135.1544 335.46423 134.95818 335.88995 134.92C 336.27725 134.98103 336.631 135.1756 336.88995 135.47L336.88995 135.47L341.31995 139.91C 341.63898 140.17906 341.82956 140.57027 341.8448 140.98729C 341.86005 141.40431 341.69852 141.8084 341.4 142.1z" stroke="none" fill="#FFFFFF" fill-rule="nonzero" />
    <path transform="matrix(1 0 0 1 67.048004 -90.95501)"  d="M311 331.18L310.88 334.44C 315.78085 335.25 320.7265 333.27405 323.72 329.31L323.72 329.31L311 331.18z" stroke="none" fill="#F4A48E" fill-rule="nonzero" />
    <path transform="matrix(1 0 0 1 67.048004 -90.95501)"  d="M341.11 310.83C 340.36 314.77 337.21 317.44998 334.11 316.83C 333.1221 316.6275 332.22098 316.12454 331.53 315.38998C 329.74 325.05 323.41 332.18 315.88 332.18C 306.96 332.18 299.73 322.18 299.73 309.81C 299.73 297.44 306.96002 287.44 315.88 287.44C 323.52002 287.44 329.88 294.77 331.6 304.63C 332.82605 303.04385 334.82037 302.2538 336.80002 302.57C 339.9 303.2 341.85 306.89 341.11 310.83z" stroke="none" fill="#F9B499" fill-rule="nonzero" />
    <path transform="matrix(1 0 0 1 67.048004 -90.95501)"  d="M299.69 307.82C 299.69 307.82 300.79 297.71002 307.04 295.5C 307.04 295.5 317.99002 291.5 318.76 287.81C 318.76 287.81 330.38 297.52 330.38 305.61C 330.38 305.61 335.14 298.90997 339.74 304.46997C 339.74 304.46997 344.19 311.93997 337.00998 316.46997C 337.00998 316.46997 333.69998 318.18997 331.49 315.38998C 331.49 315.38998 333.28 336.62 334.77 339.68L334.77 339.68L344.53 303L341.26 292.52L325.6 281.72L307.41 281.72C 307.41 281.72 297.47 294.87 297.48 295.56C 297.49002 296.25 299.69 307.82 299.69 307.82z" stroke="none" fill="#2F2E41" fill-rule="nonzero" />
    <path transform="matrix(1 0 0 1 67.048004 -90.95501)"  d="M431 332.67L431.7 326.97C 431.7 326.97 439.52002 331.55 445.61002 331.97C 445.56 332 443.15 334.94 431 332.67z" stroke="none" fill="#F4A48E" fill-rule="nonzero" />
    <path transform="matrix(1 0 0 1 67.048004 -90.95501)"  d="M423.01 309.17C 423.01 296.1913 431.13605 285.67 441.16 285.67C 451.18396 285.67 459.31 296.1913 459.31 309.17C 459.31 322.1487 451.18396 332.67 441.16 332.67C 431.13605 332.67 423.01 322.1487 423.01 309.17" stroke="none" fill="#F9B499" fill-rule="nonzero" />
    <path transform="matrix(1 0 0 1 67.048004 -90.95501)"  d="M456.61 309.26C 456.61 305.49344 458.79932 302.44 461.5 302.44C 464.20068 302.44 466.39 305.49344 466.39 309.26C 466.39 313.02658 464.20068 316.08002 461.5 316.08002C 458.79932 316.08002 456.61 313.02658 456.61 309.26" stroke="none" fill="#F9B499" fill-rule="nonzero" />
    <path transform="matrix(1 0 0 1 67.048004 -90.95501)"  d="M415.59998 309.26C 415.59998 305.49344 417.7893 302.44 420.49 302.44C 423.19067 302.44 425.38 305.49344 425.38 309.26C 425.38 313.02658 423.19067 316.08002 420.49 316.08002C 417.7893 316.08002 415.59998 313.02658 415.59998 309.26" stroke="none" fill="#F9B499" fill-rule="nonzero" />
    <path transform="matrix(1 0 0 1 67.048004 -90.95501)"  d="M423.91 306.16C 423.91 306.16 412.13 294.95 423.91 286.31C 423.91 286.31 427.06 270.5 447.09 274.55C 447.09 274.55 466.54 274.65 462.79 302.44C 461.4722 303.79993 460.0403 305.04446 458.51 306.16C 458.51 306.16 457.02002 296.97 449.67 297.34C 449.67 297.34 433.67 298.07 430.55002 291.09C 427.14645 295.5 424.8675 300.6722 423.91 306.16z" stroke="none" fill="#2F2E41" fill-rule="nonzero" />
    <path transform="matrix(1 0 0 1 67.048004 -90.95501)"  d="M586.27 337.87L586.37 335.78C 586.37 335.78 573.58997 336.22 570.3 328.6C 570.3 328.6 572.38 338 586.27 337.87z" stroke="none" fill="#F4A48E" fill-rule="nonzero" />
    <path transform="matrix(1 0 0 1 67.048004 -90.95501)"  d="M600.12 314.31C 600.12 326.38998 592.52997 336.18 583.12 336.18C 575.22 336.18 568.57 329.18 566.68 319.81C 565.88306 320.4855 564.8747 320.86057 563.83 320.87C 560.77 320.87 558.29004 317.58 558.29004 313.51C 558.29004 309.44003 560.77 306.16 563.83 306.16C 565.0132 306.181 566.14355 306.6532 566.99 307.48C 569.22 298.75 575.6 292.48 583.12 292.48C 592.53 292.45 600.12 302.24 600.12 314.31z" stroke="none" fill="#F9B499" fill-rule="nonzero" />
    <path transform="matrix(1 0 0 1 67.048004 -90.95501)"  d="M570.16 308L571.63995 298.24C 571.63995 298.24 580.02997 299.8 584.81995 296.94C 584.81995 296.94 596.13995 305.17 605.13995 296.94C 605.13995 296.94 610.7999 291.28 605.13995 283.57C 605.13995 283.57 603.07996 277.13 591.24994 281.25C 591.24994 281.25 578.64996 269.42 568.0999 284.08C 568.0999 284.08 555.2599 283.34998 558.3199 295.13998C 558.3199 295.13998 549.8199 302.28 559.3199 309.24997C 559.3199 309.24997 552.3199 324.40997 567.2599 322.11996L567.2599 322.11996L566.6799 319.79996C 566.6799 319.79996 561.89984 323.13995 559.04987 317.19995C 559.04987 317.19995 556.4299 310.82996 560.9299 307.24994C 562.20447 306.07663 564.06256 305.79196 565.6299 306.52994C 566.92975 307.19208 568.3169 307.6668 569.7499 307.93994L569.7499 307.93994L570.16 308z" stroke="none" fill="#2F2E41" fill-rule="nonzero" />
</g>
</svg>