<svg xmlns="http://www.w3.org/2000/svg" xmlns:xlink="http://www.w3.org/1999/xlink" version="1.1" width="940" height="788" viewBox="0 0 940 788" xml:space="preserve">
<desc>Created with Fabric.js 3.5.0</desc>
<defs>
</defs>
<rect x="0" y="0" width="100%" height="100%" fill="#ffffff"/>
<g transform="matrix(0.9109 0 0 0.9109 466.3808 393.987)" id="712654">
<g style="" vector-effect="non-scaling-stroke">
		<g transform="matrix(1.0205 0 0 1.0205 165.1174 -216.2289)" id="body_1">
<path style="stroke: none; stroke-width: 1; stroke-dasharray: none; stroke-linecap: butt; stroke-dashoffset: 0; stroke-linejoin: miter; stroke-miterlimit: 4; is-custom-font: none; font-file-url: none; fill: rgb(0,143,195); fill-rule: nonzero; opacity: 1;" transform=" translate(-596.44, -153.615)" d="M 658.57 129.76 L 534.35 129.76 C 532.6931 129.76 531.35 131.10313 531.35 132.76 L 531.35 132.76 L 531.35 164.12999 C 531.35 165.78685 532.6931 167.12999 534.35 167.12999 L 534.35 167.12999 L 545.52997 167.12999 L 545.52997 177.46999 L 558.52997 167.12999 L 658.52997 167.12999 C 660.1868 167.12999 661.52997 165.78685 661.52997 164.12999 L 661.52997 164.12999 L 661.52997 132.77 C 661.5356 131.12477 660.2151 129.78195 658.57 129.76 z" stroke-linecap="round"/>
</g>
		<g transform="matrix(1.0205 0 0 1.0205 -180.9221 78.8732)" id="body_1">
<path style="stroke: none; stroke-width: 1; stroke-dasharray: none; stroke-linecap: butt; stroke-dashoffset: 0; stroke-linejoin: miter; stroke-miterlimit: 4; is-custom-font: none; font-file-url: none; fill: rgb(0,113,242); fill-rule: nonzero; opacity: 1;" transform=" translate(-257.3645, -442.775)" d="M 251.91 434.93 C 251.91 434.93 251.75 447.50998 255.58 450.62 C 258.78482 447.80927 261.2678 444.27005 262.82 440.3 C 259.0619 438.7681 255.41618 436.97363 251.91 434.93 z" stroke-linecap="round"/>
</g>
		<g transform="matrix(1.0205 0 0 1.0205 135.7469 154.9419)" id="body_1">
<path style="stroke: none; stroke-width: 1; stroke-dasharray: none; stroke-linecap: butt; stroke-dashoffset: 0; stroke-linejoin: miter; stroke-miterlimit: 4; is-custom-font: none; font-file-url: none; fill: rgb(63,61,86); fill-rule: nonzero; opacity: 1;" transform=" translate(-567.66, -517.315)" d="M 518.4 584.93 L 531.74 449.7 C 531.74 449.7 591.55 460.36002 616.92 449.7 L 616.92 449.7 L 611.76996 584.93 L 578 584.93 L 574.33 494.18 L 557 584.93 L 518.4 584.93 z" stroke-linecap="round"/>
</g>
		<g transform="matrix(1.0205 0 0 1.0205 135.7469 154.9419)" id="body_1">
<path style="stroke: none; stroke-width: 1; stroke-dasharray: none; stroke-linecap: butt; stroke-dashoffset: 0; stroke-linejoin: miter; stroke-miterlimit: 4; is-custom-font: none; font-file-url: none; fill: rgb(47,46,65); fill-rule: nonzero; opacity: 1;" transform=" translate(-567.66, -517.315)" d="M 518.4 584.93 L 531.74 449.7 C 531.74 449.7 591.55 460.36002 616.92 449.7 L 616.92 449.7 L 611.76996 584.93 L 578 584.93 L 574.33 494.18 L 557 584.93 L 518.4 584.93 z" stroke-linecap="round"/>
</g>
		<g transform="matrix(1.0205 0 0 1.0205 -117.8516 143.4551)" id="body_1">
<path style="stroke: none; stroke-width: 1; stroke-dasharray: none; stroke-linecap: butt; stroke-dashoffset: 0; stroke-linejoin: miter; stroke-miterlimit: 4; is-custom-font: none; font-file-url: none; fill: rgb(47,46,65); fill-rule: nonzero; opacity: 1;" transform=" translate(-319.1672, -506.06)" d="M 271 495.56 C 271 495.56 267.69 456.41 290 427.19 C 290 427.19 297.72 441.25 331.08002 437.94 C 331.08002 437.94 347.54 435.02 355.16 430.69 C 355.16 430.69 368.30002 459.45 367.47 490.32 C 367.47 490.32 362.47 578.08 360.85 584.93 L 360.85 584.93 L 329.46 584.93 C 329.46 584.93 318.71 507.69 317.88 498 C 317.88 498 317.88 562.61 320.64 584.89 L 320.64 584.89 L 287.56 584.89 C 287.56 584.89 269.25 522.68 271 495.56 z" stroke-linecap="round"/>
</g>
		<g transform="matrix(1.0205 0 0 1.0205 -105.6137 34.0923)" id="body_1">
<path style="stroke: none; stroke-width: 1; stroke-dasharray: none; stroke-linecap: butt; stroke-dashoffset: 0; stroke-linejoin: miter; stroke-miterlimit: 4; is-custom-font: none; font-file-url: none; fill: rgb(0,143,195); fill-rule: nonzero; opacity: 1;" transform=" translate(-331.16, -398.8982)" d="M 268 418.64 L 269.38 371.78003 C 270.76 344.21002 310.11002 339.68002 310.11002 339.68002 C 310.11002 339.68002 348.51 335.38004 360.11002 342.28003 L 360.11002 342.28003 L 406.7 378.50003 L 403.39 436.29004 L 385.19 453.66003 C 385.19 453.66003 369.75 426.66003 370.58002 421.40002 L 370.58002 421.40002 L 389.88 405.40002 C 389.88 405.40002 364.24 388.31003 361.76 383.62003 C 361.76 383.62003 344.76 416.43002 361.21002 444.82004 C 361.21002 444.82004 345.77002 457.51004 327.02002 459.44003 C 327.02002 459.44003 321.6 379.76004 333.55002 344.75003 C 333.55002 344.75003 319.92 353.75003 308.37003 344.75003 C 308.37003 344.75003 297.80002 365.98004 299.73 399.33002 C 299.73 399.33002 304.42 446.75 299.73 457.78003 C 299.73 457.78003 281.38 453.85004 278.07 449.17004 C 278.07 449.17004 280.64 444.24005 283.74002 432.42004 C 283.74002 432.42004 278.74002 450.61005 255.62003 450.61005 C 255.58 450.62 267.35 440.15 268 418.64 z" stroke-linecap="round"/>
</g>
		<g transform="matrix(1.0205 0 0 1.0205 8.576 152.911)" id="body_1">
<path style="stroke: none; stroke-width: 1; stroke-dasharray: none; stroke-linecap: butt; stroke-dashoffset: 0; stroke-linejoin: miter; stroke-miterlimit: 4; is-custom-font: none; font-file-url: none; fill: rgb(47,46,65); fill-rule: nonzero; opacity: 1;" transform=" translate(-443.05, -515.325)" d="M 404.75 445.72 L 383.5 584.93 L 417.69 584.93 L 438.74 493.75 C 439.10965 492.073 440.59277 490.87653 442.31 490.87 C 444.0299 490.869 445.51715 492.0688 445.88 493.75 L 445.88 493.75 L 466.94 584.93 L 502.6 584.93 L 482.31 445.72 L 404.75 445.72 z" stroke-linecap="round"/>
</g>
		<g transform="matrix(1.0205 0 0 1.0205 7.5127 74.4664)" id="body_1">
<path style="stroke: none; stroke-width: 1; stroke-dasharray: none; stroke-linecap: butt; stroke-dashoffset: 0; stroke-linejoin: miter; stroke-miterlimit: 4; is-custom-font: none; font-file-url: none; fill: rgb(63,61,86); fill-rule: nonzero; opacity: 1;" transform=" translate(-442.0074, -438.4573)" d="M 396.83 435.84 L 396.83 442.59 C 396.82758 445.69666 399.14597 448.3156 402.22998 448.69 C 416.71997 450.44 457.75998 455.69 482.22998 449.04 C 485.36542 448.17102 487.437 445.19177 487.15997 441.95 L 487.15997 441.95 L 486.70996 436.75 L 438 424.6 L 396.83 435.84 z" stroke-linecap="round"/>
</g>
		<g transform="matrix(1.0205 0 0 1.0205 7.5127 74.4664)" id="body_1">
<path style="stroke: none; stroke-width: 1; stroke-dasharray: none; stroke-linecap: butt; stroke-dashoffset: 0; stroke-linejoin: miter; stroke-miterlimit: 4; is-custom-font: none; font-file-url: none; fill: rgb(0,113,242); fill-rule: nonzero; opacity: 1;" transform=" translate(-442.0074, -438.4573)" d="M 396.83 435.84 L 396.83 442.59 C 396.82758 445.69666 399.14597 448.3156 402.22998 448.69 C 416.71997 450.44 457.75998 455.69 482.22998 449.04 C 485.36542 448.17102 487.437 445.19177 487.15997 441.95 L 487.15997 441.95 L 486.70996 436.75 L 438 424.6 L 396.83 435.84 z" stroke-linecap="round"/>
</g>
		<g transform="matrix(1.0205 0 0 1.0205 7.5127 74.4664)" id="body_1">
<path style="stroke: none; stroke-width: 1; stroke-dasharray: none; stroke-linecap: butt; stroke-dashoffset: 0; stroke-linejoin: miter; stroke-miterlimit: 4; is-custom-font: none; font-file-url: none; fill: rgb(73,197,219); fill-opacity: 0.2; fill-rule: nonzero; opacity: 1;" transform=" translate(-442.0074, -438.4573)" d="M 396.83 435.84 L 396.83 442.59 C 396.82758 445.69666 399.14597 448.3156 402.22998 448.69 C 416.71997 450.44 457.75998 455.69 482.22998 449.04 C 485.36542 448.17102 487.437 445.19177 487.15997 441.95 L 487.15997 441.95 L 486.70996 436.75 L 438 424.6 L 396.83 435.84 z" stroke-linecap="round"/>
</g>
		<g transform="matrix(1.0205 0 0 1.0205 7.1816 26.804)" id="body_1">
<path style="stroke: none; stroke-width: 1; stroke-dasharray: none; stroke-linecap: butt; stroke-dashoffset: 0; stroke-linejoin: miter; stroke-miterlimit: 4; is-custom-font: none; font-file-url: none; fill: rgb(0,113,242); fill-rule: nonzero; opacity: 1;" transform=" translate(-441.6841, -391.7559)" d="M 489 408.4 L 426.51 397.4 L 419.65002 411.86 L 417 418.31 L 438.81 427.19 C 438.81 427.19 500.31 451.03 508.89 430.45 C 508.89 430.45 514.08 421.72 509.18002 402.65002 C 509.00122 401.95776 508.8577 401.25687 508.75003 400.55002 C 507.75003 394.27002 501.69003 359.76 481.44003 351.30002 C 481.44003 351.30002 466.99002 345.42 462.82004 344.69003 L 462.82004 344.69003 L 421.13 344.69003 C 421.13 344.69003 390.51 349.01004 382.91 372.13004 C 382.91 372.13004 371.91 399.05005 372.13 418.31003 C 372.13 418.31003 370.41 437.56003 387.81 438.31003 C 387.81 438.31003 423.09 438.16003 438.81 427.21002 L 438.81 427.21002 L 417 418.31 L 419.69 411.83 C 414.73615 411.26343 409.73383 411.26343 404.78 411.83 C 404.78 411.83 408.18 402.97998 408.42 394.4" stroke-linecap="round"/>
</g>
		<g transform="matrix(1.0205 0 0 1.0205 7.1816 26.804)" id="body_1">
<path style="stroke: none; stroke-width: 1; stroke-dasharray: none; stroke-linecap: butt; stroke-dashoffset: 0; stroke-linejoin: miter; stroke-miterlimit: 4; is-custom-font: none; font-file-url: none; fill: rgb(73,197,219); fill-opacity: 0.2; fill-rule: nonzero; opacity: 1;" transform=" translate(-441.6841, -391.7559)" d="M 489 408.4 L 426.51 397.4 L 419.65002 411.86 L 417 418.31 L 438.81 427.19 C 438.81 427.19 500.31 451.03 508.89 430.45 C 508.89 430.45 514.08 421.72 509.18002 402.65002 C 509.00122 401.95776 508.8577 401.25687 508.75003 400.55002 C 507.75003 394.27002 501.69003 359.76 481.44003 351.30002 C 481.44003 351.30002 466.99002 345.42 462.82004 344.69003 L 462.82004 344.69003 L 421.13 344.69003 C 421.13 344.69003 390.51 349.01004 382.91 372.13004 C 382.91 372.13004 371.91 399.05005 372.13 418.31003 C 372.13 418.31003 370.41 437.56003 387.81 438.31003 C 387.81 438.31003 423.09 438.16003 438.81 427.21002 L 438.81 427.21002 L 417 418.31 L 419.69 411.83 C 414.73615 411.26343 409.73383 411.26343 404.78 411.83 C 404.78 411.83 408.18 402.97998 408.42 394.4" stroke-linecap="round"/>
</g>
		<g transform="matrix(1.0205 0 0 1.0205 30.0712 53.7179)" id="body_1">
<path style="stroke: none; stroke-width: 1; stroke-dasharray: none; stroke-linecap: butt; stroke-dashoffset: 0; stroke-linejoin: miter; stroke-miterlimit: 4; is-custom-font: none; font-file-url: none; fill: rgb(0,0,0); fill-opacity: 0.2; fill-rule: nonzero; opacity: 1;" transform=" translate(-464.1118, -418.1269)" d="M 426.52 397.37 C 424.69 400.29 423.62 403.69998 421.8 407.32 C 420.00452 410.90253 418.39255 414.57373 416.97 418.32 C 422.31 420.64 427.97 422.87 433.77 425.15 C 443.03998 428.75 454.06998 432.75 461.06 434.3 C 461.06 434.3 486.7 441.49 498.99 437.86 C 498.99 437.86 511.5 438.08 511.25 417.40997 L 511.25 417.40997 L 510.6 409.69998 L 489 408.4 L 426.52 397.37 z" stroke-linecap="round"/>
</g>
		<g transform="matrix(1.0205 0 0 1.0205 6.6697 -17.9467)" id="body_1">
<path style="stroke: none; stroke-width: 1; stroke-dasharray: none; stroke-linecap: butt; stroke-dashoffset: 0; stroke-linejoin: miter; stroke-miterlimit: 4; is-custom-font: none; font-file-url: none; fill: rgb(0,113,242); fill-rule: nonzero; opacity: 1;" transform=" translate(-441.18, -347.9047)" d="M 425.3 338.36 C 425.3 338.36 441.58 332.78998 457.06 338.08 C 455.38998 340.87997 453.58 343.75 451.59 346.68 C 448.28 351.58 444.93 356.02 441.66998 360.00998 L 441.66998 360.00998 L 425.3 338.36 z" stroke-linecap="round"/>
</g>
		<g transform="matrix(1.0205 0 0 1.0205 6.6697 -17.9467)" id="body_1">
<path style="stroke: none; stroke-width: 1; stroke-dasharray: none; stroke-linecap: butt; stroke-dashoffset: 0; stroke-linejoin: miter; stroke-miterlimit: 4; is-custom-font: none; font-file-url: none; fill: rgb(255,255,255); fill-opacity: 0.2; fill-rule: nonzero; opacity: 1;" transform=" translate(-441.18, -347.9047)" d="M 425.3 338.36 C 425.3 338.36 441.58 332.78998 457.06 338.08 C 455.38998 340.87997 453.58 343.75 451.59 346.68 C 448.28 351.58 444.93 356.02 441.66998 360.00998 L 441.66998 360.00998 L 425.3 338.36 z" stroke-linecap="round"/>
</g>
		<g transform="matrix(1.0205 0 0 1.0205 -120.7085 26.6091)" id="body_1">
<path style="stroke: none; stroke-width: 1; stroke-dasharray: none; stroke-linecap: butt; stroke-dashoffset: 0; stroke-linejoin: miter; stroke-miterlimit: 4; is-custom-font: none; font-file-url: none; fill: rgb(204,204,204); fill-rule: nonzero; opacity: 1;" transform=" translate(-316.3665, -391.565)" d="M 301.76 435.41 C 301.76 435.41 308.49002 438.82 326.04 438.32 L 326.04 438.32 L 326.14 401.24 C 326.14 401.24 326.68002 363.47 333.51 344.75998 C 333.51 344.75998 319.94 353.46997 308.33002 344.75998 C 308.33002 344.75998 299.00003 362.89996 299.48 388.34998 C 299.34 391.46997 299.25 394.65997 299.23 397.90997 C 299.13586 410.45563 299.98154 422.9907 301.76 435.41 z" stroke-linecap="round"/>
</g>
		<g transform="matrix(1.0205 0 0 1.0205 -113.1635 -56.9478)" id="body_1">
<path style="stroke: none; stroke-width: 1; stroke-dasharray: none; stroke-linecap: butt; stroke-dashoffset: 0; stroke-linejoin: miter; stroke-miterlimit: 4; is-custom-font: none; font-file-url: none; fill: rgb(47,46,65); fill-rule: nonzero; opacity: 1;" transform=" translate(-323.76, -309.6898)" d="M 298.67 306.32 C 298.67 306.32 293.78 284.4 303.85 279.48 C 303.85 279.48 314.85 271.75 325.64 278.31 C 325.64 278.31 345.08002 275.03 347.19 297.31 C 347.19 297.31 346.02 328.47 352.57 339.71 L 352.57 339.71 L 334.77002 339.71 L 294.95 343.71 C 294.95 343.71 301.21 320.75 298.67 306.32 z" stroke-linecap="round"/>
</g>
		<g transform="matrix(1.0205 0 0 1.0205 -180.9221 78.8732)" id="body_1">
<path style="stroke: none; stroke-width: 1; stroke-dasharray: none; stroke-linecap: butt; stroke-dashoffset: 0; stroke-linejoin: miter; stroke-miterlimit: 4; is-custom-font: none; font-file-url: none; fill: rgb(35,31,32); fill-opacity: 0.2; fill-rule: nonzero; opacity: 1;" transform=" translate(-257.3645, -442.775)" d="M 251.91 434.93 C 251.91 434.93 251.75 447.50998 255.58 450.62 C 255.58 450.62 260.58002 445.69998 262.82 440.3 C 262.82 440.3 255.42 438 251.91 434.93 z" stroke-linecap="round"/>
</g>
		<g transform="matrix(1.0205 0 0 1.0205 -84.7922 68.6779)" id="body_1">
<path style="stroke: none; stroke-width: 1; stroke-dasharray: none; stroke-linecap: butt; stroke-dashoffset: 0; stroke-linejoin: miter; stroke-miterlimit: 4; is-custom-font: none; font-file-url: none; fill: rgb(249,180,153); fill-rule: nonzero; opacity: 1;" transform=" translate(-351.56, -432.7852)" d="M 348.14 436 C 348.14 436 339.98 439.57 334.54 440.48 C 332.34433 440.83395 330.14603 439.86215 328.93002 438 L 328.93002 438 L 326.73 434.69 C 326.2008 433.889 325.9191 432.94998 325.92 431.99 L 325.92 431.99 L 325.92 430.09998 C 325.91745 428.2571 326.94907 426.56866 328.59003 425.72998 C 333.78003 423.06998 345.30002 417.9 351.93002 420.63998 C 352.60715 420.9263 353.21185 421.36017 353.7 421.90997 C 355.45 423.80997 360.06 428.86 360.79 430.27997 C 360.79 430.27997 367.85 429.27997 371.45 425.93997 C 371.45 425.93997 376.17 436.78998 377.2 438.80997 C 377.2 438.80997 363.86002 449.90997 355.55002 443.94998 C 355.55 444 350.31 440.16 348.14 436 z" stroke-linecap="round"/>
</g>
		<g transform="matrix(1.0205 0 0 1.0205 -152.1817 39.7094)" id="body_1">
<path style="stroke: none; stroke-width: 1; stroke-dasharray: none; stroke-linecap: butt; stroke-dashoffset: 0; stroke-linejoin: miter; stroke-miterlimit: 4; is-custom-font: none; font-file-url: none; fill: rgb(35,31,32); fill-opacity: 0.2; fill-rule: nonzero; opacity: 1;" transform=" translate(-285.5262, -404.4)" d="M 284 418.31 C 284 418.31 286.16 400.96 284.9 390.49 C 284.9 390.49 288.33 407.65 286.53 418.31 L 286.53 418.31 L 284 418.31 z" stroke-linecap="round"/>
</g>
		<g transform="matrix(1.0205 0 0 1.0205 -156.8775 92.699)" id="body_1">
<path style="stroke: none; stroke-width: 1; stroke-dasharray: none; stroke-linecap: butt; stroke-dashoffset: 0; stroke-linejoin: miter; stroke-miterlimit: 4; is-custom-font: none; font-file-url: none; fill: rgb(63,61,86); fill-rule: nonzero; opacity: 1;" transform=" translate(-280.925, -456.3223)" d="M 278.92 458.74 C 277.6237 458.73956 276.33405 458.55438 275.09003 458.19 L 275.09003 458.19 L 275.29004 457.58002 C 275.61005 457.69 283.15002 460.15002 286.14005 453.89 L 286.14005 453.89 L 286.76004 454.12003 C 285.32983 457.11145 282.22986 458.9382 278.92 458.74 z" stroke-linecap="round"/>
</g>
		<g transform="matrix(1.0205 0 0 1.0205 -79.7499 95.4265)" id="body_1">
<path style="stroke: none; stroke-width: 1; stroke-dasharray: none; stroke-linecap: butt; stroke-dashoffset: 0; stroke-linejoin: miter; stroke-miterlimit: 4; is-custom-font: none; font-file-url: none; fill: rgb(35,31,32); fill-opacity: 0.2; fill-rule: nonzero; opacity: 1;" transform=" translate(-356.5, -458.995)" d="M 365.45 465.09 C 348.45 463.29 347.56 453.36 347.55002 453.26 L 347.55002 453.26 L 348.28003 452.90002 C 348.28003 453.00003 348.89 462.7 365.33002 464.44003 L 365.33002 464.44003 L 365.45 465.09 z" stroke-linecap="round"/>
</g>
		<g transform="matrix(1.0205 0 0 1.0205 -4.9336 -14.7061)" id="body_1">
<path style="stroke: none; stroke-width: 1; stroke-dasharray: none; stroke-linecap: butt; stroke-dashoffset: 0; stroke-linejoin: miter; stroke-miterlimit: 4; is-custom-font: none; font-file-url: none; fill: rgb(0,113,242); fill-rule: nonzero; opacity: 1;" transform=" translate(-429.81, -351.08)" d="M 429.46 363.8 L 421.13 344.69 L 425.3 338.36 L 438.49 355.81 L 429.46 363.8 L 429.46 363.8" stroke-linecap="round"/>
</g>
		<g transform="matrix(1.0205 0 0 1.0205 19.5952 -14.849)" id="body_1">
<path style="stroke: none; stroke-width: 1; stroke-dasharray: none; stroke-linecap: butt; stroke-dashoffset: 0; stroke-linejoin: miter; stroke-miterlimit: 4; is-custom-font: none; font-file-url: none; fill: rgb(0,113,242); fill-rule: nonzero; opacity: 1;" transform=" translate(-453.845, -350.94)" d="M 444.9 356.45 L 453.72 363.8 L 462.79 344.69 L 457.06 338.08 L 444.9 356.45 L 444.9 356.45" stroke-linecap="round"/>
</g>
		<g transform="matrix(1.0205 0 0 1.0205 6.9811 -22.4523)" id="body_1">
<path style="stroke: none; stroke-width: 1; stroke-dasharray: none; stroke-linecap: butt; stroke-dashoffset: 0; stroke-linejoin: miter; stroke-miterlimit: 4; is-custom-font: none; font-file-url: none; fill: rgb(249,180,153); fill-rule: nonzero; opacity: 1;" transform=" translate(-441.485, -343.49)" d="M 431.65 326.97 L 429.54 343.97 L 441.67 360.01 L 444.9 356.2 L 453.43 343.49 L 450.77 326.97 L 431.65 326.97 L 431.65 326.97" stroke-linecap="round"/>
</g>
		<g transform="matrix(1.0205 0 0 1.0205 -20.2371 40.9127)" id="body_1">
<path style="stroke: none; stroke-width: 1; stroke-dasharray: none; stroke-linecap: butt; stroke-dashoffset: 0; stroke-linejoin: miter; stroke-miterlimit: 4; is-custom-font: none; font-file-url: none; fill: rgb(249,180,153); fill-rule: nonzero; opacity: 1;" transform=" translate(-414.8147, -405.5788)" d="M 408 399.34 C 408 399.34 421.78 399.07 424.83 401.05 L 424.83 401.05 L 419.71 411.83 C 419.71 411.83 407.46 410.9 404.8 411.83 C 404.75 411.86 407.54 403.47 408 399.34 z" stroke-linecap="round"/>
</g>
		<g transform="matrix(1.0205 0 0 1.0205 49.3048 35.872)" id="body_1">
<path style="stroke: none; stroke-width: 1; stroke-dasharray: none; stroke-linecap: butt; stroke-dashoffset: 0; stroke-linejoin: miter; stroke-miterlimit: 4; is-custom-font: none; font-file-url: none; fill: rgb(249,180,153); fill-rule: nonzero; opacity: 1;" transform=" translate(-482.9566, -400.6396)" d="M 469.23 404.91 C 469.23 404.91 475.77002 393.83002 486.85 392.91 C 489.91437 392.6833 492.93924 393.71204 495.23 395.76 C 496.12793 396.5615 496.65363 397.6992 496.68204 398.90247 C 496.71045 400.10574 496.23907 401.267 495.38 402.11002 L 495.38 402.11002 L 489 408.4 L 469.23 404.91 z" stroke-linecap="round"/>
</g>
		<g transform="matrix(1.0205 0 0 1.0205 143.3466 -30.3791)" id="body_1">
<path style="stroke: none; stroke-width: 1; stroke-dasharray: none; stroke-linecap: butt; stroke-dashoffset: 0; stroke-linejoin: miter; stroke-miterlimit: 4; is-custom-font: none; font-file-url: none; fill: rgb(249,180,153); fill-rule: nonzero; opacity: 1;" transform=" translate(-575.105, -335.7228)" d="M 567.94 318.29 C 567.94 318.29 567.94 318.55002 567.88 319 C 567.55 322.7 565.88 339.76 562.15 341.73 L 562.15 341.73 L 563.53 351.08002 C 563.53 351.08002 580.89 355.75003 588.06006 351.08002 L 588.06006 351.08002 L 588.06006 339.08002 C 588.06006 339.08002 586.2701 339.21002 586.2701 337.84003 L 586.2701 337.84003 L 586.5501 332.32004 L 567.94 318.29 z" stroke-linecap="round"/>
</g>
		<g transform="matrix(1.0205 0 0 1.0205 102.8957 45.6847)" id="body_1">
<path style="stroke: none; stroke-width: 1; stroke-dasharray: none; stroke-linecap: butt; stroke-dashoffset: 0; stroke-linejoin: miter; stroke-miterlimit: 4; is-custom-font: none; font-file-url: none; fill: rgb(0,113,242); fill-rule: nonzero; opacity: 1;" transform=" translate(-535.4696, -410.2574)" d="M 529.89 402.1 L 533.75 465.51 C 533.75 465.51 564.63 477.37 569.87 475.71002 C 569.87 475.71002 571.52 390.80002 568.35 369.29004 L 568.35 369.29004 L 555.52997 344.69003 C 550.43 343.89005 530.45996 354.09003 524.95996 356.97003 C 524.0153 357.46738 523.21594 358.2013 522.63995 359.10004 C 512.4898 375.37515 505.05914 393.19522 500.63995 411.86005 C 500.63995 411.86005 505.63995 449.25006 517.17993 465.51004 C 517.17993 465.51004 533.99994 460.82004 536.74994 455.31003 C 536.74994 455.31003 526.82996 422.50003 524.06995 417.54004 C 524.1 417.54 524.93 416.71 529.89 402.1 z" stroke-linecap="round"/>
</g>
		<g transform="matrix(1.0205 0 0 1.0205 180.7745 43.2596)" id="body_1">
<path style="stroke: none; stroke-width: 1; stroke-dasharray: none; stroke-linecap: butt; stroke-dashoffset: 0; stroke-linejoin: miter; stroke-miterlimit: 4; is-custom-font: none; font-file-url: none; fill: rgb(0,113,242); fill-rule: nonzero; opacity: 1;" transform=" translate(-611.78, -407.8812)" d="M 590 475.87 L 588.07 371.22 L 592.3 339.89 C 592.3 339.89 625.83997 353.89 628.87 374.26 L 628.87 374.26 L 632.73 391.76 L 635.49 389.14 L 629.43 438.82 C 629.43 438.82 621.71 440.42 620.05 431.33002 L 620.05 431.33002 L 621.16 470.75 C 621.16 470.75 610.12 476 590 475.87 z" stroke-linecap="round"/>
</g>
		<g transform="matrix(1.0205 0 0 1.0205 193.6802 54.776)" id="body_1">
<path style="stroke: none; stroke-width: 1; stroke-dasharray: none; stroke-linecap: butt; stroke-dashoffset: 0; stroke-linejoin: miter; stroke-miterlimit: 4; is-custom-font: none; font-file-url: none; fill: rgb(0,0,0); fill-opacity: 0.2; fill-rule: nonzero; opacity: 1;" transform=" translate(-624.425, -419.1636)" d="M 618.94 399.34 L 620.04 431.34 C 620.04 431.34 621.32996 440.27 629.42 438.83 L 629.42 438.83 L 629.91 434.83 C 629.91 434.83 620.23 435 618.94 399.34 z" stroke-linecap="round"/>
</g>
		<g transform="matrix(1.0205 0 0 1.0205 104.3162 105.3665)" id="body_1">
<path style="stroke: none; stroke-width: 1; stroke-dasharray: none; stroke-linecap: butt; stroke-dashoffset: 0; stroke-linejoin: miter; stroke-miterlimit: 4; is-custom-font: none; font-file-url: none; fill: rgb(249,180,153); fill-rule: nonzero; opacity: 1;" transform=" translate(-536.8607, -468.735)" d="M 520.68 464.43 C 520.68 464.43 522.45 475.43 529.25 478.74 C 529.25 478.74 539.83 473.41998 544.37 469.37 C 544.37 469.37 548.37 473.6 550.02 473.6 C 551.13586 473.60794 552.1639 472.99594 552.6888 472.01123 C 553.2136 471.02655 553.1486 469.8319 552.52 468.91 C 550.61993 466.27927 548.27057 464.0044 545.58 462.19 C 542.7926 460.42322 539.5498 459.50912 536.25 459.56 C 535.2045 459.65286 534.1615 459.3574 533.32 458.73 C 533.32 458.73 524.84 464.36 520.68 464.43 z" stroke-linecap="round"/>
</g>
		<g transform="matrix(1.0205 0 0 1.0205 208.7118 128.2789)" id="body_1">
<path style="stroke: none; stroke-width: 1; stroke-dasharray: none; stroke-linecap: butt; stroke-dashoffset: 0; stroke-linejoin: miter; stroke-miterlimit: 4; is-custom-font: none; font-file-url: none; fill: rgb(47,46,65); fill-rule: nonzero; opacity: 1;" transform=" translate(-639.155, -491.19)" d="M 666.54 400.66 L 634.47 397.45 L 611.77 584.93 L 645.22 584.93 L 666.54 400.66 L 666.54 400.66" stroke-linecap="round"/>
</g>
		<g transform="matrix(1.0205 0 0 1.0205 209.2125 128.8096)" id="body_1">
<path style="stroke: none; stroke-width: 1; stroke-dasharray: none; stroke-linecap: butt; stroke-dashoffset: 0; stroke-linejoin: miter; stroke-miterlimit: 4; is-custom-font: none; font-file-url: none; fill: rgb(255,255,255); fill-opacity: 0.2; fill-rule: nonzero; opacity: 1;" transform=" translate(-639.645, -491.71)" d="M 624.42 580.2 L 644.87 398.49 L 655.51 399.35 L 635.48 584.93 L 623.78 584.93 L 624.42 580.2 L 624.42 580.2" stroke-linecap="round"/>
</g>
		<g transform="matrix(1.0205 0 0 1.0205 220.8773 28.499)" id="body_1">
<path style="stroke: none; stroke-width: 1; stroke-dasharray: none; stroke-linecap: butt; stroke-dashoffset: 0; stroke-linejoin: miter; stroke-miterlimit: 4; is-custom-font: none; font-file-url: none; fill: rgb(47,46,65); fill-rule: nonzero; opacity: 1;" transform=" translate(-651.075, -393.415)" d="M 635.48 386.17 L 634.47 397.45 L 666.54 400.66 L 667.68 390.15 L 635.48 386.17 L 635.48 386.17" stroke-linecap="round"/>
</g>
		<g transform="matrix(1.0205 0 0 1.0205 220.8773 28.499)" id="body_1">
<path style="stroke: none; stroke-width: 1; stroke-dasharray: none; stroke-linecap: butt; stroke-dashoffset: 0; stroke-linejoin: miter; stroke-miterlimit: 4; is-custom-font: none; font-file-url: none; fill: rgb(0,0,0); fill-opacity: 0.2; fill-rule: nonzero; opacity: 1;" transform=" translate(-651.075, -393.415)" d="M 635.48 386.17 L 634.47 397.45 L 666.54 400.66 L 667.68 390.15 L 635.48 386.17 L 635.48 386.17" stroke-linecap="round"/>
</g>
		<g transform="matrix(1.0205 0 0 1.0205 222.0498 11.8222)" id="body_1">
<path style="stroke: none; stroke-width: 1; stroke-dasharray: none; stroke-linecap: butt; stroke-dashoffset: 0; stroke-linejoin: miter; stroke-miterlimit: 4; is-custom-font: none; font-file-url: none; fill: rgb(47,46,65); fill-rule: nonzero; opacity: 1;" transform=" translate(-652.2239, -377.0742)" d="M 636.52 375 L 635.52 386.21 L 667.72003 390.21 L 668.87 378 C 669.1846 374.79318 668.2081 371.59323 666.1568 369.10837 C 664.10547 366.6235 661.1484 365.0586 657.94 364.76 L 657.94 364.76 L 649.71 363.99002 C 646.4992 363.69302 643.3024 364.6877 640.827 366.75403 C 638.3516 368.8203 636.80164 371.78784 636.52 375 z" stroke-linecap="round"/>
</g>
		<g transform="matrix(1.0205 0 0 1.0205 228.1337 5.1188)" id="body_1">
<path style="stroke: none; stroke-width: 1; stroke-dasharray: none; stroke-linecap: butt; stroke-dashoffset: 0; stroke-linejoin: miter; stroke-miterlimit: 4; is-custom-font: none; font-file-url: none; fill: rgb(249,180,153); fill-rule: nonzero; opacity: 1;" transform=" translate(-658.1853, -370.5057)" d="M 653.89 365.69 C 653.89 365.69 646.77 377.33002 664.23004 381.43 C 664.23004 381.43 672.64 384.22998 672.86005 373.56 C 672.86005 373.56 673.72003 361.16998 658.2001 359.44 C 658.2001 359.44 644.3901 357.7 643.5301 364.74 C 643.4012 365.76572 643.7182 366.7975 644.4009 367.57382 C 645.08356 368.35016 646.0663 368.7966 647.1001 368.8 C 648.71 368.78 650.94 368.07 653.89 365.69 z" stroke-linecap="round"/>
</g>
		<g transform="matrix(1.0205 0 0 1.0205 144.8365 37.988)" id="body_1">
<path style="stroke: none; stroke-width: 1; stroke-dasharray: none; stroke-linecap: butt; stroke-dashoffset: 0; stroke-linejoin: miter; stroke-miterlimit: 4; is-custom-font: none; font-file-url: none; fill: rgb(204,204,204); fill-rule: nonzero; opacity: 1;" transform=" translate(-576.565, -402.715)" d="M 570.3 454.05 C 570.3 454.05 570.69 385.28 568.35 369.28998 C 568.35 369.28998 564.63995 358.61996 563.52997 351.08 C 563.52997 351.08 581.57996 355.61 588.06 351.08 L 588.06 351.08 L 588.06 371.21997 L 589.6 454.34998 L 570.3 454.05 z" stroke-linecap="round"/>
</g>
		<g transform="matrix(1.0205 0 0 1.0205 -203.941 33.901)" id="body_1">
<path style="stroke: none; stroke-width: 1; stroke-dasharray: none; stroke-linecap: butt; stroke-dashoffset: 0; stroke-linejoin: miter; stroke-miterlimit: 4; is-custom-font: none; font-file-url: none; fill: rgb(47,46,65); fill-rule: nonzero; opacity: 1;" transform=" translate(-234.8106, -398.7095)" d="M 199.43 364.65 L 252.31 370.72 C 254.28703 370.9602 255.933 372.35083 256.5 374.26 L 256.5 374.26 L 273.63 432.79 L 259 431.15 L 210.63 422.86 L 196.1 368.52 C 195.83054 367.53265 196.06912 366.47595 196.73666 365.70013 C 197.4042 364.92435 198.4135 364.53082 199.43 364.65 z" stroke-linecap="round"/>
</g>
		<g transform="matrix(1.0205 0 0 1.0205 -153.2152 36.8344)" id="body_1">
<path style="stroke: none; stroke-width: 1; stroke-dasharray: none; stroke-linecap: butt; stroke-dashoffset: 0; stroke-linejoin: miter; stroke-miterlimit: 4; is-custom-font: none; font-file-url: none; fill: rgb(47,46,65); fill-rule: nonzero; opacity: 1;" transform=" translate(-284.515, -401.5837)" d="M 249.79 370.43 L 256.69998 370.43 C 258.30612 370.4257 259.72302 371.48022 260.18 373.02 L 260.18 373.02 L 277 428.73 L 316.64 422.94 C 317.2916 422.84424 317.95267 423.03622 318.45166 423.4661 C 318.95062 423.896 319.23828 424.5214 319.24002 425.18 C 319.23807 426.32776 318.37964 427.2935 317.24002 427.43 L 317.24002 427.43 L 273.67 432.78998 L 256.5 374.26 C 256.5 374.26 255.58 369.85 249.79 370.43 z" stroke-linecap="round"/>
</g>
		<g transform="matrix(1.0205 0 0 1.0205 -153.2152 36.8344)" id="body_1">
<path style="stroke: none; stroke-width: 1; stroke-dasharray: none; stroke-linecap: butt; stroke-dashoffset: 0; stroke-linejoin: miter; stroke-miterlimit: 4; is-custom-font: none; font-file-url: none; fill: rgb(35,31,32); fill-opacity: 0.2; fill-rule: nonzero; opacity: 1;" transform=" translate(-284.515, -401.5837)" d="M 249.79 370.43 L 256.69998 370.43 C 258.30612 370.4257 259.72302 371.48022 260.18 373.02 L 260.18 373.02 L 277 428.73 L 316.64 422.94 C 317.2916 422.84424 317.95267 423.03622 318.45166 423.4661 C 318.95062 423.896 319.23828 424.5214 319.24002 425.18 C 319.23807 426.32776 318.37964 427.2935 317.24002 427.43 L 317.24002 427.43 L 273.67 432.78998 L 256.5 374.26 C 256.5 374.26 255.58 369.85 249.79 370.43 z" stroke-linecap="round"/>
</g>
		<g transform="matrix(1.0205 0 0 1.0205 -143.5856 58.6357)" id="body_1">
<path style="stroke: none; stroke-width: 1; stroke-dasharray: none; stroke-linecap: butt; stroke-dashoffset: 0; stroke-linejoin: miter; stroke-miterlimit: 4; is-custom-font: none; font-file-url: none; fill: rgb(47,46,65); fill-rule: nonzero; opacity: 1;" transform=" translate(-293.95, -422.945)" d="M 273.48 417.16 L 314.42 423.26 L 276.96 428.73 L 273.48 417.16 L 273.48 417.16" stroke-linecap="round"/>
</g>
		<g transform="matrix(1.0205 0 0 1.0205 -115.4182 -33.8387)" id="body_1">
<path style="stroke: none; stroke-width: 1; stroke-dasharray: none; stroke-linecap: butt; stroke-dashoffset: 0; stroke-linejoin: miter; stroke-miterlimit: 4; is-custom-font: none; font-file-url: none; fill: rgb(249,180,153); fill-rule: nonzero; opacity: 1;" transform=" translate(-321.55, -332.3328)" d="M 308.33 344.76 C 308.33 344.76 311.08 339.68002 311.03998 331.18002 L 311.03998 331.18002 L 326.88998 322.34003 L 331.49 315.39 L 334.77 339.68002 L 333.50998 344.76 C 333.50998 344.76 318.27 354.92 308.33 344.76 z" stroke-linecap="round"/>
</g>
		<g transform="matrix(1.0205 0 0 1.0205 -192.611 64.5491)" id="body_1">
<path style="stroke: none; stroke-width: 1; stroke-dasharray: none; stroke-linecap: butt; stroke-dashoffset: 0; stroke-linejoin: miter; stroke-miterlimit: 4; is-custom-font: none; font-file-url: none; fill: rgb(249,180,153); fill-rule: nonzero; opacity: 1;" transform=" translate(-245.9117, -428.7395)" d="M 234.57 417.4 C 232.041 416.75424 229.3616 417.5482 227.59267 419.4675 C 225.82373 421.3868 225.25053 424.12195 226.1 426.59 C 227.39 430.59 231.1 434.93 241.1 434.93 C 241.1 434.93 248.27 434.77 251.94 434.93 C 251.94 434.93 258.6 439.44998 262.85 440.3 C 264.16858 437.51285 265.2588 434.62344 266.11002 431.65997 C 266.11002 431.65997 250.50002 431.89996 245.80002 425.19998 C 245.77 425.2 240.44 418.94 234.57 417.4 z" stroke-linecap="round"/>
</g>
		<g transform="matrix(1.0205 0 0 1.0205 -17.66 31.127)" id="body_1">
<path style="stroke: none; stroke-width: 1; stroke-dasharray: none; stroke-linecap: butt; stroke-dashoffset: 0; stroke-linejoin: miter; stroke-miterlimit: 4; is-custom-font: none; font-file-url: none; fill: rgb(0,113,242); fill-rule: nonzero; opacity: 1;" transform=" translate(-417.34, -395.99)" d="M 407.35 390.93 L 407.95 399.34 C 407.95 399.34 421.53 399.18 424.78 401.05 L 424.78 401.05 L 427.33 395.99 L 407.35 390.93 z" stroke-linecap="round"/>
</g>
		<g transform="matrix(1.0205 0 0 1.0205 -17.66 31.127)" id="body_1">
<path style="stroke: none; stroke-width: 1; stroke-dasharray: none; stroke-linecap: butt; stroke-dashoffset: 0; stroke-linejoin: miter; stroke-miterlimit: 4; is-custom-font: none; font-file-url: none; fill: rgb(255,255,255); fill-opacity: 0.2; fill-rule: nonzero; opacity: 1;" transform=" translate(-417.34, -395.99)" d="M 407.35 390.93 L 407.95 399.34 C 407.95 399.34 421.53 399.18 424.78 401.05 L 424.78 401.05 L 427.33 395.99 L 407.35 390.93 z" stroke-linecap="round"/>
</g>
		<g transform="matrix(1.0205 0 0 1.0205 101.4178 40.9289)" id="body_1">
<path style="stroke: none; stroke-width: 1; stroke-dasharray: none; stroke-linecap: butt; stroke-dashoffset: 0; stroke-linejoin: miter; stroke-miterlimit: 4; is-custom-font: none; font-file-url: none; fill: rgb(0,0,0); fill-opacity: 0.2; fill-rule: nonzero; opacity: 1;" transform=" translate(-534.02, -405.595)" d="M 530.15 408.45 L 537.89 392.26 L 530.79 418.93 L 530.15 408.45 L 530.15 408.45" stroke-linecap="round"/>
</g>
		<g transform="matrix(1.0205 0 0 1.0205 111.98 89.2515)" id="body_1">
<path style="stroke: none; stroke-width: 1; stroke-dasharray: none; stroke-linecap: butt; stroke-dashoffset: 0; stroke-linejoin: miter; stroke-miterlimit: 4; is-custom-font: none; font-file-url: none; fill: rgb(0,0,0); fill-opacity: 0.2; fill-rule: nonzero; opacity: 1;" transform=" translate(-544.37, -452.945)" d="M 544.73 461.67 C 544.73 461.67 550.38995 465.04 552.54 468.91 C 552.54 468.91 553.62 471.16 552.68 472.15 L 552.68 472.15 L 557 473.46 L 557 472.46 C 555.40625 463.72134 548.7525 456.77643 540.09 454.81 L 540.09 454.81 L 531.74005 432.43 L 532.1401 438.94 L 536.7801 455.27 C 535.989 456.7192 534.7939 457.90738 533.3401 458.69 C 534.22534 459.2227 535.2369 459.50922 536.2701 459.52 C 539.2097 459.60162 542.09644 460.32156 544.7301 461.62997" stroke-linecap="round"/>
</g>
		<g transform="matrix(1.0205 0 0 1.0205 127.5028 -11.1241)" id="body_1">
<path style="stroke: none; stroke-width: 1; stroke-dasharray: none; stroke-linecap: butt; stroke-dashoffset: 0; stroke-linejoin: miter; stroke-miterlimit: 4; is-custom-font: none; font-file-url: none; fill: rgb(0,113,242); fill-rule: nonzero; opacity: 1;" transform=" translate(-559.58, -354.59)" d="M 550.84 355.79 L 559.67004 357.72 L 558.32007 363.8 L 568.32007 369.28998 C 565.33746 359.77063 563.7674 349.8651 563.6601 339.88998 C 563.6601 339.88998 552 340.9 550.84 355.79 z" stroke-linecap="round"/>
</g>
		<g transform="matrix(1.0205 0 0 1.0205 127.5028 -11.1241)" id="body_1">
<path style="stroke: none; stroke-width: 1; stroke-dasharray: none; stroke-linecap: butt; stroke-dashoffset: 0; stroke-linejoin: miter; stroke-miterlimit: 4; is-custom-font: none; font-file-url: none; fill: rgb(255,255,255); fill-opacity: 0.2; fill-rule: nonzero; opacity: 1;" transform=" translate(-559.58, -354.59)" d="M 550.84 355.79 L 559.67004 357.72 L 558.32007 363.8 L 568.32007 369.28998 C 565.33746 359.77063 563.7674 349.8651 563.6601 339.88998 C 563.6601 339.88998 552 340.9 550.84 355.79 z" stroke-linecap="round"/>
</g>
		<g transform="matrix(1.0205 0 0 1.0205 164.5384 -10.6098)" id="body_1">
<path style="stroke: none; stroke-width: 1; stroke-dasharray: none; stroke-linecap: butt; stroke-dashoffset: 0; stroke-linejoin: miter; stroke-miterlimit: 4; is-custom-font: none; font-file-url: none; fill: rgb(0,113,242); fill-rule: nonzero; opacity: 1;" transform=" translate(-595.87, -355.094)" d="M 588.06 371.22 L 588.06 339.11 C 588.06 339.11 595.06 336.34998 603.68 355.16998 L 603.68 355.16998 L 596.02 357.37 C 595.6363 357.4783 595.3182 357.74725 595.1475 358.10764 C 594.9769 358.46802 594.9705 358.88455 595.13 359.25 L 595.13 359.25 L 597.25 364.06 L 588.06 371.22 z" stroke-linecap="round"/>
</g>
		<g transform="matrix(1.0205 0 0 1.0205 164.5384 -10.6098)" id="body_1">
<path style="stroke: none; stroke-width: 1; stroke-dasharray: none; stroke-linecap: butt; stroke-dashoffset: 0; stroke-linejoin: miter; stroke-miterlimit: 4; is-custom-font: none; font-file-url: none; fill: rgb(255,255,255); fill-opacity: 0.2; fill-rule: nonzero; opacity: 1;" transform=" translate(-595.87, -355.094)" d="M 588.06 371.22 L 588.06 339.11 C 588.06 339.11 595.06 336.34998 603.68 355.16998 L 603.68 355.16998 L 596.02 357.37 C 595.6363 357.4783 595.3182 357.74725 595.1475 358.10764 C 594.9769 358.46802 594.9705 358.88455 595.13 359.25 L 595.13 359.25 L 597.25 364.06 L 588.06 371.22 z" stroke-linecap="round"/>
</g>
		<g transform="matrix(1.0205 0 0 1.0205 9.2839 -120.7812)" id="body_1">
<path style="stroke: rgb(204,204,204); stroke-width: 1.97; stroke-dasharray: none; stroke-linecap: butt; stroke-dashoffset: 0; stroke-linejoin: miter; stroke-miterlimit: 4; is-custom-font: none; font-file-url: none; fill: none; fill-rule: nonzero; opacity: 1;" transform=" translate(-443.755, -247.14)" d="M 137.27 247.14 L 750.24 247.14" stroke-linecap="round"/>
</g>
		<g transform="matrix(1.0205 0 0 1.0205 9.2839 31.7256)" id="body_1">
<path style="stroke: rgb(204,204,204); stroke-width: 1.97; stroke-dasharray: none; stroke-linecap: butt; stroke-dashoffset: 0; stroke-linejoin: miter; stroke-miterlimit: 4; is-custom-font: none; font-file-url: none; fill: none; fill-rule: nonzero; opacity: 1;" transform=" translate(-443.755, -396.585)" d="M 137.27 213.48001 C 137.27 209.8791 140.1891 206.96 143.79001 206.96 L 143.79001 206.96 L 743.72 206.96 C 747.32086 206.96 750.24 209.8791 750.24 213.48001 L 750.24 213.48001 L 750.24 579.69 C 750.24 583.2909 747.32086 586.21 743.72 586.21 L 743.72 586.21 L 143.79001 586.21 C 140.1891 586.21 137.27 583.2909 137.27 579.69 L 137.27 579.69 L 137.27 213.48001 z" stroke-linecap="round"/>
</g>
		<g transform="matrix(1.0205 0 0 1.0205 -267.9794 -140.8658)" id="body_1">
<path style="stroke: none; stroke-width: 1; stroke-dasharray: none; stroke-linecap: butt; stroke-dashoffset: 0; stroke-linejoin: miter; stroke-miterlimit: 4; is-custom-font: none; font-file-url: none; fill: rgb(47,46,65); fill-rule: nonzero; opacity: 1;" transform=" translate(-172.06, -227.46)" d="M 177.67 227.46 C 177.67 230.5583 175.15831 233.06999 172.06 233.06999 C 168.96169 233.06999 166.45 230.5583 166.45 227.45999 C 166.45 224.36168 168.96169 221.84999 172.06 221.85 C 173.54787 221.84999 174.9748 222.44104 176.02687 223.49312 C 177.07895 224.5452 177.67 225.97212 177.67 227.46 z" stroke-linecap="round"/>
</g>
		<g transform="matrix(1.0205 0 0 1.0205 -267.9794 -140.8658)" id="body_1">
<path style="stroke: none; stroke-width: 1; stroke-dasharray: none; stroke-linecap: butt; stroke-dashoffset: 0; stroke-linejoin: miter; stroke-miterlimit: 4; is-custom-font: none; font-file-url: none; fill: rgb(250,17,17); fill-opacity: 0.1; fill-rule: nonzero; opacity: 1;" transform=" translate(-172.06, -227.46)" d="M 177.67 227.46 C 177.67 230.5583 175.15831 233.06999 172.06 233.06999 C 168.96169 233.06999 166.45 230.5583 166.45 227.45999 C 166.45 224.36168 168.96169 221.84999 172.06 221.85 C 173.54787 221.84999 174.9748 222.44104 176.02687 223.49312 C 177.07895 224.5452 177.67 225.97212 177.67 227.46 z" stroke-linecap="round"/>
</g>
		<g transform="matrix(1.0205 0 0 1.0205 -245.7416 -140.8658)" id="body_1">
<path style="stroke: none; stroke-width: 1; stroke-dasharray: none; stroke-linecap: butt; stroke-dashoffset: 0; stroke-linejoin: miter; stroke-miterlimit: 4; is-custom-font: none; font-file-url: none; fill: rgb(241,221,8); fill-rule: nonzero; opacity: 1;" transform=" translate(-193.85, -227.46)" d="M 199.46 227.46 C 199.46 230.5583 196.94832 233.06999 193.85 233.06999 C 190.7517 233.06999 188.24 230.5583 188.24 227.45999 C 188.24 224.36168 190.7517 221.84999 193.85 221.85 C 195.33788 221.84999 196.7648 222.44104 197.81688 223.49312 C 198.86896 224.5452 199.46 225.97212 199.46 227.46 z" stroke-linecap="round"/>
</g>
		<g transform="matrix(1.0205 0 0 1.0205 -223.504 -140.8658)" id="body_1">
<path style="stroke: none; stroke-width: 1; stroke-dasharray: none; stroke-linecap: butt; stroke-dashoffset: 0; stroke-linejoin: miter; stroke-miterlimit: 4; is-custom-font: none; font-file-url: none; fill: rgb(47,46,65); fill-rule: nonzero; opacity: 1;" transform=" translate(-215.64, -227.46)" d="M 221.25 227.46 C 221.25002 230.5583 218.73833 233.06999 215.64001 233.06999 C 212.5417 233.06999 210.03001 230.5583 210.03001 227.45999 C 210.03001 224.36168 212.5417 221.84999 215.64 221.85 C 217.12788 221.84999 218.55481 222.44104 219.60689 223.49312 C 220.65897 224.5452 221.25002 225.97212 221.25 227.46 z" stroke-linecap="round"/>
</g>
		<g transform="matrix(1.0205 0 0 1.0205 329.8382 -58.1537)" id="body_1">
<path style="stroke: none; stroke-width: 1; stroke-dasharray: none; stroke-linecap: butt; stroke-dashoffset: 0; stroke-linejoin: miter; stroke-miterlimit: 4; is-custom-font: none; font-file-url: none; fill: rgb(0,143,195); fill-rule: nonzero; opacity: 1;" transform=" translate(-757.845, -308.51)" d="M 678.46 240.53 C 678.46 237.2218 681.14185 234.54 684.45 234.54 L 684.45 234.54 L 831.24005 234.54 C 834.5482 234.54 837.23004 237.2218 837.23004 240.53 L 837.23004 240.53 L 837.23004 376.49 C 837.23004 379.7982 834.5482 382.47998 831.24005 382.47998 L 831.24005 382.47998 L 684.45 382.47998 C 681.14185 382.47998 678.46 379.7982 678.46 376.49 L 678.46 376.49 L 678.46 240.53 z" stroke-linecap="round"/>
</g>
		<g transform="matrix(1.0205 0 0 1.0205 329.8381 -58.1537)" id="body_1">
<path style="stroke: rgb(204,204,204); stroke-width: 1.97; stroke-dasharray: none; stroke-linecap: butt; stroke-dashoffset: 0; stroke-linejoin: miter; stroke-miterlimit: 4; is-custom-font: none; font-file-url: none; fill: none; fill-rule: nonzero; opacity: 1;" transform=" translate(-757.845, -308.51)" d="M 678.46 240.53 C 678.46 237.2218 681.14185 234.54 684.45 234.54 L 684.45 234.54 L 831.24005 234.54 C 834.5482 234.54 837.23004 237.2218 837.23004 240.53 L 837.23004 240.53 L 837.23004 376.49 C 837.23004 379.7982 834.5482 382.47998 831.24005 382.47998 L 831.24005 382.47998 L 684.45 382.47998 C 681.14185 382.47998 678.46 379.7982 678.46 376.49 L 678.46 376.49 L 678.46 240.53 z" stroke-linecap="round"/>
</g>
		<g transform="matrix(-1.0205 0 0 -1.0205 330.0735 -60.7865)" id="body_1">
<path style="stroke: none; stroke-width: 1; stroke-dasharray: none; stroke-linecap: butt; stroke-dashoffset: 0; stroke-linejoin: miter; stroke-miterlimit: 4; is-custom-font: none; font-file-url: none; fill: rgb(0,143,195); fill-rule: nonzero; opacity: 1;" transform=" translate(-758.08, -305.925)" d="M 713.25 273.87 C 713.25 270.54526 715.94525 267.85 719.27 267.85 L 719.27 267.85 L 796.89 267.85 C 800.2148 267.85 802.91003 270.54526 802.91003 273.87 L 802.91003 273.87 L 802.91003 337.98 C 802.91003 341.30475 800.2148 344 796.89 344 L 796.89 344 L 719.27 344 C 715.94525 344 713.25 341.30475 713.25 337.98 L 713.25 337.98 L 713.25 273.87 z" stroke-linecap="round"/>
</g>
		<g transform="matrix(1.0205 0 0 1.0205 329.8358 -62.029)" id="body_1">
<path style="stroke: rgb(255,255,255); stroke-width: 1.65; stroke-dasharray: none; stroke-linecap: square; stroke-dashoffset: 0; stroke-linejoin: miter; stroke-miterlimit: 4; is-custom-font: none; font-file-url: none; fill: none; fill-rule: nonzero; opacity: 1;" transform=" translate(-757.84, -304.71)" d="M 778.53 318.58 L 743.48 318.58 L 737.15 318.58 L 737.15 290.84 L 778.53 290.84 L 778.53 297.77 L 778.53 318.58 L 778.53 318.58" stroke-linecap="round"/>
</g>
		<g transform="matrix(1.0205 0 0 1.0205 329.8358 -67.8662)" id="body_1">
<path style="stroke: rgb(255,255,255); stroke-width: 1.65; stroke-dasharray: none; stroke-linecap: square; stroke-dashoffset: 0; stroke-linejoin: miter; stroke-miterlimit: 4; is-custom-font: none; font-file-url: none; fill: none; fill-rule: nonzero; opacity: 1;" transform=" translate(-757.84, -298.99)" d="M 737.15 290.84 L 757.84 307.14 L 778.53 290.84" stroke-linecap="round"/>
</g>
		<g transform="matrix(1.0205 0 0 1.0205 -338.6096 60.7863)" id="body_1">
<path style="stroke: none; stroke-width: 1; stroke-dasharray: none; stroke-linecap: butt; stroke-dashoffset: 0; stroke-linejoin: miter; stroke-miterlimit: 4; is-custom-font: none; font-file-url: none; fill: rgb(0,143,195); fill-rule: nonzero; opacity: 1;" transform=" translate(-102.855, -425.055)" d="M 27.15 363.86 C 27.15 360.70645 29.706453 358.15 32.86 358.15 L 32.86 358.15 L 172.85 358.15 C 176.00356 358.15 178.56 360.70645 178.56 363.86 L 178.56 363.86 L 178.56 486.25 C 178.56 489.40353 176.00356 491.96 172.85 491.96 L 172.85 491.96 L 32.86 491.96 C 29.706453 491.96 27.15 489.40353 27.15 486.25 L 27.15 486.25 L 27.15 363.86 z" stroke-linecap="round"/>
</g>
		<g transform="matrix(1.0205 0 0 1.0205 -338.6097 60.7862)" id="body_1">
<path style="stroke: rgb(204,204,204); stroke-width: 1.97; stroke-dasharray: none; stroke-linecap: butt; stroke-dashoffset: 0; stroke-linejoin: miter; stroke-miterlimit: 4; is-custom-font: none; font-file-url: none; fill: none; fill-rule: nonzero; opacity: 1;" transform=" translate(-102.855, -425.055)" d="M 27.15 363.86 C 27.15 360.70645 29.706453 358.15 32.86 358.15 L 32.86 358.15 L 172.85 358.15 C 176.00356 358.15 178.56 360.70645 178.56 363.86 L 178.56 363.86 L 178.56 486.25 C 178.56 489.40353 176.00356 491.96 172.85 491.96 L 172.85 491.96 L 32.86 491.96 C 29.706453 491.96 27.15 489.40353 27.15 486.25 L 27.15 486.25 L 27.15 363.86 z" stroke-linecap="round"/>
</g>
		<g transform="matrix(1.0205 0 0 1.0205 -339.149 59.328)" id="body_1">
<path style="stroke: none; stroke-width: 1; stroke-dasharray: none; stroke-linecap: butt; stroke-dashoffset: 0; stroke-linejoin: miter; stroke-miterlimit: 4; is-custom-font: none; font-file-url: none; fill: rgb(0,143,195); fill-rule: nonzero; opacity: 1;" transform=" translate(-102.325, -423.625)" d="M 58.55 387.71002 C 58.55 384.04285 61.522827 381.07 65.19 381.07 L 65.19 381.07 L 139.46 381.07 C 143.12717 381.07 146.1 384.04285 146.1 387.71002 L 146.1 387.71002 L 146.1 459.54 C 146.1 463.20718 143.12717 466.18 139.46 466.18 L 139.46 466.18 L 65.19 466.18 C 61.522827 466.18 58.55 463.20718 58.55 459.54 L 58.55 459.54 L 58.55 387.71002 z" stroke-linecap="round"/>
</g>
		<g transform="matrix(1.0205 0 0 1.0205 -338.6123 60.1775)" id="body_1">
<path style="stroke: none; stroke-width: 1; stroke-dasharray: none; stroke-linecap: butt; stroke-dashoffset: 0; stroke-linejoin: miter; stroke-miterlimit: 4; is-custom-font: none; font-file-url: none; fill: rgb(255,255,255); fill-rule: nonzero; opacity: 1;" transform=" translate(-102.85, -424.4565)" d="M 85.35 406.92 C 78.264015 413.99957 76.141525 424.65103 79.97259 433.90598 C 83.80365 443.16092 92.833466 449.19595 102.85 449.19595 C 112.86654 449.19595 121.896355 443.16092 125.72741 433.90598 C 129.55847 424.65103 127.43598 413.99957 120.35 406.92 C 110.659836 397.31604 95.04016 397.31604 85.35 406.92 z M 120.35 410.48 L 112.47 410.48 C 111.64046 407.9276 110.61406 405.44354 109.4 403.05002 C 113.700035 404.36966 117.49997 406.95987 120.3 410.48 z M 93.77 423 C 93.76933 419.7677 94.16222 416.54736 94.939995 413.41 L 94.939995 413.41 L 110.77 413.41 C 111.5679 416.54486 111.98094 419.7653 112 423 z M 111.85 425.9 C 111.61453 429.1499 111.04485 432.36688 110.15 435.5 L 110.15 435.5 L 95.57 435.5 C 94.66713 432.36835 94.09401 429.15082 93.86 425.9 z M 102.85 402.12 C 104.01862 402.11847 105.18552 402.20874 106.34 402.38998 C 107.80139 404.97168 109.00391 407.6916 109.92999 410.50998 L 109.92999 410.50998 L 95.77 410.50998 C 96.69609 407.6916 97.898605 404.97168 99.35999 402.38998 C 100.51703 402.19867 101.687294 402.0984 102.86 402.09 z M 96.36 403.12 C 95.13756 405.5096 94.11084 407.99445 93.29 410.55 L 93.29 410.55 L 85.41 410.55 C 88.217285 406.9954 92.04002 404.37946 96.37 403.05 z M 83.44 413.38 L 92.44 413.38 C 91.67055 416.53043 91.25795 419.75735 91.21 423 L 91.21 423 L 80.57 423 C 80.77852 419.61606 81.76036 416.32504 83.44 413.38 z M 83.44 435.47 C 81.766205 432.52966 80.784676 429.24652 80.57 425.87 L 80.57 425.87 L 91.26 425.87 C 91.42183 429.11374 91.92461 432.33148 92.76 435.47 z M 85.44 438.36002 L 93.65 438.36002 C 94.48004 440.9312 95.482285 443.4435 96.65 445.88 C 92.21581 444.596 88.28885 441.96872 85.41 438.36 z M 102.89 446.75003 C 101.91017 446.75244 100.931305 446.68896 99.96 446.56003 C 98.62541 443.90677 97.46951 441.16733 96.5 438.36002 L 96.5 438.36002 L 109.270004 438.36002 C 108.304825 441.16898 107.1488 443.9087 105.810005 446.56003 C 104.83217 446.6907 103.84652 446.75418 102.86 446.75 z M 109.07 445.88004 C 110.26218 443.4469 111.28459 440.9343 112.13 438.36005 L 112.13 438.36005 L 120.329994 438.36005 C 117.42926 441.98615 113.46803 444.6153 109 445.88 z M 122.3 435.47003 L 113 435.47003 C 113.8337 432.3308 114.339745 429.11362 114.51 425.87003 L 114.51 425.87003 L 125.19 425.87003 C 124.959984 429.25055 123.96127 432.53397 122.27 435.47 z M 125.170006 422.97003 L 114.5 422.97003 C 114.44015 419.73633 114.0175 416.51953 113.24 413.38004 L 113.24 413.38004 L 122.24 413.38004 C 123.93014 416.32248 124.92229 419.61368 125.14 423 z" stroke-linecap="round"/>
</g>
		<g transform="matrix(1.0205 0 0 1.0205 -315.5091 -202.2159)" id="body_1">
<path style="stroke: none; stroke-width: 1; stroke-dasharray: none; stroke-linecap: butt; stroke-dashoffset: 0; stroke-linejoin: miter; stroke-miterlimit: 4; is-custom-font: none; font-file-url: none; fill: rgb(0,143,195); fill-rule: nonzero; opacity: 1;" transform=" translate(-125.49, -167.345)" d="M 187.72 172 L 63.26 172 C 62.025013 172.00266 60.8397 171.51392 59.96549 170.64159 C 59.09128 169.76926 58.6 168.58499 58.6 167.35 C 58.597336 166.11328 59.087444 164.92645 59.96194 164.05196 C 60.836437 163.17746 62.023277 162.68735 63.26 162.69 L 63.26 162.69 L 187.72 162.69 C 188.9559 162.69 190.1412 163.18097 191.01512 164.05489 C 191.88904 164.9288 192.38 166.1141 192.38 167.35 C 192.37448 169.91974 190.28975 172 187.72 172 z" stroke-linecap="round"/>
</g>
		<g transform="matrix(1.0205 0 0 1.0205 377.6987 108.0303)" id="body_1">
<path style="stroke: none; stroke-width: 1; stroke-dasharray: none; stroke-linecap: butt; stroke-dashoffset: 0; stroke-linejoin: miter; stroke-miterlimit: 4; is-custom-font: none; font-file-url: none; fill: rgb(0,143,195); fill-rule: nonzero; opacity: 1;" transform=" translate(-804.74, -471.345)" d="M 834.94 476 L 790.576 476 L 774.53 476 C 771.962 476 769.88 473.918 769.88 471.35 C 769.874 468.778 771.958 466.69 774.53 466.69 L 774.53 466.69 L 834.94 466.69 C 837.514 466.69 839.6 468.776 839.6 471.35 C 839.594 473.92 837.51 476 834.94 476 z" stroke-linecap="round"/>
</g>
		<g transform="matrix(1.0205 0 0 1.0205 361.5804 160.619)" id="body_1">
<path style="stroke: none; stroke-width: 1; stroke-dasharray: none; stroke-linecap: butt; stroke-dashoffset: 0; stroke-linejoin: miter; stroke-miterlimit: 4; is-custom-font: none; font-file-url: none; fill: rgb(47,46,65); fill-rule: nonzero; opacity: 1;" transform=" translate(-788.945, -522.875)" d="M 781.74 518.76 C 781.74 517.1805 783.02045 515.9 784.6 515.9 L 784.6 515.9 L 793.29 515.9 C 794.8695 515.9 796.14996 517.1805 796.14996 518.76 L 796.14996 518.76 L 796.14996 526.99005 C 796.14996 528.5696 794.8695 529.85004 793.29 529.85004 L 793.29 529.85004 L 784.6 529.85004 C 783.02045 529.85004 781.74 528.5696 781.74 526.99005 L 781.74 526.99005 L 781.74 518.76 z" stroke-linecap="round"/>
</g>
		<g transform="matrix(1.0205 0 0 1.0205 -352.5266 193.5317)" id="body_1">
<path style="stroke: none; stroke-width: 1; stroke-dasharray: none; stroke-linecap: butt; stroke-dashoffset: 0; stroke-linejoin: miter; stroke-miterlimit: 4; is-custom-font: none; font-file-url: none; fill: rgb(47,46,65); fill-rule: nonzero; opacity: 1;" transform=" translate(-89.215, -555.125)" d="M 82.01 551.01 C 82.01 549.4305 83.29047 548.15 84.87 548.15 L 84.87 548.15 L 93.560005 548.15 C 95.139534 548.15 96.42 549.4305 96.42 551.01 L 96.42 551.01 L 96.42 559.24005 C 96.42 560.8196 95.139534 562.10004 93.560005 562.10004 L 93.560005 562.10004 L 84.87 562.10004 C 83.29047 562.10004 82.01 560.8196 82.01 559.24005 L 82.01 559.24005 L 82.01 551.01 z" stroke-linecap="round"/>
</g>
		<g transform="matrix(1.0205 0 0 1.0205 161.3679 -226.969)" id="body_1">
<path style="stroke: rgb(255,255,255); stroke-width: 1.18; stroke-dasharray: none; stroke-linecap: butt; stroke-dashoffset: 0; stroke-linejoin: miter; stroke-miterlimit: 4; is-custom-font: none; font-file-url: none; fill: none; fill-rule: nonzero; opacity: 1;" transform=" translate(-592.765, -143.09)" d="M 549.08 143.09 L 636.45 143.09" stroke-linecap="round"/>
</g>
		<g transform="matrix(1.0205 0 0 1.0205 134.9472 -217.8249)" id="body_1">
<path style="stroke: rgb(255,255,255); stroke-width: 1.18; stroke-dasharray: none; stroke-linecap: butt; stroke-dashoffset: 0; stroke-linejoin: miter; stroke-miterlimit: 4; is-custom-font: none; font-file-url: none; fill: none; fill-rule: nonzero; opacity: 1;" transform=" translate(-566.875, -152.05)" d="M 549.08 152.05 L 584.67 152.05" stroke-linecap="round"/>
</g>
		<g transform="matrix(1.0205 0 0 1.0205 -111.8373 -237.7375)" id="body_1">
<path style="stroke: none; stroke-width: 1; stroke-dasharray: none; stroke-linecap: butt; stroke-dashoffset: 0; stroke-linejoin: miter; stroke-miterlimit: 4; is-custom-font: none; font-file-url: none; fill: rgb(0,143,195); fill-rule: nonzero; opacity: 1;" transform=" translate(-325.06, -132.54)" d="M 292.59 95.7 L 357.53 95.7 C 361.09778 95.7 363.99 98.59224 363.99 102.159996 L 363.99 102.159996 L 363.99 162.92 C 363.99 166.48775 361.09778 169.37999 357.53 169.38 L 357.53 169.38 L 294.65 169.38 C 289.94455 169.37999 286.13004 165.56546 286.13 160.86 L 286.13 160.86 L 286.13 102.16 C 286.13 98.59225 289.02222 95.7 292.59 95.7 z" stroke-linecap="round"/>
</g>
		<g transform="matrix(1.0205 0 0 1.0205 -110.467 -240.1397)" id="body_1">
<path style="stroke: none; stroke-width: 1; stroke-dasharray: none; stroke-linecap: butt; stroke-dashoffset: 0; stroke-linejoin: miter; stroke-miterlimit: 4; is-custom-font: none; font-file-url: none; fill: rgb(255,255,255); fill-rule: nonzero; opacity: 1;" transform=" translate(-326.4018, -130.1853)" d="M 343.22 138 L 338.79 133.56 C 338.07214 132.73053 337.0367 132.2437 335.94 132.22 C 334.8612 132.24855 333.83716 132.7013 333.09 133.48 L 333.09 133.48 L 330.56 136 L 330.08 135.76 C 329.8097 135.6409 329.546 135.50737 329.28998 135.36 C 326.7878 133.73117 324.5686 131.70447 322.71997 129.36 C 321.89304 128.37222 321.20035 127.27942 320.65997 126.11 C 321.3 125.56 321.84998 124.92 322.39996 124.37 L 322.39996 124.37 L 323.11996 123.66 C 323.97195 122.92486 324.46173 121.85529 324.46173 120.73 C 324.46173 119.60471 323.97195 118.53515 323.11996 117.8 L 323.11996 117.8 L 320.89996 115.58 C 320.64365 115.33503 320.40628 115.07094 320.18997 114.79 L 320.18997 114.79 L 318.67996 113.29 C 317.9364 112.50487 316.91095 112.04792 315.82996 112.020004 C 314.74542 112.03191 313.71402 112.49152 312.97995 113.29 L 312.97995 113.29 L 310.20996 116.06 C 309.1727 117.10383 308.52948 118.47506 308.38995 119.939995 C 308.29315 121.988335 308.63406 124.03377 309.38995 125.939995 C 310.783 129.7529 312.87927 133.27045 315.56995 136.31 C 319.04507 140.46538 323.3594 143.83914 328.22995 146.20999 C 330.46124 147.33966 332.87537 148.06424 335.35995 148.34999 L 335.35995 148.34999 L 335.90994 148.34999 C 337.7153 148.37572 339.44495 147.6256 340.65994 146.29 L 340.65994 146.29 L 340.73993 146.20999 C 341.1755 145.69394 341.65387 145.21558 342.16992 144.78 L 342.16992 144.78 L 343.16992 143.78 C 343.96503 143.03229 344.42007 141.99213 344.42953 140.9007 C 344.439 139.80928 344.00204 138.76138 343.22 138 z M 341.4 142.11 L 340.44998 143.11 C 339.9 143.59 339.44998 144.11 338.87 144.7 C 338.1325 145.48283 337.09506 145.91237 336.02 145.87999 L 336.02 145.87999 L 335.62997 145.87999 C 333.46603 145.65453 331.36685 145.00914 329.44998 143.98 C 324.91013 141.75609 320.88953 138.60095 317.65 134.72 C 315.21375 131.8651 313.26434 128.62846 311.88 125.14 C 311.13962 123.61451 310.81207 121.92157 310.93 120.229996 C 310.97525 119.35017 311.37152 118.52525 312.03 117.939995 L 312.03 117.939995 L 314.73 115.24999 C 315.00912 114.92634 315.40414 114.725235 315.83002 114.689995 C 316.26392 114.70601 316.66928 114.91051 316.94 115.24999 L 316.94 115.24999 L 318.37 116.66999 C 318.6077 116.957756 318.87225 117.22228 319.16 117.45999 L 319.16 117.45999 L 321.38 119.67999 C 321.6822 119.978165 321.87582 120.36894 321.93 120.78999 C 321.8918 121.21573 321.69562 121.61173 321.38 121.899994 L 321.38 121.899994 L 320.66 122.60999 L 318.66 124.60999 L 318.58002 124.689995 C 318.00162 125.18139 317.81104 125.9924 318.11002 126.689995 L 318.11002 126.689995 L 318.11002 126.759995 C 318.7748 128.3021 319.65344 129.74289 320.72 131.04 C 322.73895 133.61786 325.17612 135.83868 327.93 137.61 C 328.24304 137.82803 328.57825 138.01239 328.93 138.16 C 329.20032 138.2791 329.46402 138.41263 329.72 138.56 L 329.72 138.56 L 329.8 138.64 C 330.53967 139.03894 331.457 138.87291 332.00998 138.24 L 332.00998 138.24 L 334.77997 135.47 C 335.06824 135.1544 335.46423 134.95818 335.88995 134.92 C 336.27725 134.98103 336.631 135.1756 336.88995 135.47 L 336.88995 135.47 L 341.31995 139.91 C 341.63898 140.17906 341.82956 140.57027 341.8448 140.98729 C 341.86005 141.40431 341.69852 141.8084 341.4 142.1 z" stroke-linecap="round"/>
</g>
		<g transform="matrix(1.0205 0 0 1.0205 -119.7552 -34.2139)" id="body_1">
<path style="stroke: none; stroke-width: 1; stroke-dasharray: none; stroke-linecap: butt; stroke-dashoffset: 0; stroke-linejoin: miter; stroke-miterlimit: 4; is-custom-font: none; font-file-url: none; fill: rgb(244,164,142); fill-rule: nonzero; opacity: 1;" transform=" translate(-317.3, -331.9646)" d="M 311 331.18 L 310.88 334.44 C 315.78085 335.25 320.7265 333.27405 323.72 329.31 L 323.72 329.31 L 311 331.18 z" stroke-linecap="round"/>
</g>
		<g transform="matrix(1.0205 0 0 1.0205 -116.4917 -56.8246)" id="body_1">
<path style="stroke: none; stroke-width: 1; stroke-dasharray: none; stroke-linecap: butt; stroke-dashoffset: 0; stroke-linejoin: miter; stroke-miterlimit: 4; is-custom-font: none; font-file-url: none; fill: rgb(249,180,153); fill-rule: nonzero; opacity: 1;" transform=" translate(-320.4985, -309.81)" d="M 341.11 310.83 C 340.36 314.77 337.21 317.44998 334.11 316.83 C 333.1221 316.6275 332.22098 316.12454 331.53 315.38998 C 329.74 325.05 323.41 332.18 315.88 332.18 C 306.96 332.18 299.73 322.18 299.73 309.81 C 299.73 297.44 306.96002 287.44 315.88 287.44 C 323.52002 287.44 329.88 294.77 331.6 304.63 C 332.82605 303.04385 334.82037 302.2538 336.80002 302.57 C 339.9 303.2 341.85 306.89 341.11 310.83 z" stroke-linecap="round"/>
</g>
		<g transform="matrix(1.0205 0 0 1.0205 -115.9749 -55.9166)" id="body_1">
<path style="stroke: none; stroke-width: 1; stroke-dasharray: none; stroke-linecap: butt; stroke-dashoffset: 0; stroke-linejoin: miter; stroke-miterlimit: 4; is-custom-font: none; font-file-url: none; fill: rgb(47,46,65); fill-rule: nonzero; opacity: 1;" transform=" translate(-321.005, -310.7)" d="M 299.69 307.82 C 299.69 307.82 300.79 297.71002 307.04 295.5 C 307.04 295.5 317.99002 291.5 318.76 287.81 C 318.76 287.81 330.38 297.52 330.38 305.61 C 330.38 305.61 335.14 298.90997 339.74 304.46997 C 339.74 304.46997 344.19 311.93997 337.00998 316.46997 C 337.00998 316.46997 333.69998 318.18997 331.49 315.38998 C 331.49 315.38998 333.28 336.62 334.77 339.68 L 334.77 339.68 L 344.53 303 L 341.26 292.52 L 325.6 281.72 L 307.41 281.72 C 307.41 281.72 297.47 294.87 297.48 295.56 C 297.49002 296.25 299.69 307.82 299.69 307.82 z" stroke-linecap="round"/>
</g>
		<g transform="matrix(1.0205 0 0 1.0205 3.736 -35.9639)" id="body_1">
<path style="stroke: none; stroke-width: 1; stroke-dasharray: none; stroke-linecap: butt; stroke-dashoffset: 0; stroke-linejoin: miter; stroke-miterlimit: 4; is-custom-font: none; font-file-url: none; fill: rgb(244,164,142); fill-rule: nonzero; opacity: 1;" transform=" translate(-438.305, -330.2498)" d="M 431 332.67 L 431.7 326.97 C 431.7 326.97 439.52002 331.55 445.61002 331.97 C 445.56 332 443.15 334.94 431 332.67 z" stroke-linecap="round"/>
</g>
		<g transform="matrix(1.0205 0 0 1.0205 6.6491 -57.4777)" id="body_1">
<path style="stroke: none; stroke-width: 1; stroke-dasharray: none; stroke-linecap: butt; stroke-dashoffset: 0; stroke-linejoin: miter; stroke-miterlimit: 4; is-custom-font: none; font-file-url: none; fill: rgb(249,180,153); fill-rule: nonzero; opacity: 1;" transform=" translate(-441.16, -309.17)" d="M 423.01 309.17 C 423.01 296.1913 431.13605 285.67 441.16 285.67 C 451.18396 285.67 459.31 296.1913 459.31 309.17 C 459.31 322.1487 451.18396 332.67 441.16 332.67 C 431.13605 332.67 423.01 322.1487 423.01 309.17" stroke-linecap="round"/>
</g>
		<g transform="matrix(1.0205 0 0 1.0205 27.4077 -57.3851)" id="body_1">
<path style="stroke: none; stroke-width: 1; stroke-dasharray: none; stroke-linecap: butt; stroke-dashoffset: 0; stroke-linejoin: miter; stroke-miterlimit: 4; is-custom-font: none; font-file-url: none; fill: rgb(249,180,153); fill-rule: nonzero; opacity: 1;" transform=" translate(-461.5, -309.26)" d="M 456.61 309.26 C 456.61 305.49344 458.79932 302.44 461.5 302.44 C 464.20068 302.44 466.39 305.49344 466.39 309.26 C 466.39 313.02658 464.20068 316.08002 461.5 316.08002 C 458.79932 316.08002 456.61 313.02658 456.61 309.26" stroke-linecap="round"/>
</g>
		<g transform="matrix(1.0205 0 0 1.0205 -14.445 -57.3851)" id="body_1">
<path style="stroke: none; stroke-width: 1; stroke-dasharray: none; stroke-linecap: butt; stroke-dashoffset: 0; stroke-linejoin: miter; stroke-miterlimit: 4; is-custom-font: none; font-file-url: none; fill: rgb(249,180,153); fill-rule: nonzero; opacity: 1;" transform=" translate(-420.49, -309.26)" d="M 415.59998 309.26 C 415.59998 305.49344 417.7893 302.44 420.49 302.44 C 423.19067 302.44 425.38 305.49344 425.38 309.26 C 425.38 313.02658 423.19067 316.08002 420.49 316.08002 C 417.7893 316.08002 415.59998 313.02658 415.59998 309.26" stroke-linecap="round"/>
</g>
		<g transform="matrix(1.0205 0 0 1.0205 6.4574 -77.0176)" id="body_1">
<path style="stroke: none; stroke-width: 1; stroke-dasharray: none; stroke-linecap: butt; stroke-dashoffset: 0; stroke-linejoin: miter; stroke-miterlimit: 4; is-custom-font: none; font-file-url: none; fill: rgb(47,46,65); fill-rule: nonzero; opacity: 1;" transform=" translate(-440.9723, -290.0232)" d="M 423.91 306.16 C 423.91 306.16 412.13 294.95 423.91 286.31 C 423.91 286.31 427.06 270.5 447.09 274.55 C 447.09 274.55 466.54 274.65 462.79 302.44 C 461.4722 303.79993 460.0403 305.04446 458.51 306.16 C 458.51 306.16 457.02002 296.97 449.67 297.34 C 449.67 297.34 433.67 298.07 430.55002 291.09 C 427.14645 295.5 424.8675 300.6722 423.91 306.16 z" stroke-linecap="round"/>
</g>
		<g transform="matrix(1.0205 0 0 1.0205 146.6431 -32.9168)" id="body_1">
<path style="stroke: none; stroke-width: 1; stroke-dasharray: none; stroke-linecap: butt; stroke-dashoffset: 0; stroke-linejoin: miter; stroke-miterlimit: 4; is-custom-font: none; font-file-url: none; fill: rgb(244,164,142); fill-rule: nonzero; opacity: 1;" transform=" translate(-578.335, -333.2357)" d="M 586.27 337.87 L 586.37 335.78 C 586.37 335.78 573.58997 336.22 570.3 328.6 C 570.3 328.6 572.38 338 586.27 337.87 z" stroke-linecap="round"/>
</g>
		<g transform="matrix(1.0205 0 0 1.0205 147.5304 -52.2117)" id="body_1">
<path style="stroke: none; stroke-width: 1; stroke-dasharray: none; stroke-linecap: butt; stroke-dashoffset: 0; stroke-linejoin: miter; stroke-miterlimit: 4; is-custom-font: none; font-file-url: none; fill: rgb(249,180,153); fill-rule: nonzero; opacity: 1;" transform=" translate(-579.205, -314.33)" d="M 600.12 314.31 C 600.12 326.38998 592.52997 336.18 583.12 336.18 C 575.22 336.18 568.57 329.18 566.68 319.81 C 565.88306 320.4855 564.8747 320.86057 563.83 320.87 C 560.77 320.87 558.29004 317.58 558.29004 313.51 C 558.29004 309.44003 560.77 306.16 563.83 306.16 C 565.0132 306.181 566.14355 306.6532 566.99 307.48 C 569.22 298.75 575.6 292.48 583.12 292.48 C 592.53 292.45 600.12 302.24 600.12 314.31 z" stroke-linecap="round"/>
</g>
		<g transform="matrix(1.0205 0 0 1.0205 149.6056 -67.2976)" id="body_1">
<path style="stroke: none; stroke-width: 1; stroke-dasharray: none; stroke-linecap: butt; stroke-dashoffset: 0; stroke-linejoin: miter; stroke-miterlimit: 4; is-custom-font: none; font-file-url: none; fill: rgb(47,46,65); fill-rule: nonzero; opacity: 1;" transform=" translate(-581.2387, -299.5478)" d="M 570.16 308 L 571.63995 298.24 C 571.63995 298.24 580.02997 299.8 584.81995 296.94 C 584.81995 296.94 596.13995 305.17 605.13995 296.94 C 605.13995 296.94 610.7999 291.28 605.13995 283.57 C 605.13995 283.57 603.07996 277.13 591.24994 281.25 C 591.24994 281.25 578.64996 269.42 568.0999 284.08 C 568.0999 284.08 555.2599 283.34998 558.3199 295.13998 C 558.3199 295.13998 549.8199 302.28 559.3199 309.24997 C 559.3199 309.24997 552.3199 324.40997 567.2599 322.11996 L 567.2599 322.11996 L 566.6799 319.79996 C 566.6799 319.79996 561.89984 323.13995 559.04987 317.19995 C 559.04987 317.19995 556.4299 310.82996 560.9299 307.24994 C 562.20447 306.07663 564.06256 305.79196 565.6299 306.52994 C 566.92975 307.19208 568.3169 307.6668 569.7499 307.93994 L 569.7499 307.93994 L 570.16 308 z" stroke-linecap="round"/>
</g>
</g>
</g>
</svg>