<?xml version="1.0" encoding="utf-8"?>
<svg id="a34b2483-b408-41ec-8a7f-4b7e340c4e88" data-name="Layer 1" width="865.76" height="682.89" viewBox="-4.909 -1.155 1317.402 806.527" xmlns="http://www.w3.org/2000/svg" xmlns:bx="https://boxy-svg.com">
  <defs>
    <style>*, ::after, ::before { box-sizing: border-box; }
img, svg { vertical-align: middle; }
</style>
    <style>*, body, html { -webkit-font-smoothing: antialiased; }
img, svg { max-width: 100%; }
</style>
  </defs>
  <path d="M 944.449 136.218 L 750.005 136.218 C 747.411 136.218 745.308 138.28 745.308 140.824 L 745.308 188.973 C 745.308 191.515 747.411 193.577 750.005 193.577 L 767.505 193.577 L 767.505 209.449 L 787.854 193.577 L 944.385 193.577 C 946.98 193.577 949.08 191.515 949.08 188.973 L 949.08 140.839 C 949.091 138.314 947.022 136.253 944.449 136.218 Z" data-secondary="true" style="fill: rgb(0, 143, 195);" bx:origin="-0.630798 4.115661"/>
  <path d="M 338.625 571.723 C 338.625 571.723 338.392 589.675 343.966 594.113 C 348.631 590.102 352.244 585.051 354.503 579.385 C 349.034 577.2 343.728 574.639 338.625 571.723 Z" fill="#0071f2" data-primary="true" style="" bx:origin="17.51612 -5.989785"/>
  <path d="M 726.463 785.786 L 745.876 592.8 C 745.876 592.8 832.922 608.012 869.844 592.8 L 862.347 785.786 L 813.201 785.786 L 807.859 656.277 L 782.639 785.786 L 726.463 785.786 Z" fill="#3f3d56" style="" bx:origin="-0.765052 -0.804141"/>
  <path d="M 726.463 785.786 L 745.876 592.8 C 745.876 592.8 832.922 608.012 869.844 592.8 L 862.347 785.786 L 813.201 785.786 L 807.859 656.277 L 782.639 785.786 L 726.463 785.786 Z" fill="#2f2e41" data-secondary="true" style="" bx:origin="-0.765052 -0.804141"/>
  <path d="M 366.409 658.246 C 366.409 658.246 361.591 602.376 394.059 560.677 C 394.059 560.677 405.295 580.742 453.845 576.018 C 453.845 576.018 477.799 571.85 488.89 565.671 C 488.89 565.671 508.014 606.713 506.804 650.768 C 506.804 650.768 499.529 776.011 497.171 785.786 L 451.489 785.786 C 451.489 785.786 435.843 675.557 434.636 661.729 C 434.636 661.729 434.636 753.933 438.651 785.728 L 390.509 785.728 C 390.509 785.728 363.861 696.95 366.409 658.246 Z" fill="#2f2e41" data-secondary="true" style="" bx:origin="1.781152 -0.546691"/>
  <path d="M 362.043 548.476 L 364.051 481.601 C 366.058 442.258 423.327 435.792 423.327 435.792 C 423.327 435.792 479.213 429.657 496.094 439.503 L 563.899 491.192 L 559.082 573.664 L 532.595 598.452 C 532.595 598.452 510.124 559.921 511.333 552.413 L 539.42 529.58 C 539.42 529.58 502.106 505.192 498.496 498.498 C 498.496 498.498 473.753 545.322 497.695 585.835 C 497.695 585.835 475.226 603.945 447.937 606.701 C 447.937 606.701 440.051 492.99 457.439 443.028 C 457.439 443.028 437.605 455.873 420.794 443.028 C 420.794 443.028 405.412 473.324 408.219 520.918 C 408.219 520.918 415.047 588.59 408.219 604.33 C 408.219 604.33 381.515 598.723 376.698 592.044 C 376.698 592.044 380.439 585.009 384.95 568.14 C 384.95 568.14 377.673 594.099 344.025 594.099 C 343.966 594.113 361.097 579.172 362.043 548.476 Z" fill="#0071f2" data-primary="true" style="" bx:origin="1.240456 0.021461"/>
  <path d="M 561.062 587.121 L 530.135 785.786 L 579.893 785.786 L 610.529 655.663 C 611.068 653.271 613.226 651.563 615.724 651.554 C 618.227 651.552 620.392 653.263 620.92 655.663 L 651.569 785.786 L 703.468 785.786 L 673.939 587.121 L 561.062 587.121 Z" fill="#2f2e41" data-secondary="true" style="" bx:origin="0.499812 -0.752568"/>
  <path d="M 549.535 573.021 L 549.535 582.654 C 549.531 587.088 552.905 590.825 557.394 591.359 C 578.481 593.857 638.21 601.35 673.821 591.859 C 678.385 590.618 681.4 586.367 680.997 581.741 L 680.341 574.32 L 609.451 556.981 L 549.535 573.021 Z" fill="#3f3d56" style="" bx:origin="0.511293 -3.018078"/>
  <path d="M 549.535 573.021 L 549.535 582.654 C 549.531 587.088 552.905 590.825 557.394 591.359 C 578.481 593.857 638.21 601.35 673.821 591.859 C 678.385 590.618 681.4 586.367 680.997 581.741 L 680.341 574.32 L 609.451 556.981 L 549.535 573.021 Z" fill="#0071f2" data-primary="true" style="" bx:origin="0.511293 -3.018078"/>
  <path d="M 549.535 573.021 L 549.535 582.654 C 549.531 587.088 552.905 590.825 557.394 591.359 C 578.481 593.857 638.21 601.35 673.821 591.859 C 678.385 590.618 681.4 586.367 680.997 581.741 L 680.341 574.32 L 609.451 556.981 L 549.535 573.021 Z" fill="#fff" opacity="0.2" style="" bx:origin="0.511293 -3.018078"/>
  <path d="M 683.675 533.862 L 592.73 518.163 L 582.746 538.799 L 578.889 548.004 L 610.631 560.677 C 610.631 560.677 700.135 594.7 712.621 565.329 C 712.621 565.329 720.174 552.869 713.044 525.656 C 712.783 524.667 712.573 523.668 712.417 522.659 C 710.962 513.697 702.143 464.449 672.672 452.374 C 672.672 452.374 651.641 443.984 645.574 442.943 L 584.899 442.943 C 584.899 442.943 540.337 449.107 529.277 482.102 C 529.277 482.102 513.268 520.518 513.587 548.004 C 513.587 548.004 511.085 575.475 536.407 576.546 C 536.407 576.546 587.752 576.333 610.631 560.705 L 578.889 548.004 L 582.804 538.757 C 575.594 537.949 568.315 537.949 561.105 538.757 C 561.105 538.757 566.054 526.126 566.401 513.883" fill="#0071f2" data-primary="true" style="" bx:origin="0.509656 -0.039685"/>
  <path d="M 683.675 533.862 L 592.73 518.163 L 582.746 538.799 L 578.889 548.004 L 610.631 560.677 C 610.631 560.677 700.135 594.7 712.621 565.329 C 712.621 565.329 720.174 552.869 713.044 525.656 C 712.783 524.667 712.573 523.668 712.417 522.659 C 710.962 513.697 702.143 464.449 672.672 452.374 C 672.672 452.374 651.641 443.984 645.574 442.943 L 584.899 442.943 C 584.899 442.943 540.337 449.107 529.277 482.102 C 529.277 482.102 513.268 520.518 513.587 548.004 C 513.587 548.004 511.085 575.475 536.407 576.546 C 536.407 576.546 587.752 576.333 610.631 560.705 L 578.889 548.004 L 582.804 538.757 C 575.594 537.949 568.315 537.949 561.105 538.757 C 561.105 538.757 566.054 526.126 566.401 513.883" fill="#fff" opacity="0.2" style="" bx:origin="0.509656 -0.039685"/>
  <path d="M 592.744 518.121 C 590.081 522.289 588.524 527.155 585.875 532.321 C 583.261 537.433 580.916 542.673 578.847 548.018 C 586.617 551.329 594.855 554.512 603.295 557.765 C 616.787 562.903 632.838 568.612 643.013 570.824 C 643.013 570.824 680.328 581.085 698.212 575.904 C 698.212 575.904 716.42 576.217 716.055 546.72 L 715.11 535.718 L 683.675 533.862 L 592.744 518.121 Z" opacity="0.2" style="" bx:origin="0.276372 -1.358933"/>
  <path d="M 590.968 433.908 C 590.968 433.908 614.663 425.959 637.191 433.509 C 634.76 437.505 632.127 441.6 629.23 445.783 C 624.413 452.775 619.537 459.111 614.793 464.805 L 590.968 433.908 Z" fill="#0071f2" data-primary="true" style="" bx:origin="0.558186 0.212965"/>
  <path d="M 590.968 433.908 C 590.968 433.908 614.663 425.959 637.191 433.509 C 634.76 437.505 632.127 441.6 629.23 445.783 C 624.413 452.775 619.537 459.111 614.793 464.805 L 590.968 433.908 Z" fill="#fff" opacity="0.2" style="" bx:origin="0.558186 0.212965"/>
  <path d="M 411.175 572.407 C 411.175 572.407 420.969 577.274 446.511 576.561 L 446.657 523.644 C 446.657 523.644 447.443 469.742 457.381 443.043 C 457.381 443.043 437.633 455.471 420.735 443.043 C 420.735 443.043 407.157 468.929 407.857 505.248 C 407.652 509.701 407.521 514.253 407.493 518.891 C 407.355 536.796 408.586 554.685 411.175 572.407 Z" fill="#ccc" style="" bx:origin="4.194248 -0.040654"/>
  <path d="M 406.678 388.186 C 406.678 388.186 399.561 356.903 414.217 349.883 C 414.217 349.883 430.224 338.851 445.929 348.211 C 445.929 348.211 474.22 343.532 477.291 375.327 C 477.291 375.327 475.59 419.795 485.12 435.835 L 459.217 435.835 L 401.264 441.544 C 401.264 441.544 410.374 408.778 406.678 388.186 Z" fill="#2f2e41" data-secondary="true" style="" bx:origin="2.569941 0.959506"/>
  <path d="M 338.625 571.723 C 338.625 571.723 338.392 589.675 343.966 594.113 C 343.966 594.113 351.243 587.092 354.503 579.385 C 354.503 579.385 343.734 576.105 338.625 571.723 Z" fill="#231f20" opacity="0.2" style="" bx:origin="17.51612 -5.989785"/>
  <path d="M 478.673 573.249 C 478.673 573.249 466.799 578.343 458.881 579.642 C 455.686 580.148 452.487 578.76 450.717 576.105 L 447.514 571.38 C 446.744 570.237 446.335 568.896 446.337 567.527 L 446.337 564.83 C 446.332 562.2 447.833 559.791 450.222 558.594 C 457.775 554.797 474.541 547.419 484.189 551.329 C 485.174 551.738 486.055 552.357 486.765 553.142 C 489.313 555.853 496.023 563.06 497.084 565.087 C 497.084 565.087 507.358 563.659 512.599 558.893 C 512.599 558.893 519.467 574.377 520.967 577.259 C 520.967 577.259 501.553 593.099 489.458 584.593 C 489.458 584.667 481.831 579.185 478.673 573.249 Z" fill="#f9b499" style="" bx:origin="2.283693 -3.052949"/>
  <path d="M 385.328 548.004 C 385.328 548.004 388.471 523.245 386.637 508.303 C 386.637 508.303 391.629 532.792 389.01 548.004 L 385.328 548.004 Z" fill="#231f20" opacity="0.2" style="" bx:origin="52.104837 -1.780584"/>
  <path d="M 377.934 605.701 C 376.047 605.701 374.171 605.438 372.361 604.917 L 372.652 604.046 C 373.118 604.203 384.09 607.713 388.442 598.78 L 389.344 599.108 C 387.263 603.377 382.752 605.984 377.934 605.701 Z" fill="#3f3d56" style="" bx:origin="14.39133 -23.216719"/>
  <g opacity="0.2" transform="matrix(1.455351, 0, 0, 1.427087, -27.991961, -48.960026)" style="" bx:origin="5.333957 -9.183395">
    <path d="M365.45,465.09c-17-1.8-17.89-11.73-17.9-11.83l.73-.36c0,.1.61,9.8,17.05,11.54Z" fill="#231f20"/>
  </g>
  <polygon points="597.023 470.213 584.899 442.943 590.968 433.908 610.165 458.811 597.023 470.213" fill="#0071f2" data-primary="true" style="" bx:origin="1.261379 0.102025"/>
  <polygon points="619.495 459.724 632.33 470.213 645.529 442.943 637.191 433.509 619.495 459.724" fill="#0071f2" data-primary="true" style="" bx:origin="-0.10471 0.111786"/>
  <polygon points="600.211 417.653 597.14 441.915 614.793 464.805 619.495 459.368 631.907 441.229 628.037 417.653 600.211 417.653" fill="#f9b499" style="" bx:origin="0.564587 0.423291"/>
  <path d="M 565.791 520.932 C 565.791 520.932 585.847 520.547 590.285 523.373 L 582.834 538.757 C 582.834 538.757 565.005 537.429 561.134 538.757 C 561.062 538.799 565.122 526.826 565.791 520.932 Z" fill="#f9b499" style="" bx:origin="1.908483 -4.668689"/>
  <path d="M 654.903 528.881 C 654.903 528.881 664.421 513.07 680.546 511.756 C 685.005 511.433 689.409 512.901 692.743 515.824 C 695.471 518.215 695.573 522.371 692.961 524.885 L 683.675 533.862 L 654.903 528.881 Z" fill="#f9b499" style="" bx:origin="-0.954462 -3.345385"/>
  <path d="M 798.56 405.267 C 798.56 405.267 798.56 405.637 798.473 406.28 C 797.993 411.56 795.562 435.907 790.135 438.718 L 792.141 452.062 C 792.141 452.062 817.407 458.725 827.841 452.062 L 827.841 434.937 C 827.841 434.937 825.237 435.122 825.237 433.168 L 825.645 425.29 L 798.56 405.267 Z" fill="#f9b499" style="" bx:origin="-4.597837 0.650068"/>
  <path d="M 743.183 524.872 L 748.802 615.362 C 748.802 615.362 793.742 632.288 801.37 629.919 C 801.37 629.919 803.771 508.745 799.157 478.049 L 780.498 442.943 C 773.076 441.801 744.013 456.356 736.009 460.468 C 734.634 461.177 733.471 462.224 732.633 463.507 C 717.861 486.733 707.046 512.163 700.616 538.799 C 700.616 538.799 707.892 592.159 724.686 615.362 C 724.686 615.362 749.165 608.669 753.168 600.807 C 753.168 600.807 738.731 553.985 734.713 546.905 C 734.757 546.905 735.965 545.721 743.183 524.872 Z" fill="#0071f2" data-primary="true" style="" bx:origin="-0.827069 -0.028127"/>
  <path d="M 830.665 630.148 L 827.855 480.803 L 834.011 436.091 C 834.011 436.091 882.825 456.072 887.235 485.141 L 892.853 510.116 L 896.869 506.375 L 888.049 577.274 C 888.049 577.274 876.813 579.558 874.398 566.585 L 876.015 622.841 C 876.015 622.841 859.947 630.334 830.665 630.148 Z" fill="#0071f2" data-primary="true" style="" bx:origin="-3.058598 0.007838"/>
  <path d="M 872.784 520.932 L 874.384 566.599 C 874.384 566.599 876.26 579.343 888.037 577.288 L 888.747 571.58 C 888.747 571.58 874.66 571.822 872.784 520.932 Z" opacity="0.2" style="" bx:origin="-16.038014 -1.472598"/>
  <path d="M 729.781 613.822 C 729.781 613.822 732.357 629.519 742.253 634.244 C 742.253 634.244 757.65 626.652 764.258 620.871 C 764.258 620.871 770.079 626.907 772.481 626.907 C 775.841 626.932 777.969 623.379 776.307 620.513 C 776.25 620.41 776.185 620.312 776.119 620.215 C 773.353 616.461 769.934 613.214 766.019 610.625 C 761.962 608.103 757.242 606.799 752.44 606.871 C 750.918 607.003 749.401 606.583 748.175 605.687 C 748.175 605.687 735.835 613.723 729.781 613.822 Z" fill="#f9b499" style="" bx:origin="-2.399249 -5.885596"/>
  <polygon points="942.058 522.816 895.384 518.235 862.347 785.786 911.03 785.786 942.058 522.816" fill="#2f2e41" data-secondary="true" style="" bx:origin="-3.080855 -0.301337"/>
  <polygon points="880.758 779.035 910.521 519.72 926.005 520.946 896.854 785.786 879.828 785.786 880.758 779.035" fill="#fff" opacity="0.2" style="" bx:origin="-5.696754 -0.3086"/>
  <polygon points="896.854 502.138 895.384 518.235 942.058 522.816 943.718 507.817 896.854 502.138" fill="#2f2e41" data-secondary="true" style="" bx:origin="-5.76437 -3.120517"/>
  <polygon points="896.854 502.138 895.384 518.235 942.058 522.816 943.718 507.817 896.854 502.138" opacity="0.2" style="" bx:origin="-5.76437 -3.120517"/>
  <path d="M 898.369 486.197 L 896.913 502.195 L 943.775 507.903 L 945.448 490.478 C 946.403 480.947 939.267 472.471 929.541 471.584 L 917.564 470.485 C 907.831 469.601 899.221 476.649 898.369 486.197 Z" fill="#2f2e41" data-secondary="true" style="" bx:origin="-5.761822 -0.874782"/>
  <path d="M 923.648 472.911 C 923.648 472.911 913.286 489.523 938.696 495.373 C 938.696 495.373 950.935 499.369 951.256 484.142 C 951.256 484.142 952.507 466.461 929.921 463.993 C 929.921 463.993 909.821 461.509 908.57 471.556 C 908.177 474.625 910.612 477.339 913.765 477.349 C 916.11 477.321 919.355 476.308 923.648 472.911 Z" fill="#f9b499" style="" bx:origin="-6.826359 -0.812725"/>
  <path d="M 801.996 599.009 C 801.996 599.009 802.562 500.867 799.157 478.049 C 799.157 478.049 793.757 462.821 792.141 452.062 C 792.141 452.062 818.411 458.526 827.841 452.062 L 827.841 480.803 L 830.081 599.437 L 801.996 599.009 Z" fill="#ccc" style="" bx:origin="-4.622351 -0.098049"/>
  <path d="M 262.248 471.427 L 339.207 480.089 C 342.086 480.433 344.481 482.417 345.306 485.141 L 370.237 568.668 L 348.945 566.329 L 278.548 554.497 L 257.402 476.95 C 256.567 473.945 259.094 471.064 262.248 471.427 Z" fill="#2f2e41" data-secondary="true" style="" bx:origin="3.181773 -0.347314"/>
  <path d="M 335.541 479.674 L 345.596 479.674 C 347.934 479.669 349.997 481.175 350.662 483.372 L 375.141 562.875 L 432.83 554.612 C 434.821 554.325 436.608 555.836 436.614 557.808 C 436.611 559.446 435.361 560.824 433.704 561.02 L 370.295 568.668 L 345.306 485.141 C 345.306 485.141 343.966 478.847 335.541 479.674 Z" fill="#2f2e41" data-secondary="true" style="" bx:origin="2.782425 -0.4714"/>
  <path d="M 335.541 479.674 L 345.596 479.674 C 347.934 479.669 349.997 481.175 350.662 483.372 L 375.141 562.875 L 432.83 554.612 C 434.821 554.325 436.608 555.836 436.614 557.808 C 436.611 559.446 435.361 560.824 433.704 561.02 L 370.295 568.668 L 345.306 485.141 C 345.306 485.141 343.966 478.847 335.541 479.674 Z" fill="#231f20" opacity="0.2" style="" bx:origin="2.782425 -0.4714"/>
  <polygon points="370.017 546.364 429.599 555.069 375.081 562.875 370.017 546.364" fill="#2f2e41" data-secondary="true" style="" bx:origin="4.141385 -6.586645"/>
  <path d="M 420.735 443.043 C 420.735 443.043 424.739 435.792 424.68 423.663 L 447.747 411.046 L 454.443 401.129 L 459.217 435.792 L 457.381 443.043 C 457.381 443.043 435.203 457.542 420.735 443.043 Z" fill="#f9b499" style="" bx:origin="5.094175 0.754436"/>
  <path d="M 313.39 546.705 C 305.683 544.777 298.735 551.752 300.885 559.26 C 300.937 559.449 300.998 559.636 301.063 559.821 C 302.939 565.529 308.339 571.723 322.894 571.723 C 322.894 571.723 333.329 571.494 338.669 571.723 C 338.669 571.723 348.362 578.173 354.548 579.385 C 356.466 575.409 358.053 571.285 359.292 567.056 C 359.292 567.056 336.574 567.397 329.734 557.838 C 329.689 557.838 321.933 548.903 313.39 546.705 Z" fill="#f9b499" style="" bx:origin="5.378632 -3.29554"/>
  <path d="M 564.844 508.93 L 565.719 520.932 C 565.719 520.932 585.483 520.704 590.212 523.373 L 593.925 516.151 L 564.844 508.93 Z" fill="#0071f2" data-primary="true" style="" bx:origin="1.78553 -4.937895"/>
  <path d="M 564.844 508.93 L 565.719 520.932 C 565.719 520.932 585.483 520.704 590.212 523.373 L 593.925 516.151 L 564.844 508.93 Z" fill="#fff" opacity="0.2" style="" bx:origin="1.78553 -4.937895"/>
  <polygon points="743.563 533.933 754.827 510.829 744.495 548.889 743.563 533.933" opacity="0.2" style="" bx:origin="-11.256593 -1.923727"/>
  <path d="M 764.781 609.883 C 764.781 609.883 773.017 614.692 776.147 620.215 C 776.147 620.215 777.72 623.425 776.352 624.839 L 782.639 626.708 L 782.639 625.28 C 780.318 612.81 770.634 602.899 758.028 600.093 L 745.876 568.156 L 746.459 577.445 L 753.211 600.749 C 752.059 602.817 750.32 604.512 748.205 605.631 C 749.493 606.39 750.966 606.799 752.47 606.815 C 756.748 606.931 760.949 607.959 764.781 609.826" opacity="0.2" style="" bx:origin="-3.511873 -2.229539"/>
  <path d="M 773.674 458.783 L 786.524 461.538 L 784.56 470.213 L 799.113 478.049 C 794.772 464.464 792.487 450.329 792.333 436.091 C 792.333 436.091 775.362 437.534 773.674 458.783 Z" fill="#0071f2" data-primary="true" style="" bx:origin="-6.167901 0.036251"/>
  <path d="M 773.674 458.783 L 786.524 461.538 L 784.56 470.213 L 799.113 478.049 C 794.772 464.464 792.487 450.329 792.333 436.091 C 792.333 436.091 775.362 437.534 773.674 458.783 Z" fill="#fff" opacity="0.2" style="" bx:origin="-6.167901 0.036251"/>
  <path d="M 827.841 480.803 L 827.841 434.979 C 827.841 434.979 838.029 431.04 850.574 457.898 L 839.426 461.037 C 838.254 461.361 837.644 462.625 838.131 463.721 L 841.216 470.584 L 827.841 480.803 Z" fill="#0071f2" data-primary="true" style="" bx:origin="-9.284841 0.061608"/>
  <path d="M 827.841 480.803 L 827.841 434.979 C 827.841 434.979 838.029 431.04 850.574 457.898 L 839.426 461.037 C 838.254 461.361 837.644 462.625 838.131 463.721 L 841.216 470.584 L 827.841 480.803 Z" fill="#fff" opacity="0.2" style="" bx:origin="-9.284841 0.061608"/>
  <line x1="171.784" y1="303.73" x2="1063.871" y2="303.73" fill="none" stroke="#ccc" stroke-miterlimit="10" stroke-width="1.97" style="" bx:origin="0.498813 0"/>
  <rect x="171.784" y="246.389" width="892.086" height="541.223" rx="6.52" fill="none" stroke-miterlimit="10" stroke-width="1.97" style="stroke: rgb(230, 239, 242);" bx:origin="0.498814 0.353316"/>
  <path d="M 230.58 275.645 C 230.58 281.807 223.776 285.661 218.333 282.578 C 212.89 279.497 212.89 271.793 218.333 268.711 C 219.575 268.008 220.983 267.639 222.416 267.639 C 226.925 267.639 230.58 271.224 230.58 275.645 Z" fill="#2f2e41" data-secondary="true" style="" bx:origin="24.650131 10.60735"/>
  <path d="M 230.58 275.645 C 230.58 281.807 223.776 285.661 218.333 282.578 C 212.89 279.497 212.89 271.793 218.333 268.711 C 219.575 268.008 220.983 267.639 222.416 267.639 C 226.925 267.639 230.58 271.224 230.58 275.645 Z" fill="#fff" opacity="0.2" style="" bx:origin="24.650131 10.60735"/>
  <path d="M 262.291 275.645 C 262.291 281.807 255.489 285.661 250.046 282.578 C 244.603 279.497 244.603 271.793 250.046 268.711 C 251.286 268.008 252.695 267.639 254.128 267.639 C 258.637 267.639 262.291 271.224 262.291 275.645 Z" fill="#ccc" style="" bx:origin="22.710814 10.60735"/>
  <path d="M 294.004 275.645 C 294.004 281.807 287.2 285.661 281.757 282.578 C 276.315 279.497 276.315 271.793 281.757 268.711 C 282.999 268.008 284.407 267.639 285.841 267.639 C 290.349 267.639 294.004 271.224 294.004 275.645 Z" fill="#2f2e41" data-secondary="true" style="" bx:origin="20.766983 10.60735"/>
  <rect x="959.405" y="285.749" width="231.065" height="211.122" rx="5.99" style="fill: rgb(0, 143, 195);" bx:origin="-1.482855 0.719314"/>
  <rect x="959.405" y="285.749" width="231.065" height="211.122" rx="5.99" fill="none" stroke="#ccc" stroke-miterlimit="10" stroke-width="1.97" style="" bx:origin="-1.482855 0.719314"/>
  <rect x="-1120.115" y="-441.957" width="125.418" height="108.673" rx="6.02" transform="matrix(-1, 0, 0, -1, 0, 0)" style="fill: rgb(0, 143, 195);" bx:origin="4.013347 0.039982"/>
  <polygon points="1105.042 405.681 1054.032 405.681 1044.82 405.681 1044.82 366.094 1105.042 366.094 1105.042 375.983 1105.042 405.681" fill="none" stroke-linecap="round" stroke-linejoin="round" stroke-width="1.65" style="stroke: rgb(235, 168, 0);" bx:origin="-7.107894 1.806603"/>
  <polyline points="1044.82 366.094 1074.931 389.356 1105.042 366.094" fill="none" stroke-linecap="round" stroke-linejoin="round" stroke-width="1.65" style="stroke: rgb(242, 222, 0);" bx:origin="-7.107894 3.074458"/>
  <rect x="22.241" y="356.995" width="151.41" height="133.81" rx="5.71" style="fill: rgb(0, 143, 195);"/>
  <rect x="22.241" y="356.995" width="151.41" height="133.81" rx="5.71" fill="none" stroke="#ccc" stroke-miterlimit="10" stroke-width="1.97"/>
  <rect x="37" y="386.601" width="127.416" height="121.459" rx="6.64" style="fill: rgb(0, 143, 195);" bx:origin="4.550206 0.419985"/>
  <path d="M 76.004 422.246 C 56.381 441.471 65.339 474.317 92.13 481.368 C 118.92 488.42 143.451 464.389 136.283 438.114 C 134.647 432.11 131.425 426.637 126.942 422.246 C 112.84 408.54 90.107 408.54 76.004 422.246 Z M 126.942 427.327 L 115.473 427.327 C 114.265 423.684 112.773 420.139 111.006 416.723 C 117.263 418.606 122.794 422.304 126.869 427.327 L 126.942 427.327 Z M 88.259 445.195 C 88.257 440.581 88.829 435.985 89.961 431.507 L 113.001 431.507 C 114.162 435.983 114.761 440.577 114.79 445.195 L 88.259 445.195 Z M 114.571 449.333 C 114.229 453.97 113.4 458.561 112.097 463.031 L 90.878 463.031 C 89.564 458.562 88.73 453.972 88.389 449.333 L 114.571 449.333 Z M 101.473 415.396 C 103.173 415.394 104.873 415.522 106.552 415.781 C 108.679 419.465 110.429 423.347 111.777 427.369 L 91.171 427.369 C 92.516 423.347 94.268 419.465 96.393 415.781 C 98.077 415.508 99.781 415.365 101.487 415.353 L 101.473 415.396 Z M 92.029 416.824 C 90.25 420.233 88.755 423.78 87.56 427.426 L 76.093 427.426 C 80.178 422.354 85.74 418.62 92.043 416.723 L 92.029 416.824 Z M 73.223 431.465 L 86.324 431.465 C 85.203 435.96 84.602 440.566 84.533 445.195 L 69.048 445.195 C 69.351 440.364 70.78 435.668 73.223 431.465 Z M 73.223 462.989 C 70.788 458.794 69.362 454.109 69.048 449.289 L 84.606 449.289 C 84.841 453.919 85.574 458.511 86.789 462.989 L 73.223 462.989 Z M 76.135 467.113 L 88.084 467.113 C 89.292 470.783 90.749 474.368 92.449 477.846 C 85.998 476.013 80.283 472.263 76.093 467.113 L 76.135 467.113 Z M 101.532 479.086 C 100.106 479.091 98.681 478.999 97.267 478.816 C 95.325 475.029 93.644 471.12 92.232 467.113 L 110.817 467.113 C 109.413 471.123 107.73 475.032 105.781 478.816 C 104.359 479.002 102.924 479.092 101.487 479.086 L 101.532 479.086 Z M 110.525 477.846 C 112.261 474.373 113.748 470.787 114.978 467.113 L 126.913 467.113 C 122.691 472.288 116.926 476.041 110.424 477.846 L 110.525 477.846 Z M 129.779 462.989 L 116.245 462.989 C 117.459 458.509 118.195 453.919 118.443 449.289 L 133.987 449.289 C 133.651 454.113 132.198 458.799 129.736 462.989 L 129.779 462.989 Z M 133.958 445.15 L 118.427 445.15 C 118.341 440.536 117.726 435.945 116.593 431.465 L 129.692 431.465 C 132.153 435.664 133.595 440.361 133.913 445.195 L 133.958 445.15 Z" fill="#fff" style="" bx:origin="7.644004 0.363008"/>
  <path d="M 245.207 196.499 L 64.073 196.499 C 60.332 196.507 57.291 193.534 57.291 189.863 C 57.283 186.186 60.326 183.204 64.073 183.213 L 245.207 183.213 C 248.952 183.213 251.989 186.191 251.989 189.863 C 251.981 193.53 248.946 196.499 245.207 196.499 Z" style="fill: rgb(0, 143, 195);" bx:origin="2.873568 19.147865"/>
  <path d="M 1187.139 630.334 L 1099.221 630.334 C 1095.484 630.334 1092.452 627.362 1092.452 623.697 C 1092.446 620.027 1095.478 617.047 1099.221 617.047 L 1187.139 617.047 C 1190.883 617.047 1193.92 620.023 1193.92 623.697 C 1193.912 627.363 1190.878 630.334 1187.139 630.334 Z" style="fill: rgb(0, 143, 195);" bx:origin="-4.688009 -13.504565"/>
  <rect x="1109.713" y="687.274" width="20.971" height="19.908" rx="2.86" fill="#2f2e41" data-secondary="true" style="" bx:origin="-23.505982 -12.540786"/>
  <rect x="91.361" y="733.297" width="20.971" height="19.908" rx="2.86" fill="#2f2e41" data-secondary="true" style="" bx:origin="25.054026 -14.85257"/>
  <line x1="771.113" y1="155.241" x2="898.266" y2="155.241" fill="none" stroke="#fff" stroke-miterlimit="10" stroke-width="1.18" style="" bx:origin="-1.213845 0"/>
  <line x1="771.113" y1="168.029" x2="822.907" y2="168.029" fill="none" stroke="#fff" stroke-miterlimit="10" stroke-width="1.18" style="" bx:origin="-2.979959 0"/>
  <path d="M 397.83 87.612 L 492.341 87.612 C 497.532 87.612 501.741 91.74 501.741 96.83 L 501.741 183.541 C 501.741 188.631 497.532 192.76 492.341 192.76 L 400.827 192.76 C 393.978 192.76 388.428 187.315 388.428 180.601 L 388.428 96.83 C 388.428 91.74 392.637 87.612 397.83 87.612 Z" style="fill: rgb(0, 143, 195);" bx:origin="2.015135 3.328642"/>
  <path d="M 471.513 147.978 L 465.067 141.643 C 464.022 140.457 462.516 139.763 460.919 139.729 C 459.349 139.771 457.859 140.415 456.771 141.527 L 453.089 145.124 L 452.389 144.78 C 451.997 144.611 451.613 144.419 451.241 144.211 C 447.6 141.885 444.37 138.994 441.679 135.648 C 440.475 134.238 439.467 132.679 438.68 131.009 C 439.612 130.225 440.413 129.312 441.214 128.526 L 442.26 127.513 C 444.865 125.311 444.865 121.354 442.26 119.151 L 439.03 115.982 C 438.655 115.632 438.312 115.257 437.997 114.855 L 435.799 112.715 C 434.717 111.594 433.225 110.941 431.651 110.902 C 430.073 110.919 428.572 111.575 427.503 112.715 L 423.473 116.667 C 421.963 118.158 421.028 120.115 420.824 122.205 C 420.683 125.127 421.179 128.046 422.279 130.768 C 424.307 136.208 427.357 141.227 431.273 145.566 C 436.331 151.496 442.609 156.31 449.698 159.693 C 452.945 161.306 456.459 162.339 460.075 162.749 L 460.876 162.749 C 463.502 162.786 466.019 161.715 467.789 159.808 L 467.904 159.693 C 468.538 158.957 469.234 158.275 469.986 157.653 L 471.442 156.226 C 473.856 153.999 473.889 150.246 471.513 147.978 Z M 468.864 153.843 L 467.481 155.269 C 466.682 155.955 466.027 156.697 465.182 157.54 C 464.109 158.657 462.6 159.269 461.034 159.223 L 460.467 159.223 C 457.319 158.901 454.262 157.981 451.475 156.511 C 444.867 153.337 439.015 148.836 434.301 143.298 C 430.755 139.224 427.917 134.604 425.903 129.626 C 424.826 127.447 424.347 125.032 424.521 122.618 C 424.585 121.363 425.163 120.185 426.121 119.35 L 430.051 115.512 C 430.457 115.05 431.031 114.763 431.651 114.713 C 432.284 114.735 432.873 115.027 433.265 115.512 L 435.348 117.539 C 435.694 117.949 436.079 118.326 436.499 118.665 L 439.729 121.834 C 440.167 122.259 440.451 122.817 440.528 123.418 C 440.472 124.026 440.187 124.591 439.729 125.001 L 438.68 126.015 L 435.77 128.87 L 435.653 128.983 C 434.812 129.684 434.535 130.843 434.97 131.838 L 434.97 131.937 C 435.938 134.137 437.217 136.194 438.767 138.045 C 441.706 141.724 445.252 144.894 449.261 147.421 C 449.717 147.733 450.205 147.995 450.717 148.206 C 451.111 148.377 451.493 148.567 451.867 148.777 L 451.983 148.891 C 453.06 149.461 454.395 149.223 455.199 148.321 L 459.231 144.367 C 459.651 143.917 460.225 143.637 460.847 143.582 C 461.41 143.669 461.923 143.947 462.301 144.367 L 468.749 150.704 C 469.721 151.508 469.774 152.959 468.864 153.829 L 468.864 153.843 Z" fill="#fff" style="" bx:origin="3.734623 6.301313"/>
  <path d="M 424.621 423.663 L 424.447 428.315 C 431.581 429.47 438.778 426.651 443.135 420.994 L 424.621 423.663 Z" fill="#f4a48e" style="" bx:origin="10.291209 2.193398"/>
  <path d="M 468.443 394.621 C 467.352 400.244 462.767 404.068 458.255 403.184 C 456.818 402.895 455.507 402.177 454.5 401.129 C 451.895 414.913 442.683 425.09 431.724 425.09 C 418.743 425.09 408.219 410.818 408.219 393.165 C 408.219 375.513 418.743 361.241 431.724 361.241 C 442.844 361.241 452.099 371.702 454.603 385.773 C 456.387 383.51 459.29 382.382 462.171 382.833 C 466.682 383.732 469.521 388.999 468.443 394.621 Z" fill="#f9b499" style="" bx:origin="3.449803 1.196119"/>
  <path d="M 408.163 390.325 C 408.163 390.325 409.763 375.897 418.859 372.745 C 418.859 372.745 434.795 367.035 435.915 361.769 C 435.915 361.769 452.827 375.626 452.827 387.171 C 452.827 387.171 459.755 377.61 466.449 385.545 C 466.449 385.545 472.924 396.205 462.476 402.669 C 462.476 402.669 457.659 405.124 454.443 401.129 C 454.443 401.129 457.047 431.425 459.217 435.792 L 473.42 383.447 L 468.662 368.491 L 445.871 353.079 L 419.397 353.079 C 419.397 353.079 404.931 371.845 404.947 372.829 C 404.96 373.814 408.163 390.325 408.163 390.325 Z" fill="#2f2e41" data-secondary="true" style="" bx:origin="3.093512 1.022004"/>
  <path d="M 599.265 425.788 L 600.282 417.653 C 600.282 417.653 611.664 424.191 620.526 424.789 C 620.455 424.833 616.947 429.028 599.265 425.788 Z" fill="#f4a48e" style="" bx:origin="0.823291 2.131861"/>
  <ellipse cx="614.052" cy="392.251" rx="26.413" ry="33.538" fill="#f9b499" style="" bx:origin="0.551433 1.176263"/>
  <ellipse cx="643.653" cy="392.38" rx="7.117" ry="9.733" fill="#f9b499" style="" bx:origin="-1.388715 2.823642"/>
  <ellipse cx="583.968" cy="392.38" rx="7.117" ry="9.733" fill="#f9b499" style="" bx:origin="2.804414 2.823642"/>
  <path d="M 588.945 387.957 C 588.945 387.957 571.802 371.958 588.945 359.629 C 588.945 359.629 593.53 337.066 622.681 342.847 C 622.681 342.847 650.989 342.989 645.529 382.648 C 643.612 384.589 641.528 386.364 639.302 387.957 C 639.302 387.957 637.133 374.841 626.437 375.369 C 626.437 375.369 603.151 376.412 598.609 366.45 C 593.656 372.745 590.339 380.125 588.945 387.957 Z" fill="#2f2e41" data-secondary="true" style="" bx:origin="0.546099 2.07811"/>
  <path d="M 825.237 433.21 L 825.383 430.226 C 825.383 430.226 806.782 430.855 801.996 419.981 C 801.996 419.981 805.023 433.396 825.237 433.21 Z" fill="#f4a48e" style="" bx:origin="-7.920075 1.332562"/>
  <path d="M 845.393 399.588 C 845.393 416.827 834.347 430.799 820.651 430.799 C 809.155 430.799 799.477 420.807 796.726 407.437 C 795.567 408.4 794.1 408.935 792.578 408.949 C 788.125 408.949 784.516 404.255 784.516 398.446 C 784.516 392.638 788.125 387.957 792.578 387.957 C 794.3 387.987 795.945 388.659 797.178 389.839 C 800.423 377.382 809.708 368.433 820.651 368.433 C 834.347 368.391 845.393 382.363 845.393 399.588 Z" fill="#f9b499" style="" bx:origin="-2.755507 1.109242"/>
  <path d="M 801.79 390.581 L 803.945 376.655 C 803.945 376.655 816.155 378.88 823.127 374.799 C 823.127 374.799 839.601 386.543 852.699 374.799 C 852.699 374.799 860.937 366.722 852.699 355.718 C 852.699 355.718 849.701 346.529 832.485 352.408 C 832.485 352.408 814.146 335.525 798.793 356.446 C 798.793 356.446 780.106 355.404 784.56 372.23 C 784.56 372.23 772.188 382.419 786.016 392.366 C 786.016 392.366 775.827 414 797.569 410.733 L 796.726 407.422 C 796.726 407.422 789.771 412.189 785.623 403.712 C 785.623 403.712 781.809 394.621 788.357 389.511 C 790.212 387.837 792.917 387.431 795.198 388.485 C 797.09 389.429 799.109 390.107 801.193 390.497 L 801.79 390.581 Z" fill="#2f2e41" data-secondary="true" style="" bx:origin="-2.115958 1.407743"/>
</svg>