<?xml version="1.0" encoding="utf-8"?>
<svg id="a34b2483-b408-41ec-8a7f-4b7e340c4e88" data-name="Layer 1" width="865.76" height="682.89" viewBox="0 0 1148.036 732.576" xmlns="http://www.w3.org/2000/svg">
  <defs>
    <style>*, ::after, ::before { box-sizing: border-box; }
img, svg { vertical-align: middle; }
</style>
    <style>*, body, html { -webkit-font-smoothing: antialiased; }
img, svg { max-width: 100%; }
</style>
  </defs>
  <path d="M 853.668 133.901 L 689.058 133.901 C 686.861 133.901 685.081 135.681 685.081 137.878 L 685.081 179.447 C 685.081 181.642 686.861 183.422 689.058 183.422 L 703.872 183.422 L 703.872 197.124 L 721.099 183.422 L 853.614 183.422 C 855.811 183.422 857.589 181.642 857.589 179.447 L 857.589 137.89 C 857.597 135.71 855.847 133.931 853.668 133.901 Z" data-secondary="true" style="fill: rgb(0, 143, 195);"/>
  <path d="M 314.781 538.298 C 314.781 538.298 314.569 554.968 319.644 559.09 C 323.891 555.365 327.182 550.675 329.238 545.414 C 324.259 543.384 319.427 541.006 314.781 538.298 Z" fill="#0071f2" data-primary="true"/>
  <path d="M 667.921 737.071 L 685.598 557.87 C 685.598 557.87 764.856 571.996 798.475 557.87 L 791.65 737.071 L 746.9 737.071 L 742.036 616.813 L 719.072 737.071 L 667.921 737.071 Z" fill="#3f3d56"/>
  <path d="M 667.921 737.071 L 685.598 557.87 C 685.598 557.87 764.856 571.996 798.475 557.87 L 791.65 737.071 L 746.9 737.071 L 742.036 616.813 L 719.072 737.071 L 667.921 737.071 Z" fill="#2f2e41" data-secondary="true"/>
  <path d="M 340.079 618.641 C 340.079 618.641 335.692 566.762 365.256 528.041 C 365.256 528.041 375.486 546.673 419.694 542.287 C 419.694 542.287 441.505 538.417 451.603 532.679 C 451.603 532.679 469.016 570.79 467.915 611.698 C 467.915 611.698 461.29 727.994 459.143 737.071 L 417.547 737.071 C 417.547 737.071 403.301 634.716 402.202 621.875 C 402.202 621.875 402.202 707.493 405.859 737.018 L 362.023 737.018 C 362.023 737.018 337.759 654.581 340.079 618.641 Z" fill="#2f2e41" data-secondary="true"/>
  <path d="M 336.103 516.712 L 337.932 454.614 C 339.76 418.081 391.905 412.077 391.905 412.077 C 391.905 412.077 442.791 406.38 458.163 415.523 L 519.901 463.52 L 515.515 540.101 L 491.398 563.118 C 491.398 563.118 470.937 527.339 472.038 520.368 L 497.612 499.166 C 497.612 499.166 463.636 476.52 460.349 470.304 C 460.349 470.304 437.821 513.783 459.62 551.403 C 459.62 551.403 439.161 568.219 414.313 570.778 C 414.313 570.778 407.132 465.189 422.966 418.796 C 422.966 418.796 404.905 430.723 389.599 418.796 C 389.599 418.796 375.593 446.928 378.149 491.123 C 378.149 491.123 384.365 553.961 378.149 568.577 C 378.149 568.577 353.834 563.37 349.448 557.168 C 349.448 557.168 352.853 550.635 356.961 534.972 C 356.961 534.972 350.335 559.076 319.698 559.076 C 319.644 559.09 335.242 545.216 336.103 516.712 Z" fill="#0071f2" data-primary="true"/>
  <path d="M 517.318 552.597 L 489.158 737.071 L 534.464 737.071 L 562.36 616.243 C 562.85 614.022 564.815 612.436 567.09 612.427 C 569.369 612.426 571.34 614.015 571.821 616.243 L 599.728 737.071 L 646.984 737.071 L 620.097 552.597 L 517.318 552.597 Z" fill="#2f2e41" data-secondary="true"/>
  <path d="M 506.823 539.504 L 506.823 548.449 C 506.819 552.566 509.891 556.036 513.978 556.532 C 533.179 558.852 587.564 565.809 619.99 556.996 C 624.145 555.844 626.89 551.897 626.523 547.601 L 625.926 540.71 L 561.378 524.61 L 506.823 539.504 Z" fill="#3f3d56"/>
  <path d="M 506.823 539.504 L 506.823 548.449 C 506.819 552.566 509.891 556.036 513.978 556.532 C 533.179 558.852 587.564 565.809 619.99 556.996 C 624.145 555.844 626.89 551.897 626.523 547.601 L 625.926 540.71 L 561.378 524.61 L 506.823 539.504 Z" fill="#0071f2" data-primary="true"/>
  <path d="M 506.823 539.504 L 506.823 548.449 C 506.819 552.566 509.891 556.036 513.978 556.532 C 533.179 558.852 587.564 565.809 619.99 556.996 C 624.145 555.844 626.89 551.897 626.523 547.601 L 625.926 540.71 L 561.378 524.61 L 506.823 539.504 Z" fill="#fff" opacity="0.2"/>
  <path d="M 628.962 503.142 L 546.153 488.565 L 537.062 507.726 L 533.55 516.274 L 562.452 528.041 C 562.452 528.041 643.949 559.634 655.319 532.362 C 655.319 532.362 662.196 520.792 655.703 495.522 C 655.466 494.604 655.275 493.676 655.133 492.739 C 653.808 484.418 645.778 438.687 618.943 427.475 C 618.943 427.475 599.794 419.684 594.269 418.717 L 539.023 418.717 C 539.023 418.717 498.448 424.441 488.376 455.079 C 488.376 455.079 473.8 490.751 474.09 516.274 C 474.09 516.274 471.812 541.783 494.869 542.777 C 494.869 542.777 541.621 542.579 562.452 528.068 L 533.55 516.274 L 537.115 507.687 C 530.55 506.937 523.922 506.937 517.357 507.687 C 517.357 507.687 521.863 495.959 522.18 484.59" fill="#0071f2" data-primary="true"/>
  <path d="M 628.962 503.142 L 546.153 488.565 L 537.062 507.726 L 533.55 516.274 L 562.452 528.041 C 562.452 528.041 643.949 559.634 655.319 532.362 C 655.319 532.362 662.196 520.792 655.703 495.522 C 655.466 494.604 655.275 493.676 655.133 492.739 C 653.808 484.418 645.778 438.687 618.943 427.475 C 618.943 427.475 599.794 419.684 594.269 418.717 L 539.023 418.717 C 539.023 418.717 498.448 424.441 488.376 455.079 C 488.376 455.079 473.8 490.751 474.09 516.274 C 474.09 516.274 471.812 541.783 494.869 542.777 C 494.869 542.777 541.621 542.579 562.452 528.068 L 533.55 516.274 L 537.115 507.687 C 530.55 506.937 523.922 506.937 517.357 507.687 C 517.357 507.687 521.863 495.959 522.18 484.59" fill="#fff" opacity="0.2"/>
  <path d="M 546.166 488.526 C 543.741 492.395 542.323 496.914 539.912 501.711 C 537.531 506.458 535.396 511.323 533.511 516.287 C 540.587 519.362 548.088 522.317 555.773 525.338 C 568.057 530.108 582.673 535.41 591.937 537.464 C 591.937 537.464 625.914 546.992 642.199 542.181 C 642.199 542.181 658.777 542.472 658.445 515.082 L 657.585 504.865 L 628.962 503.142 L 546.166 488.526 Z" opacity="0.2"/>
  <path d="M 544.549 410.328 C 544.549 410.328 566.123 402.947 586.636 409.957 C 584.423 413.668 582.025 417.47 579.388 421.354 C 575.002 427.847 570.562 433.73 566.242 439.018 L 544.549 410.328 Z" fill="#0071f2" data-primary="true"/>
  <path d="M 544.549 410.328 C 544.549 410.328 566.123 402.947 586.636 409.957 C 584.423 413.668 582.025 417.47 579.388 421.354 C 575.002 427.847 570.562 433.73 566.242 439.018 L 544.549 410.328 Z" fill="#fff" opacity="0.2"/>
  <path d="M 380.84 538.934 C 380.84 538.934 389.758 543.453 413.015 542.791 L 413.148 493.654 C 413.148 493.654 413.863 443.602 422.913 418.81 C 422.913 418.81 404.931 430.351 389.546 418.81 C 389.546 418.81 377.182 442.847 377.819 476.572 C 377.633 480.707 377.513 484.934 377.488 489.241 C 377.362 505.866 378.483 522.477 380.84 538.934 Z" fill="#ccc"/>
  <path d="M 376.745 367.871 C 376.745 367.871 370.266 338.823 383.61 332.304 C 383.61 332.304 398.186 322.06 412.485 330.752 C 412.485 330.752 438.245 326.407 441.042 355.931 C 441.042 355.931 439.492 397.222 448.17 412.117 L 424.584 412.117 L 371.816 417.418 C 371.816 417.418 380.111 386.993 376.745 367.871 Z" fill="#2f2e41" data-secondary="true"/>
  <path d="M 314.781 538.298 C 314.781 538.298 314.569 554.968 319.644 559.09 C 319.644 559.09 326.27 552.57 329.238 545.414 C 329.238 545.414 319.432 542.367 314.781 538.298 Z" fill="#231f20" opacity="0.2"/>
  <path d="M 442.3 539.716 C 442.3 539.716 431.488 544.446 424.279 545.652 C 421.369 546.122 418.456 544.833 416.845 542.367 L 413.929 537.98 C 413.228 536.919 412.855 535.674 412.856 534.402 L 412.856 531.898 C 412.852 529.456 414.219 527.219 416.394 526.107 C 423.271 522.582 438.537 515.731 447.322 519.362 C 448.22 519.741 449.021 520.316 449.668 521.045 C 451.988 523.562 458.097 530.254 459.064 532.136 C 459.064 532.136 468.419 530.811 473.19 526.385 C 473.19 526.385 479.444 540.763 480.81 543.439 C 480.81 543.439 463.132 558.148 452.12 550.25 C 452.12 550.318 445.176 545.228 442.3 539.716 Z" fill="#f9b499"/>
  <path d="M 357.305 516.274 C 357.305 516.274 360.168 493.283 358.498 479.408 C 358.498 479.408 363.043 502.148 360.658 516.274 L 357.305 516.274 Z" fill="#231f20" opacity="0.2"/>
  <path d="M 350.574 569.85 C 348.856 569.85 347.147 569.605 345.498 569.121 L 345.764 568.313 C 346.188 568.458 356.179 571.718 360.141 563.423 L 360.963 563.728 C 359.067 567.691 354.96 570.112 350.574 569.85 Z" fill="#3f3d56"/>
  <g opacity="0.2" transform="matrix(1.325152, 0, 0, 1.325152, -19.037611, -38.049877)">
    <path d="M365.45,465.09c-17-1.8-17.89-11.73-17.9-11.83l.73-.36c0,.1.61,9.8,17.05,11.54Z" fill="#231f20"/>
  </g>
  <polygon points="550.062 444.04 539.023 418.717 544.549 410.328 562.028 433.452 550.062 444.04" fill="#0071f2" data-primary="true"/>
  <polygon points="570.523 434.3 582.21 444.04 594.229 418.717 586.636 409.957 570.523 434.3" fill="#0071f2" data-primary="true"/>
  <polygon points="552.964 395.234 550.168 417.762 566.242 439.018 570.523 433.969 581.825 417.126 578.301 395.234 552.964 395.234" fill="#f9b499"/>
  <path d="M 521.624 491.136 C 521.624 491.136 539.885 490.778 543.926 493.402 L 537.142 507.687 C 537.142 507.687 520.908 506.454 517.384 507.687 C 517.318 507.726 521.015 496.609 521.624 491.136 Z" fill="#f9b499"/>
  <path d="M 602.764 498.517 C 602.764 498.517 611.43 483.835 626.112 482.615 C 630.173 482.315 634.182 483.678 637.218 486.392 C 639.703 488.612 639.795 492.472 637.416 494.806 L 628.962 503.142 L 602.764 498.517 Z" fill="#f9b499"/>
  <path d="M 733.569 383.732 C 733.569 383.732 733.569 384.076 733.49 384.673 C 733.052 389.576 730.839 412.184 725.897 414.794 L 727.725 427.185 C 727.725 427.185 750.73 433.372 760.231 427.185 L 760.231 411.283 C 760.231 411.283 757.859 411.455 757.859 409.64 L 758.231 402.325 L 733.569 383.732 Z" fill="#f9b499"/>
  <path d="M 683.147 494.794 L 688.262 578.821 C 688.262 578.821 729.182 594.538 736.127 592.338 C 736.127 592.338 738.313 479.819 734.112 451.315 L 717.123 418.717 C 710.365 417.657 683.902 431.172 676.614 434.99 C 675.362 435.649 674.303 436.621 673.54 437.812 C 660.089 459.379 650.242 482.993 644.387 507.726 C 644.387 507.726 651.012 557.275 666.304 578.821 C 666.304 578.821 688.593 572.606 692.238 565.305 C 692.238 565.305 679.092 521.827 675.434 515.253 C 675.474 515.253 676.574 514.154 683.147 494.794 Z" fill="#0071f2" data-primary="true"/>
  <path d="M 762.802 592.55 L 760.244 453.873 L 765.849 412.355 C 765.849 412.355 810.295 430.908 814.311 457.901 L 819.426 481.092 L 823.083 477.619 L 815.052 543.453 C 815.052 543.453 804.822 545.574 802.622 533.527 L 804.094 585.766 C 804.094 585.766 789.464 592.723 762.802 592.55 Z" fill="#0071f2" data-primary="true"/>
  <path d="M 801.152 491.136 L 802.61 533.541 C 802.61 533.541 804.318 545.374 815.04 543.466 L 815.688 538.166 C 815.688 538.166 802.861 538.391 801.152 491.136 Z" opacity="0.2"/>
  <path d="M 670.943 577.391 C 670.943 577.391 673.288 591.967 682.299 596.354 C 682.299 596.354 696.319 589.304 702.336 583.936 C 702.336 583.936 707.636 589.541 709.822 589.541 C 712.883 589.564 714.819 586.265 713.307 583.604 C 713.254 583.508 713.196 583.417 713.136 583.327 C 710.617 579.841 707.504 576.826 703.939 574.422 C 700.245 572.08 695.947 570.869 691.575 570.936 C 690.189 571.059 688.808 570.668 687.692 569.837 C 687.692 569.837 676.455 577.298 670.943 577.391 Z" fill="#f9b499"/>
  <polygon points="864.229 492.885 821.731 488.631 791.65 737.071 835.977 737.071 864.229 492.885" fill="#2f2e41" data-secondary="true"/>
  <polygon points="808.414 730.803 835.513 490.01 849.613 491.149 823.069 737.071 807.566 737.071 808.414 730.803" fill="#fff" opacity="0.2"/>
  <polygon points="823.069 473.684 821.731 488.631 864.229 492.885 865.74 478.957 823.069 473.684" fill="#2f2e41" data-secondary="true"/>
  <polygon points="823.069 473.684 821.731 488.631 864.229 492.885 865.74 478.957 823.069 473.684" opacity="0.2"/>
  <path d="M 824.448 458.882 L 823.123 473.737 L 865.793 479.037 L 867.316 462.857 C 868.185 454.006 861.688 446.136 852.832 445.312 L 841.927 444.292 C 833.064 443.471 825.225 450.016 824.448 458.882 Z" fill="#2f2e41" data-secondary="true"/>
  <path d="M 847.466 446.545 C 847.466 446.545 838.031 461.97 861.168 467.402 C 861.168 467.402 872.312 471.113 872.604 456.973 C 872.604 456.973 873.744 440.555 853.178 438.263 C 853.178 438.263 834.877 435.957 833.737 445.286 C 833.379 448.136 835.596 450.657 838.467 450.666 C 840.602 450.639 843.557 449.699 847.466 446.545 Z" fill="#f9b499"/>
  <path d="M 736.697 563.635 C 736.697 563.635 737.213 472.504 734.112 451.315 C 734.112 451.315 729.196 437.176 727.725 427.185 C 727.725 427.185 751.644 433.187 760.231 427.185 L 760.231 453.873 L 762.271 564.033 L 736.697 563.635 Z" fill="#ccc"/>
  <path d="M 245.237 445.166 L 315.311 453.21 C 317.932 453.529 320.113 455.371 320.864 457.901 L 343.564 535.462 L 324.177 533.29 L 260.079 522.303 L 240.824 450.295 C 240.063 447.505 242.365 444.83 245.237 445.166 Z" fill="#2f2e41" data-secondary="true"/>
  <path d="M 311.973 452.825 L 321.128 452.825 C 323.257 452.82 325.135 454.218 325.741 456.258 L 348.03 530.083 L 400.558 522.41 C 402.371 522.143 403.998 523.546 404.003 525.378 C 404.001 526.899 402.863 528.178 401.354 528.36 L 343.617 535.462 L 320.864 457.901 C 320.864 457.901 319.644 452.057 311.973 452.825 Z" fill="#2f2e41" data-secondary="true"/>
  <path d="M 311.973 452.825 L 321.128 452.825 C 323.257 452.82 325.135 454.218 325.741 456.258 L 348.03 530.083 L 400.558 522.41 C 402.371 522.143 403.998 523.546 404.003 525.378 C 404.001 526.899 402.863 528.178 401.354 528.36 L 343.617 535.462 L 320.864 457.901 C 320.864 457.901 319.644 452.057 311.973 452.825 Z" fill="#231f20" opacity="0.2"/>
  <polygon points="343.364 514.751 397.616 522.834 347.976 530.083 343.364 514.751" fill="#2f2e41" data-secondary="true"/>
  <path d="M 389.546 418.81 C 389.546 418.81 393.191 412.077 393.138 400.814 L 414.141 389.099 L 420.237 379.89 L 424.584 412.077 L 422.913 418.81 C 422.913 418.81 402.719 432.273 389.546 418.81 Z" fill="#f9b499"/>
  <path d="M 291.804 515.068 C 284.786 513.277 278.459 519.754 280.417 526.726 C 280.465 526.901 280.52 527.075 280.58 527.247 C 282.288 532.547 287.205 538.298 300.457 538.298 C 300.457 538.298 309.958 538.086 314.821 538.298 C 314.821 538.298 323.647 544.288 329.279 545.414 C 331.026 541.721 332.47 537.892 333.599 533.965 C 333.599 533.965 312.913 534.282 306.685 525.405 C 306.644 525.405 299.582 517.109 291.804 515.068 Z" fill="#f9b499"/>
  <path d="M 520.762 479.991 L 521.558 491.136 C 521.558 491.136 539.554 490.924 543.86 493.402 L 547.24 486.696 L 520.762 479.991 Z" fill="#0071f2" data-primary="true"/>
  <path d="M 520.762 479.991 L 521.558 491.136 C 521.558 491.136 539.554 490.924 543.86 493.402 L 547.24 486.696 L 520.762 479.991 Z" fill="#fff" opacity="0.2"/>
  <polygon points="683.492 503.208 693.749 481.754 684.34 517.095 683.492 503.208" opacity="0.2"/>
  <path d="M 702.812 573.733 C 702.812 573.733 710.312 578.198 713.161 583.327 C 713.161 583.327 714.593 586.308 713.348 587.62 L 719.072 589.356 L 719.072 588.03 C 716.959 576.451 708.142 567.248 696.663 564.642 L 685.598 534.986 L 686.129 543.612 L 692.277 565.251 C 691.229 567.172 689.645 568.746 687.718 569.784 C 688.891 570.489 690.232 570.869 691.602 570.884 C 695.497 570.992 699.322 571.946 702.812 573.68" opacity="0.2"/>
  <path d="M 710.909 433.426 L 722.61 435.984 L 720.821 444.04 L 734.073 451.315 C 730.119 438.701 728.04 425.575 727.898 412.355 C 727.898 412.355 712.446 413.695 710.909 433.426 Z" fill="#0071f2" data-primary="true"/>
  <path d="M 710.909 433.426 L 722.61 435.984 L 720.821 444.04 L 734.073 451.315 C 730.119 438.701 728.04 425.575 727.898 412.355 C 727.898 412.355 712.446 413.695 710.909 433.426 Z" fill="#fff" opacity="0.2"/>
  <path d="M 760.231 453.873 L 760.231 411.322 C 760.231 411.322 769.507 407.664 780.93 432.604 L 770.779 435.519 C 769.712 435.82 769.156 436.994 769.599 438.011 L 772.409 444.384 L 760.231 453.873 Z" fill="#0071f2" data-primary="true"/>
  <path d="M 760.231 453.873 L 760.231 411.322 C 760.231 411.322 769.507 407.664 780.93 432.604 L 770.779 435.519 C 769.712 435.82 769.156 436.994 769.599 438.011 L 772.409 444.384 L 760.231 453.873 Z" fill="#fff" opacity="0.2"/>
  <line x1="162.866" y1="289.448" x2="975.144" y2="289.448" fill="none" stroke="#ccc" stroke-miterlimit="10" stroke-width="1.97"/>
  <rect x="162.866" y="236.203" width="812.278" height="502.564" rx="6.52" fill="none" stroke-miterlimit="10" stroke-width="1.97" style="stroke: rgb(230, 239, 242);"/>
  <path d="M 216.402 263.369 C 216.402 269.091 210.207 272.669 205.251 269.807 C 200.294 266.946 200.294 259.792 205.251 256.93 C 206.381 256.278 207.663 255.935 208.968 255.935 C 213.074 255.935 216.402 259.264 216.402 263.369 Z" fill="#2f2e41" data-secondary="true"/>
  <path d="M 216.402 263.369 C 216.402 269.091 210.207 272.669 205.251 269.807 C 200.294 266.946 200.294 259.792 205.251 256.93 C 206.381 256.278 207.663 255.935 208.968 255.935 C 213.074 255.935 216.402 259.264 216.402 263.369 Z" fill="#fff" opacity="0.2"/>
  <path d="M 245.276 263.369 C 245.276 269.091 239.082 272.669 234.126 269.807 C 229.17 266.946 229.17 259.792 234.126 256.93 C 235.256 256.278 236.538 255.935 237.843 255.935 C 241.949 255.935 245.276 259.264 245.276 263.369 Z" fill="#ccc"/>
  <path d="M 274.152 263.369 C 274.152 269.091 267.957 272.669 263 269.807 C 258.045 266.946 258.045 259.792 263 256.93 C 264.132 256.278 265.413 255.935 266.718 255.935 C 270.823 255.935 274.152 259.264 274.152 263.369 Z" fill="#2f2e41" data-secondary="true"/>
  <rect x="880.024" y="272.751" width="210.394" height="196.042" rx="5.99" style="fill: rgb(0, 143, 195);"/>
  <rect x="880.024" y="272.751" width="210.394" height="196.042" rx="5.99" fill="none" stroke="#ccc" stroke-miterlimit="10" stroke-width="1.97"/>
  <rect x="-1044.926" y="-417.802" width="118.813" height="100.91" rx="6.02" transform="matrix(-1, 0, 0, -1, 0, 0)" style="fill: rgb(0, 143, 195);"/>
  <polygon points="1012.632 384.117 966.186 384.117 957.798 384.117 957.798 347.357 1012.632 347.357 1012.632 356.54 1012.632 384.117" fill="none" stroke-linecap="round" stroke-linejoin="round" stroke-width="1.65" style="stroke: rgb(235, 168, 0);"/>
  <polyline points="957.798 347.357 985.215 368.958 1012.632 347.357" fill="none" stroke-linecap="round" stroke-linejoin="round" stroke-width="1.65" style="stroke: rgb(242, 222, 0);"/>
  <rect x="27.15" y="358.15" width="151.41" height="133.81" rx="5.71" style="fill: rgb(0, 143, 195);"/>
  <rect x="27.15" y="358.15" width="151.41" height="133.81" rx="5.71" fill="none" stroke="#ccc" stroke-miterlimit="10" stroke-width="1.97"/>
  <rect x="40.14" y="366.399" width="116.017" height="112.784" rx="6.64" style="fill: rgb(0, 143, 195);"/>
  <path d="M 75.655 399.499 C 57.787 417.351 65.944 447.85 90.338 454.398 C 114.732 460.946 137.068 438.632 130.542 414.233 C 129.051 408.658 126.117 403.576 122.036 399.499 C 109.195 386.772 88.496 386.772 75.655 399.499 Z M 122.036 404.216 L 111.593 404.216 C 110.493 400.834 109.134 397.542 107.525 394.37 C 113.223 396.119 118.259 399.552 121.969 404.216 L 122.036 404.216 Z M 86.813 420.808 C 86.812 416.524 87.332 412.256 88.363 408.098 L 109.341 408.098 C 110.398 412.254 110.945 416.52 110.971 420.808 L 86.813 420.808 Z M 110.771 424.651 C 110.459 428.957 109.705 433.22 108.519 437.371 L 89.198 437.371 C 88.001 433.221 87.242 428.958 86.932 424.651 L 110.771 424.651 Z M 98.845 393.138 C 100.394 393.136 101.941 393.255 103.47 393.496 C 105.406 396.916 107 400.521 108.227 404.256 L 89.464 404.256 C 90.69 400.521 92.284 396.916 94.22 393.496 C 95.754 393.242 97.304 393.109 98.858 393.098 L 98.845 393.138 Z M 90.246 394.464 C 88.626 397.63 87.265 400.923 86.177 404.309 L 75.735 404.309 C 79.455 399.599 84.52 396.132 90.258 394.37 L 90.246 394.464 Z M 73.123 408.059 L 85.051 408.059 C 84.031 412.233 83.484 416.51 83.421 420.808 L 69.321 420.808 C 69.597 416.322 70.898 411.962 73.123 408.059 Z M 73.123 437.332 C 70.906 433.436 69.606 429.085 69.321 424.61 L 83.487 424.61 C 83.701 428.909 84.368 433.173 85.475 437.332 L 73.123 437.332 Z M 75.774 441.161 L 86.654 441.161 C 87.754 444.568 89.081 447.898 90.629 451.127 C 84.754 449.425 79.55 445.943 75.735 441.161 L 75.774 441.161 Z M 98.899 452.279 C 97.6 452.283 96.303 452.198 95.015 452.028 C 93.247 448.511 91.716 444.882 90.431 441.161 L 107.353 441.161 C 106.074 444.884 104.542 448.514 102.768 452.028 C 101.472 452.201 100.166 452.284 98.858 452.279 L 98.899 452.279 Z M 107.087 451.127 C 108.668 447.902 110.022 444.572 111.142 441.161 L 122.009 441.161 C 118.165 445.966 112.916 449.451 106.995 451.127 L 107.087 451.127 Z M 124.619 437.332 L 112.296 437.332 C 113.401 433.172 114.071 428.909 114.297 424.61 L 128.45 424.61 C 128.145 429.09 126.821 433.441 124.58 437.332 L 124.619 437.332 Z M 128.423 420.767 L 114.283 420.767 C 114.204 416.482 113.644 412.219 112.613 408.059 L 124.539 408.059 C 126.78 411.958 128.094 416.32 128.382 420.808 L 128.423 420.767 Z" fill="#fff"/>
  <path d="M 229.72 189.876 L 64.791 189.876 C 61.384 189.884 58.616 187.123 58.616 183.714 C 58.608 180.3 61.379 177.531 64.791 177.539 L 229.72 177.539 C 233.131 177.539 235.895 180.304 235.895 183.714 C 235.888 187.119 233.125 189.876 229.72 189.876 Z" style="fill: rgb(0, 143, 195);"/>
  <path d="M 1087.384 592.723 L 1007.332 592.723 C 1003.929 592.723 1001.169 589.963 1001.169 586.56 C 1001.163 583.152 1003.923 580.385 1007.332 580.385 L 1087.384 580.385 C 1090.794 580.385 1093.559 583.149 1093.559 586.56 C 1093.552 589.965 1090.789 592.723 1087.384 592.723 Z" style="fill: rgb(0, 143, 195);"/>
  <rect x="1016.886" y="645.596" width="19.095" height="18.486" rx="2.86" fill="#2f2e41" data-secondary="true"/>
  <rect x="89.638" y="688.332" width="19.095" height="18.486" rx="2.86" fill="#2f2e41" data-secondary="true"/>
  <line x1="708.577" y1="151.566" x2="824.355" y2="151.566" fill="none" stroke="#fff" stroke-miterlimit="10" stroke-width="1.18"/>
  <line x1="708.577" y1="163.44" x2="755.738" y2="163.44" fill="none" stroke="#fff" stroke-miterlimit="10" stroke-width="1.18"/>
  <path d="M 368.689 88.767 L 454.744 88.767 C 459.472 88.767 463.304 92.6 463.304 97.327 L 463.304 177.844 C 463.304 182.571 459.472 186.404 454.744 186.404 L 371.418 186.404 C 365.182 186.404 360.128 181.349 360.128 175.114 L 360.128 97.327 C 360.128 92.6 363.961 88.767 368.689 88.767 Z" style="fill: rgb(0, 143, 195);"/>
  <path d="M 435.781 144.821 L 429.911 138.938 C 428.959 137.838 427.588 137.193 426.134 137.162 C 424.704 137.2 423.347 137.799 422.357 138.831 L 419.004 142.171 L 418.368 141.852 C 418.01 141.695 417.661 141.517 417.322 141.323 C 414.006 139.164 411.065 136.479 408.616 133.372 C 407.52 132.063 406.602 130.615 405.885 129.064 C 406.733 128.336 407.463 127.488 408.192 126.759 L 409.145 125.818 C 411.517 123.773 411.517 120.099 409.145 118.053 L 406.204 115.111 C 405.863 114.786 405.55 114.437 405.263 114.064 L 403.262 112.077 C 402.277 111.036 400.917 110.43 399.485 110.393 C 398.048 110.409 396.681 111.018 395.708 112.077 L 392.038 115.747 C 390.663 117.131 389.811 118.948 389.626 120.889 C 389.498 123.603 389.95 126.313 390.951 128.84 C 392.797 133.892 395.575 138.553 399.14 142.581 C 403.746 148.088 409.462 152.558 415.917 155.7 C 418.873 157.197 422.073 158.157 425.365 158.537 L 426.095 158.537 C 428.486 158.571 430.778 157.577 432.389 155.806 L 432.494 155.7 C 433.072 155.016 433.705 154.383 434.39 153.805 L 435.715 152.48 C 437.914 150.412 437.944 146.927 435.781 144.821 Z M 433.369 150.267 L 432.11 151.592 C 431.381 152.228 430.785 152.918 430.016 153.7 C 429.039 154.737 427.665 155.306 426.239 155.263 L 425.723 155.263 C 422.856 154.964 420.073 154.109 417.534 152.745 C 411.518 149.798 406.19 145.618 401.897 140.475 C 398.669 136.692 396.085 132.402 394.251 127.78 C 393.27 125.757 392.835 123.514 392.992 121.273 C 393.051 120.107 393.577 119.014 394.449 118.238 L 398.028 114.674 C 398.397 114.245 398.92 113.979 399.485 113.932 C 400.06 113.953 400.597 114.224 400.955 114.674 L 402.851 116.556 C 403.166 116.937 403.516 117.287 403.898 117.602 L 406.84 120.545 C 407.239 120.939 407.497 121.457 407.568 122.015 C 407.517 122.58 407.257 123.104 406.84 123.486 L 405.885 124.427 L 403.235 127.078 L 403.129 127.183 C 402.363 127.834 402.111 128.91 402.507 129.834 L 402.507 129.926 C 403.388 131.969 404.552 133.879 405.965 135.597 C 408.64 139.014 411.869 141.957 415.519 144.304 C 415.934 144.593 416.379 144.837 416.845 145.033 C 417.203 145.191 417.552 145.368 417.891 145.563 L 417.997 145.669 C 418.978 146.198 420.194 145.977 420.926 145.139 L 424.596 141.468 C 424.979 141.05 425.503 140.79 426.068 140.739 C 426.581 140.82 427.049 141.078 427.393 141.468 L 433.264 147.352 C 434.148 148.099 434.197 149.446 433.369 150.254 L 433.369 150.267 Z" fill="#fff"/>
  <path d="M 393.084 400.814 L 392.925 405.134 C 399.42 406.207 405.974 403.589 409.941 398.336 L 393.084 400.814 Z" fill="#f4a48e"/>
  <path d="M 432.984 373.847 C 431.992 379.068 427.817 382.619 423.709 381.798 C 422.4 381.53 421.206 380.863 420.29 379.89 C 417.917 392.69 409.53 402.139 399.551 402.139 C 387.731 402.139 378.149 388.887 378.149 372.495 C 378.149 356.104 387.731 342.851 399.551 342.851 C 409.676 342.851 418.103 352.565 420.383 365.631 C 422.008 363.529 424.65 362.482 427.274 362.901 C 431.381 363.736 433.966 368.626 432.984 373.847 Z" fill="#f9b499"/>
  <path d="M 378.097 369.858 C 378.097 369.858 379.555 356.46 387.837 353.533 C 387.837 353.533 402.347 348.231 403.367 343.342 C 403.367 343.342 418.766 356.209 418.766 366.929 C 418.766 366.929 425.074 358.051 431.169 365.419 C 431.169 365.419 437.066 375.318 427.552 381.32 C 427.552 381.32 423.166 383.6 420.237 379.89 C 420.237 379.89 422.608 408.022 424.584 412.077 L 437.517 363.471 L 433.184 349.583 L 412.432 335.272 L 388.327 335.272 C 388.327 335.272 375.155 352.697 375.169 353.612 C 375.181 354.526 378.097 369.858 378.097 369.858 Z" fill="#2f2e41" data-secondary="true"/>
  <path d="M 552.103 402.788 L 553.03 395.234 C 553.03 395.234 563.393 401.304 571.463 401.86 C 571.397 401.901 568.203 405.796 552.103 402.788 Z" fill="#f4a48e"/>
  <ellipse cx="565.567" cy="371.646" rx="24.051" ry="31.142" fill="#f9b499"/>
  <ellipse cx="592.52" cy="371.766" rx="6.48" ry="9.038" fill="#f9b499"/>
  <ellipse cx="538.175" cy="371.766" rx="6.48" ry="9.038" fill="#f9b499"/>
  <path d="M 542.707 367.659 C 542.707 367.659 527.097 352.803 542.707 341.354 C 542.707 341.354 546.882 320.403 573.425 325.771 C 573.425 325.771 599.199 325.903 594.229 362.729 C 592.483 364.531 590.585 366.18 588.558 367.659 C 588.558 367.659 586.584 355.48 576.844 355.97 C 576.844 355.97 555.641 356.938 551.506 347.688 C 546.996 353.533 543.976 360.386 542.707 367.659 Z" fill="#2f2e41" data-secondary="true"/>
  <path d="M 757.859 409.679 L 757.992 406.909 C 757.992 406.909 741.056 407.493 736.697 397.395 C 736.697 397.395 739.453 409.852 757.859 409.679 Z" fill="#f4a48e"/>
  <path d="M 776.212 378.459 C 776.212 394.466 766.154 407.44 753.684 407.44 C 743.216 407.44 734.404 398.163 731.899 385.747 C 730.843 386.642 729.507 387.139 728.122 387.151 C 724.067 387.151 720.781 382.792 720.781 377.399 C 720.781 372.005 724.067 367.659 728.122 367.659 C 729.69 367.686 731.188 368.311 732.311 369.407 C 735.265 357.839 743.72 349.53 753.684 349.53 C 766.154 349.491 776.212 362.464 776.212 378.459 Z" fill="#f9b499"/>
  <path d="M 736.51 370.096 L 738.472 357.164 C 738.472 357.164 749.59 359.23 755.938 355.441 C 755.938 355.441 770.939 366.346 782.865 355.441 C 782.865 355.441 790.365 347.941 782.865 337.723 C 782.865 337.723 780.135 329.19 764.458 334.649 C 764.458 334.649 747.761 318.972 733.781 338.399 C 733.781 338.399 716.766 337.431 720.821 353.055 C 720.821 353.055 709.557 362.517 722.147 371.753 C 722.147 371.753 712.87 391.842 732.667 388.808 L 731.899 385.733 C 731.899 385.733 725.566 390.16 721.789 382.288 C 721.789 382.288 718.317 373.847 724.279 369.102 C 725.968 367.548 728.431 367.17 730.508 368.149 C 732.231 369.026 734.069 369.655 735.967 370.018 L 736.51 370.096 Z" fill="#2f2e41" data-secondary="true"/>
</svg>